<mxfile host="65bd71144e" pages="1">
    <diagram id="iHk2X-Dkp1EhZ_3wFl5K" name="Page-1">
        <mxGraphModel dx="1155" dy="807" grid="1" gridSize="10" guides="1" tooltips="1" connect="1" arrows="1" fold="1" page="1" pageScale="1" pageWidth="1654" pageHeight="1169" background="none" math="0" shadow="0">
            <root>
                <mxCell id="0"/>
                <mxCell id="1" parent="0"/>
                <mxCell id="5" value="VPC" style="points=[[0,0],[0.25,0],[0.5,0],[0.75,0],[1,0],[1,0.25],[1,0.5],[1,0.75],[1,1],[0.75,1],[0.5,1],[0.25,1],[0,1],[0,0.75],[0,0.5],[0,0.25]];outlineConnect=0;gradientColor=none;html=1;whiteSpace=wrap;fontSize=12;fontStyle=0;shape=mxgraph.aws4.group;grIcon=mxgraph.aws4.group_vpc;strokeColor=#248814;fillColor=none;verticalAlign=top;align=left;spacingLeft=30;fontColor=#AAB7B8;dashed=0;" parent="1" vertex="1">
                    <mxGeometry x="260" y="200" width="1100" height="730" as="geometry"/>
                </mxCell>
                <mxCell id="39" value="Private subnet" style="points=[[0,0],[0.25,0],[0.5,0],[0.75,0],[1,0],[1,0.25],[1,0.5],[1,0.75],[1,1],[0.75,1],[0.5,1],[0.25,1],[0,1],[0,0.75],[0,0.5],[0,0.25]];outlineConnect=0;gradientColor=none;html=1;whiteSpace=wrap;fontSize=12;fontStyle=0;shape=mxgraph.aws4.group;grIcon=mxgraph.aws4.group_security_group;grStroke=0;strokeColor=#147EBA;fillColor=#E6F2F8;verticalAlign=top;align=left;spacingLeft=30;fontColor=#147EBA;dashed=0;" parent="1" vertex="1">
                    <mxGeometry x="1170" y="670" width="160" height="239" as="geometry"/>
                </mxCell>
                <mxCell id="8" style="edgeStyle=orthogonalEdgeStyle;rounded=0;orthogonalLoop=1;jettySize=auto;html=1;" parent="1" source="6" target="7" edge="1">
                    <mxGeometry relative="1" as="geometry"/>
                </mxCell>
                <mxCell id="6" value="" style="verticalLabelPosition=bottom;html=1;verticalAlign=top;align=center;strokeColor=none;fillColor=#00BEF2;shape=mxgraph.azure.user;" parent="1" vertex="1">
                    <mxGeometry x="30" y="234" width="47.5" height="50" as="geometry"/>
                </mxCell>
                <mxCell id="12" style="edgeStyle=orthogonalEdgeStyle;rounded=0;orthogonalLoop=1;jettySize=auto;html=1;" parent="1" source="7" target="10" edge="1">
                    <mxGeometry relative="1" as="geometry"/>
                </mxCell>
                <mxCell id="7" value="" style="dashed=0;outlineConnect=0;html=1;align=center;labelPosition=center;verticalLabelPosition=bottom;verticalAlign=top;shape=mxgraph.weblogos.github" parent="1" vertex="1">
                    <mxGeometry x="150" y="221.5" width="75" height="75" as="geometry"/>
                </mxCell>
                <mxCell id="9" value="" style="html=1;align=center;verticalAlign=top;rounded=1;absoluteArcSize=1;arcSize=20;dashed=1;" parent="1" vertex="1">
                    <mxGeometry x="399" y="306" width="748" height="607" as="geometry"/>
                </mxCell>
                <mxCell id="10" value="" style="points=[[0,0,0],[0.25,0,0],[0.5,0,0],[0.75,0,0],[1,0,0],[0,1,0],[0.25,1,0],[0.5,1,0],[0.75,1,0],[1,1,0],[0,0.25,0],[0,0.5,0],[0,0.75,0],[1,0.25,0],[1,0.5,0],[1,0.75,0]];outlineConnect=0;fontColor=#232F3E;gradientColor=#F78E04;gradientDirection=north;fillColor=#D05C17;strokeColor=#ffffff;dashed=0;verticalLabelPosition=bottom;verticalAlign=top;align=center;html=1;fontSize=12;fontStyle=0;aspect=fixed;shape=mxgraph.aws4.resourceIcon;resIcon=mxgraph.aws4.ecr;" parent="1" vertex="1">
                    <mxGeometry x="399" y="220" width="78" height="78" as="geometry"/>
                </mxCell>
                <mxCell id="13" value="" style="aspect=fixed;html=1;points=[];align=center;image;fontSize=12;image=img/lib/mscae/Docker.svg;" parent="1" vertex="1">
                    <mxGeometry x="260" y="260" width="98.78" height="81" as="geometry"/>
                </mxCell>
                <mxCell id="14" value="" style="points=[[0,0,0],[0.25,0,0],[0.5,0,0],[0.75,0,0],[1,0,0],[0,1,0],[0.25,1,0],[0.5,1,0],[0.75,1,0],[1,1,0],[0,0.25,0],[0,0.5,0],[0,0.75,0],[1,0.25,0],[1,0.5,0],[1,0.75,0]];outlineConnect=0;fontColor=#232F3E;gradientColor=#F78E04;gradientDirection=north;fillColor=#D05C17;strokeColor=#ffffff;dashed=0;verticalLabelPosition=bottom;verticalAlign=top;align=center;html=1;fontSize=12;fontStyle=0;aspect=fixed;shape=mxgraph.aws4.resourceIcon;resIcon=mxgraph.aws4.ecs;" parent="1" vertex="1">
                    <mxGeometry x="413" y="315" width="78" height="78" as="geometry"/>
                </mxCell>
                <mxCell id="17" value="" style="html=1;align=center;verticalAlign=top;rounded=1;absoluteArcSize=1;arcSize=20;dashed=1;" parent="1" vertex="1">
                    <mxGeometry x="497" y="403" width="615" height="487" as="geometry"/>
                </mxCell>
                <mxCell id="18" value="" style="outlineConnect=0;dashed=0;verticalLabelPosition=bottom;verticalAlign=top;align=center;html=1;shape=mxgraph.aws3.emr_cluster;fillColor=#F58534;gradientColor=none;" parent="1" vertex="1">
                    <mxGeometry x="511" y="410" width="74" height="80" as="geometry"/>
                </mxCell>
                <mxCell id="19" value="" style="html=1;align=center;verticalAlign=top;rounded=1;absoluteArcSize=1;arcSize=20;dashed=1;" parent="1" vertex="1">
                    <mxGeometry x="537" y="498" width="227" height="332" as="geometry"/>
                </mxCell>
                <mxCell id="22" value="" style="points=[[0,0,0],[0.25,0,0],[0.5,0,0],[0.75,0,0],[1,0,0],[0,1,0],[0.25,1,0],[0.5,1,0],[0.75,1,0],[1,1,0],[0,0.25,0],[0,0.5,0],[0,0.75,0],[1,0.25,0],[1,0.5,0],[1,0.75,0]];outlineConnect=0;fontColor=#232F3E;gradientColor=#F78E04;gradientDirection=north;fillColor=#D05C17;strokeColor=#ffffff;dashed=0;verticalLabelPosition=bottom;verticalAlign=top;align=center;html=1;fontSize=12;fontStyle=0;aspect=fixed;shape=mxgraph.aws4.resourceIcon;resIcon=mxgraph.aws4.fargate;" parent="1" vertex="1">
                    <mxGeometry x="602" y="526" width="78" height="78" as="geometry"/>
                </mxCell>
                <mxCell id="24" value="" style="outlineConnect=0;dashed=0;verticalLabelPosition=bottom;verticalAlign=top;align=center;html=1;shape=mxgraph.aws3.ec2_compute_container;fillColor=#F58534;gradientColor=none;" parent="1" vertex="1">
                    <mxGeometry x="602" y="628" width="90" height="74.5" as="geometry"/>
                </mxCell>
                <mxCell id="25" value="" style="outlineConnect=0;dashed=0;verticalLabelPosition=bottom;verticalAlign=top;align=center;html=1;shape=mxgraph.aws3.ec2_compute_container;fillColor=#F58534;gradientColor=none;" parent="1" vertex="1">
                    <mxGeometry x="602" y="747.25" width="90" height="74.5" as="geometry"/>
                </mxCell>
                <mxCell id="71" style="edgeStyle=orthogonalEdgeStyle;rounded=0;orthogonalLoop=1;jettySize=auto;html=1;entryX=1;entryY=0.5;entryDx=0;entryDy=0;" parent="1" source="27" target="60" edge="1">
                    <mxGeometry relative="1" as="geometry">
                        <Array as="points">
                            <mxPoint x="534" y="670"/>
                            <mxPoint x="460" y="670"/>
                            <mxPoint x="460" y="400"/>
                            <mxPoint x="830" y="400"/>
                            <mxPoint x="830" y="50"/>
                        </Array>
                    </mxGeometry>
                </mxCell>
                <mxCell id="73" style="edgeStyle=orthogonalEdgeStyle;rounded=0;orthogonalLoop=1;jettySize=auto;html=1;entryX=0;entryY=0.5;entryDx=0;entryDy=0;" parent="1" source="27" target="59" edge="1">
                    <mxGeometry relative="1" as="geometry">
                        <Array as="points">
                            <mxPoint x="534" y="670"/>
                            <mxPoint x="460" y="670"/>
                            <mxPoint x="460" y="400"/>
                            <mxPoint x="830" y="400"/>
                            <mxPoint x="830" y="50"/>
                        </Array>
                    </mxGeometry>
                </mxCell>
                <mxCell id="27" value="" style="outlineConnect=0;dashed=0;verticalLabelPosition=bottom;verticalAlign=top;align=center;html=1;shape=mxgraph.aws3.application_load_balancer;fillColor=#F58534;gradientColor=none;" parent="1" vertex="1">
                    <mxGeometry x="499" y="675.25" width="69" height="72" as="geometry"/>
                </mxCell>
                <mxCell id="34" value="" style="points=[[0,0,0],[0.25,0,0],[0.5,0,0],[0.75,0,0],[1,0,0],[0,1,0],[0.25,1,0],[0.5,1,0],[0.75,1,0],[1,1,0],[0,0.25,0],[0,0.5,0],[0,0.75,0],[1,0.25,0],[1,0.5,0],[1,0.75,0]];outlineConnect=0;fontColor=#232F3E;gradientColor=#4D72F3;gradientDirection=north;fillColor=#3334B9;strokeColor=#ffffff;dashed=0;verticalLabelPosition=bottom;verticalAlign=top;align=center;html=1;fontSize=12;fontStyle=0;aspect=fixed;shape=mxgraph.aws4.resourceIcon;resIcon=mxgraph.aws4.rds;" parent="1" vertex="1">
                    <mxGeometry x="1211" y="713.7" width="78" height="78" as="geometry"/>
                </mxCell>
                <mxCell id="40" value="" style="endArrow=none;html=1;exitX=1;exitY=0.5;exitDx=0;exitDy=0;exitPerimeter=0;entryX=0;entryY=0.5;entryDx=0;entryDy=0;entryPerimeter=0;" parent="1" source="27" target="24" edge="1">
                    <mxGeometry width="50" height="50" relative="1" as="geometry">
                        <mxPoint x="630" y="580" as="sourcePoint"/>
                        <mxPoint x="680" y="530" as="targetPoint"/>
                    </mxGeometry>
                </mxCell>
                <mxCell id="41" value="" style="endArrow=none;html=1;exitX=1;exitY=0.5;exitDx=0;exitDy=0;exitPerimeter=0;entryX=0;entryY=0.5;entryDx=0;entryDy=0;entryPerimeter=0;" parent="1" source="27" target="25" edge="1">
                    <mxGeometry width="50" height="50" relative="1" as="geometry">
                        <mxPoint x="465" y="656" as="sourcePoint"/>
                        <mxPoint x="554" y="598" as="targetPoint"/>
                    </mxGeometry>
                </mxCell>
                <mxCell id="43" value="" style="endArrow=none;html=1;entryX=0;entryY=0.5;entryDx=0;entryDy=0;entryPerimeter=0;exitX=1;exitY=0.5;exitDx=0;exitDy=0;exitPerimeter=0;" parent="1" source="24" target="33" edge="1">
                    <mxGeometry width="50" height="50" relative="1" as="geometry">
                        <mxPoint x="630" y="580" as="sourcePoint"/>
                        <mxPoint x="680" y="530" as="targetPoint"/>
                    </mxGeometry>
                </mxCell>
                <mxCell id="44" value="" style="endArrow=none;html=1;entryX=1;entryY=0.5;entryDx=0;entryDy=0;entryPerimeter=0;exitX=0;exitY=0.5;exitDx=0;exitDy=0;exitPerimeter=0;" parent="1" source="33" target="25" edge="1">
                    <mxGeometry width="50" height="50" relative="1" as="geometry">
                        <mxPoint x="820" y="650" as="sourcePoint"/>
                        <mxPoint x="680" y="530" as="targetPoint"/>
                    </mxGeometry>
                </mxCell>
                <mxCell id="51" value="" style="verticalLabelPosition=bottom;html=1;verticalAlign=top;align=center;strokeColor=none;fillColor=#00BEF2;shape=mxgraph.azure.user;" parent="1" vertex="1">
                    <mxGeometry x="90" y="791.7" width="47.5" height="50" as="geometry"/>
                </mxCell>
                <mxCell id="54" style="edgeStyle=orthogonalEdgeStyle;rounded=0;orthogonalLoop=1;jettySize=auto;html=1;entryX=0;entryY=0.5;entryDx=0;entryDy=0;entryPerimeter=0;" parent="1" source="52" target="53" edge="1">
                    <mxGeometry relative="1" as="geometry"/>
                </mxCell>
                <mxCell id="52" value="desktop" style="outlineConnect=0;gradientColor=none;fontColor=#545B64;strokeColor=none;fillColor=#879196;dashed=0;verticalLabelPosition=bottom;verticalAlign=top;align=center;html=1;fontSize=12;fontStyle=0;aspect=fixed;shape=mxgraph.aws4.illustration_desktop;pointerEvents=1" parent="1" vertex="1">
                    <mxGeometry x="157.5" y="791.6999999999999" width="60" height="54.6" as="geometry"/>
                </mxCell>
                <mxCell id="55" style="edgeStyle=orthogonalEdgeStyle;rounded=0;orthogonalLoop=1;jettySize=auto;html=1;entryX=0;entryY=0.5;entryDx=0;entryDy=0;entryPerimeter=0;" parent="1" source="53" target="27" edge="1">
                    <mxGeometry relative="1" as="geometry"/>
                </mxCell>
                <mxCell id="53" value="" style="points=[[0,0,0],[0.25,0,0],[0.5,0,0],[0.75,0,0],[1,0,0],[0,1,0],[0.25,1,0],[0.5,1,0],[0.75,1,0],[1,1,0],[0,0.25,0],[0,0.5,0],[0,0.75,0],[1,0.25,0],[1,0.5,0],[1,0.75,0]];outlineConnect=0;fontColor=#232F3E;gradientColor=#945DF2;gradientDirection=north;fillColor=#5A30B5;strokeColor=#ffffff;dashed=0;verticalLabelPosition=bottom;verticalAlign=top;align=center;html=1;fontSize=12;fontStyle=0;aspect=fixed;shape=mxgraph.aws4.resourceIcon;resIcon=mxgraph.aws4.route_53;" parent="1" vertex="1">
                    <mxGeometry x="290" y="780" width="78" height="78" as="geometry"/>
                </mxCell>
                <mxCell id="57" style="edgeStyle=orthogonalEdgeStyle;rounded=0;orthogonalLoop=1;jettySize=auto;html=1;entryX=0.5;entryY=0;entryDx=0;entryDy=0;entryPerimeter=0;" parent="1" source="10" target="22" edge="1">
                    <mxGeometry relative="1" as="geometry"/>
                </mxCell>
                <mxCell id="59" value="Google Apps Scrpt" style="rounded=0;whiteSpace=wrap;html=1;" parent="1" vertex="1">
                    <mxGeometry x="950" y="20" width="200" height="60" as="geometry"/>
                </mxCell>
                <mxCell id="60" value="Auth0" style="rounded=0;whiteSpace=wrap;html=1;" parent="1" vertex="1">
                    <mxGeometry x="480" y="20" width="160" height="60" as="geometry"/>
                </mxCell>
                <mxCell id="61" value="" style="outlineConnect=0;fontColor=#232F3E;gradientColor=none;fillColor=#5A30B5;strokeColor=none;dashed=0;verticalLabelPosition=bottom;verticalAlign=top;align=center;html=1;fontSize=12;fontStyle=0;aspect=fixed;pointerEvents=1;shape=mxgraph.aws4.internet_gateway;" parent="1" vertex="1">
                    <mxGeometry x="788" y="151" width="78" height="78" as="geometry"/>
                </mxCell>
                <mxCell id="66" value="" style="html=1;align=center;verticalAlign=top;rounded=1;absoluteArcSize=1;arcSize=20;dashed=1;" parent="1" vertex="1">
                    <mxGeometry x="853" y="498" width="227" height="332" as="geometry"/>
                </mxCell>
                <mxCell id="49" style="edgeStyle=orthogonalEdgeStyle;rounded=0;orthogonalLoop=1;jettySize=auto;html=1;entryX=0;entryY=0.5;entryDx=0;entryDy=0;entryPerimeter=0;" parent="1" source="31" target="34" edge="1">
                    <mxGeometry relative="1" as="geometry">
                        <Array as="points">
                            <mxPoint x="1130" y="665"/>
                            <mxPoint x="1130" y="815"/>
                        </Array>
                    </mxGeometry>
                </mxCell>
                <mxCell id="45" value="" style="endArrow=none;html=1;entryX=0;entryY=0.5;entryDx=0;entryDy=0;entryPerimeter=0;exitX=1;exitY=0.5;exitDx=0;exitDy=0;exitPerimeter=0;" parent="1" source="33" target="31" edge="1">
                    <mxGeometry width="50" height="50" relative="1" as="geometry">
                        <mxPoint x="630" y="580" as="sourcePoint"/>
                        <mxPoint x="680" y="530" as="targetPoint"/>
                    </mxGeometry>
                </mxCell>
                <mxCell id="46" value="" style="endArrow=none;html=1;exitX=0;exitY=0.5;exitDx=0;exitDy=0;exitPerimeter=0;entryX=1;entryY=0.5;entryDx=0;entryDy=0;entryPerimeter=0;" parent="1" source="32" target="33" edge="1">
                    <mxGeometry width="50" height="50" relative="1" as="geometry">
                        <mxPoint x="900" y="640" as="sourcePoint"/>
                        <mxPoint x="680" y="530" as="targetPoint"/>
                    </mxGeometry>
                </mxCell>
                <mxCell id="58" style="edgeStyle=orthogonalEdgeStyle;rounded=0;orthogonalLoop=1;jettySize=auto;html=1;entryX=0.5;entryY=0;entryDx=0;entryDy=0;entryPerimeter=0;" parent="1" source="10" target="30" edge="1">
                    <mxGeometry relative="1" as="geometry"/>
                </mxCell>
                <mxCell id="30" value="" style="points=[[0,0,0],[0.25,0,0],[0.5,0,0],[0.75,0,0],[1,0,0],[0,1,0],[0.25,1,0],[0.5,1,0],[0.75,1,0],[1,1,0],[0,0.25,0],[0,0.5,0],[0,0.75,0],[1,0.25,0],[1,0.5,0],[1,0.75,0]];outlineConnect=0;fontColor=#232F3E;gradientColor=#F78E04;gradientDirection=north;fillColor=#D05C17;strokeColor=#ffffff;dashed=0;verticalLabelPosition=bottom;verticalAlign=top;align=center;html=1;fontSize=12;fontStyle=0;aspect=fixed;shape=mxgraph.aws4.resourceIcon;resIcon=mxgraph.aws4.fargate;" parent="1" vertex="1">
                    <mxGeometry x="931" y="526" width="78" height="78" as="geometry"/>
                </mxCell>
                <mxCell id="31" value="" style="outlineConnect=0;dashed=0;verticalLabelPosition=bottom;verticalAlign=top;align=center;html=1;shape=mxgraph.aws3.ec2_compute_container;fillColor=#F58534;gradientColor=none;" parent="1" vertex="1">
                    <mxGeometry x="925" y="628" width="90" height="74.5" as="geometry"/>
                </mxCell>
                <mxCell id="70" style="edgeStyle=orthogonalEdgeStyle;rounded=0;orthogonalLoop=1;jettySize=auto;html=1;entryX=0;entryY=0.5;entryDx=0;entryDy=0;entryPerimeter=0;" parent="1" source="32" target="34" edge="1">
                    <mxGeometry relative="1" as="geometry">
                        <Array as="points">
                            <mxPoint x="1130" y="785"/>
                            <mxPoint x="1130" y="815"/>
                        </Array>
                    </mxGeometry>
                </mxCell>
                <mxCell id="32" value="" style="outlineConnect=0;dashed=0;verticalLabelPosition=bottom;verticalAlign=top;align=center;html=1;shape=mxgraph.aws3.ec2_compute_container;fillColor=#F58534;gradientColor=none;" parent="1" vertex="1">
                    <mxGeometry x="925" y="747.25" width="90" height="74.5" as="geometry"/>
                </mxCell>
                <mxCell id="33" value="" style="outlineConnect=0;dashed=0;verticalLabelPosition=bottom;verticalAlign=top;align=center;html=1;shape=mxgraph.aws3.application_load_balancer;fillColor=#F58534;gradientColor=none;" parent="1" vertex="1">
                    <mxGeometry x="810" y="675.25" width="69" height="72" as="geometry"/>
                </mxCell>
                <mxCell id="74" value="GitHub Actions" style="text;html=1;strokeColor=none;fillColor=none;align=center;verticalAlign=middle;whiteSpace=wrap;rounded=0;fontColor=#000000;labelBackgroundColor=#ffffff;" parent="1" vertex="1">
                    <mxGeometry x="131.25" y="298" width="112.5" height="20" as="geometry"/>
                </mxCell>
                <mxCell id="75" value="Developer&lt;br&gt;" style="text;html=1;align=center;verticalAlign=middle;whiteSpace=wrap;rounded=0;labelBackgroundColor=#ffffff;fontColor=#000000;" parent="1" vertex="1">
                    <mxGeometry x="21.25" y="296.5" width="76.25" height="20" as="geometry"/>
                </mxCell>
                <mxCell id="76" value="ECR" style="text;html=1;strokeColor=none;fillColor=none;align=center;verticalAlign=middle;whiteSpace=wrap;rounded=0;labelBackgroundColor=#ffffff;fontColor=#000000;" parent="1" vertex="1">
                    <mxGeometry x="491" y="221.5" width="40" height="20" as="geometry"/>
                </mxCell>
                <mxCell id="77" value="ECS" style="text;html=1;strokeColor=none;fillColor=none;align=center;verticalAlign=middle;whiteSpace=wrap;rounded=0;labelBackgroundColor=#ffffff;fontColor=#000000;" parent="1" vertex="1">
                    <mxGeometry x="499" y="315" width="40" height="20" as="geometry"/>
                </mxCell>
                <mxCell id="78" value="Cluster" style="text;html=1;strokeColor=none;fillColor=none;align=center;verticalAlign=middle;whiteSpace=wrap;rounded=0;labelBackgroundColor=#ffffff;fontColor=#000000;" parent="1" vertex="1">
                    <mxGeometry x="590" y="420" width="40" height="20" as="geometry"/>
                </mxCell>
                <mxCell id="79" value="Fargate" style="text;html=1;strokeColor=none;fillColor=none;align=center;verticalAlign=middle;whiteSpace=wrap;rounded=0;" parent="1" vertex="1">
                    <mxGeometry x="550" y="530" width="40" height="20" as="geometry"/>
                </mxCell>
                <mxCell id="80" value="Fargate" style="text;html=1;strokeColor=none;fillColor=none;align=center;verticalAlign=middle;whiteSpace=wrap;rounded=0;" parent="1" vertex="1">
                    <mxGeometry x="879" y="530" width="40" height="20" as="geometry"/>
                </mxCell>
                <mxCell id="81" value="ALB" style="text;html=1;strokeColor=none;fillColor=none;align=center;verticalAlign=middle;whiteSpace=wrap;rounded=0;fontColor=#000000;labelBackgroundColor=#ffffff;" parent="1" vertex="1">
                    <mxGeometry x="497" y="747.25" width="40" height="20" as="geometry"/>
                </mxCell>
                <mxCell id="82" value="ALB" style="text;html=1;strokeColor=none;fillColor=none;align=center;verticalAlign=middle;whiteSpace=wrap;rounded=0;labelBackgroundColor=#ffffff;fontColor=#000000;" parent="1" vertex="1">
                    <mxGeometry x="810" y="747.25" width="40" height="20" as="geometry"/>
                </mxCell>
                <mxCell id="83" value="Route53" style="text;html=1;strokeColor=none;fillColor=none;align=center;verticalAlign=middle;whiteSpace=wrap;rounded=0;labelBackgroundColor=#ffffff;fontColor=#000000;" parent="1" vertex="1">
                    <mxGeometry x="309" y="870" width="40" height="20" as="geometry"/>
                </mxCell>
                <mxCell id="84" value="User" style="text;html=1;strokeColor=none;fillColor=none;align=center;verticalAlign=middle;whiteSpace=wrap;rounded=0;fontColor=#000000;labelBackgroundColor=#ffffff;" parent="1" vertex="1">
                    <mxGeometry x="97.5" y="858" width="42.5" height="20" as="geometry"/>
                </mxCell>
                <mxCell id="85" value="Internet&lt;br&gt;Gateway" style="text;html=1;strokeColor=none;fillColor=none;align=center;verticalAlign=middle;whiteSpace=wrap;rounded=0;labelBackgroundColor=#ffffff;fontColor=#000000;" parent="1" vertex="1">
                    <mxGeometry x="720" y="150" width="68" height="30" as="geometry"/>
                </mxCell>
                <mxCell id="86" value="RDS" style="text;html=1;strokeColor=none;fillColor=none;align=center;verticalAlign=middle;whiteSpace=wrap;rounded=0;fontColor=#000000;" parent="1" vertex="1">
                    <mxGeometry x="1230" y="801.75" width="40" height="20" as="geometry"/>
                </mxCell>
                <mxCell id="87" value="" style="shape=image;imageAspect=0;aspect=fixed;verticalLabelPosition=bottom;verticalAlign=top;image=data:image/png,iVBORw0KGgoAAAANSUhEUgAAAgAAAAIACAMAAADDpiTIAAADAFBMVEUAAADrVCTrVSTrVCTsVCXrVCTrVCXsVSTrVCTvUCDrVCTsVyXpUybqVSXrVCTrVCTrVCPrVCPrVCTqVCXqVCTtWyTrVCTuUSPrVyLrVCTuVSLsVSTrUyTsVCTqVSXrVCTsVCPrVCTrVCXqVSvrVCTqVSXtUyTrVCTrWCfrUyXrVCTrUyTsVSPqVCPqUyTrVCPrVCTmTRrrVCTrUyLpUSbrUinqUyTsUyP/AADrVCPrUyXrVCTrVCXqVCTrVCXjVRzrVCTsUyXrVSPrVCToUSPsVCXrVCTrUyTrUyPrUyTrVCTrUyPsVSTbSSTrVCTpUiPsVSbrVCTmWSbrVSTrVCT/gADrVCTqUyTrUyTsVCXrUyTrVSX/ZjPrVCTrVSTpVCPrVCTwWh7rVSXrVCT/VQDrUyTsVCPsVCTrUyTsVCPrVSTrVCTsVSPqUiXrVCTuVSLpUyTrVCT/QEDrVCPrVCTrVCTrUyXqVCTqVCXrVCTtVCTrTifsUyb/VSvrVCTqVSPrVCPsVCTsVCTqUyLtVSXrVCToXS7rVCTrVCTqVSTqUyTqVCTrUyTrVCXrVCTrUyTqVCPqVCbrVCTfYCDsVSPsUyPrVCTqVCXrVCTtVSTrVCTrVCTrUyTqVCTsUiLrVCPsVSTrVCPrUiTsVCTrVSTrVCTrVCTsUyTpUyHsVCLrVCTxVSvqVSTsUyPnVSTqVSLqVSPqVCTrVCTrVCTrVCXrVCTyUSjrVSTsUyTnWCjrVCPrVCPqVSTqUyXrVCTtUiTtWCPqVSDrVCTsVCTrVSTrVSTrVCTvUiHsVSbqVCPrVCTpWSHpVyTsVSTrVSTrVCTsVCTqVSTrVSfoVSfrVSPqVCTqVCTqUyLrVCXrVCToVSLrVSXsUyXqUyTrVCTqVCTtUiTrVCTsUyPrVCTrVSPqVCXrVCTrVSXsVCTsVCTpUyXrVCPsUybrVCTrUyTsVCTsVCTrUiPrVSXqVSPrVSTqVCTrUyTqVCTtVSTrVCTqVSPrVSTrVCPrVCXsUyPrVCSM0ohWAAAA/3RSTlMAZNDLdrd9eMkQ+SkiYNTPc7SAfMYO9ywm/h5d2dJvsIN/wwz2MCv9Glnd1myth4K/CvQ0LxlW3wHYaKmLhrwJ8zcz/BZS49xlpY6KuAfxOzb7FE7nAuBiopKNtQXuPzr6EUvoA+JenpaRsu1CPvgPR+sE5lubmZWu6kYNRAbpV5edq0pF9QtA71SToZyn5U1JPfIIUZCkoOE58IyoVTWJrFgyha+a11wuQ7MSY18VPHu6ts5n5BO+ayB0wsdu3hwdGHDFxHLaHxttwBcjac29edMnIWa5eiXRzC11hDHbiDiPUKO7YbFaqk9TpijIcWp3QcokweyBlCrVSH6YTJ+LNPEVAAAirklEQVR42u2de4CN1frHd0W5RU0MI43KZZIiSYbUuIXKbdQ40wmNMDUltzpySyKXkgh1XCKVCCEl0sXlKJycEnJCOlROSTpHqhPn1O/9mTFj9uzZe7/PWutZ6/uuvd/Pf8m86/t9nte8t2c9TyCghzMcOzjzLLQCIiU0JUoXJdEBI3L2OWgFREqhMypG6TLogBEpWw6tgEo5dE6FOBcdLiLlA4EKaA1EzkPnVIjz0eEikhAIXIDWQKQiOqciVEpEh4tI5UCgCloDkaSq6KwKcCE6WkSq5Yq9CK2CSDI6qwJURweLyMW5Yi9BqyByKTqrdGrURAeLSK1ctbXRKoikXIbOK5k66FgRufyU3LpoHUSuQOeVzJXoUBGpd0pufbQOIleh80qlwdXoUBFpeErvNWgdRFIaoTNL5Fp0pIg0Ts0X3ASthEhTdGaJXIcOFJFmBYKvRyshcgM6szTSmqMDRaRFgeKWaCVEWrVG55bEjeg4EWmTelpyW7QWIu3QuSVxEzpMRG4ulHwLWguR9ujcUujQER0mIp0KNXdGayGS3gWdXQK3oqNE5LaMQs2pXdFqiPwBnV0CmeggEbk9WPQf0WqI3IHOrjvduqODRKRHsOo70WqIZPVE59eVu9AxItKrd7Dq1D5oPUSy0fl15W50iIjcU1R2DloPkXvR+XWj233oEBHpW1T3/Wg9RPr1R2fYhQHoCBEZOKio7owH0IqIPIjOsAt/QgeIyOBQ4Q+hFREZgs5wdHoPRQeIyLBQ5X3RiogkDkfnOCoj0PEh0v3hYqfuSLQmIo+gcxyVUejwEHm0uPTBaE1ERqNzHA1rbqXGFNf+GFoTkbHj0FmOwnh0dIhMeLi49kG23L48js5yFJ5AB4fIxHDin0SrIjIJneXIZDyFDg6RyeHUT0GrItI8DZ3niDyNjg2RqdPCqbfmJeZ0dJ4j8gw6NESeDS//z2hdavLxpM5Ah4ZIhH9Ck9G6iIT/BeYBZqIjQ2Rsg/D6O8xCKyMyWSwvxpiNDgyR5yIZeBatjMhEkawY5HJ0YIjMiWRgOloZkXCvMTzAXHRciER+lTbNloLmMSJ5Mcbz6LAQmRfZwiS0NiKPkpNiElu217wQ2cLjaG1EunvxGvAiOipEEitF9mDNxvZh9LwY4yV0UIjMj2ZiNFodkZfR2Q7DAnRQiCyMZuIFtDoioSWNHuAVdEyIlIm6tcKa9laL0PkuRn10SIgsjm5jPlofkVHofBfDllZb50a3sRCtj0jRjU0ewJZme1lLovsYbkuT2/HojIdgS7vNkm5GFqMVEnkCnfEQbGm4+6qbkaVohUSC2xt4AFtabqcvc3NizaiL5eicF+E1dDiIrHC38jpaI5Fn0DkvwhvocBBZ6W7lVbRGIm+munsxhi2DdyiN9lalo1USmYnOehC2jN5aTTGzAq2SyGx01oOwZfjeWxQzK9EqifTxzjVgTRI6GDRoIxe62HIN6IzO+2neRoeCyDs0O6vROok8j877ad5Fh4LIezQ7b6F1ElnrlWvAOkuuAEnraX42tEIrJfIiOvP5/AUdCCIbqYbeQSslcj068/m8jw4EkQ+oht5DKyWyCZ35U2xIQQeCRtJmqqMtljhyrkHnPo+/osNARGAA+0a0ViL10bnP40N0GIiUoFv6AK2VSBN07nPZass989/ontZb8lzj1EZn/yQfoYNA5GMRU6XQaokkoLN/km3oIBD5RMRUCbRaItvR2bfozfkOEVc7bbkGlEXnP/ApOgREzhSz9TFaL5EL0PkP7EKHgMjZYrb+jtZLRPC85qenLTWUgr8rP0PrpSJ0ZdPAH9ABIFJe1NhutGIin4BPgDvQASAi/Lx0NloxkT3Y/FtTRb9X1NkOtGIqAu+3NGDLPppq4tbKozUT+Rx6AtyLtk9kn7i1BLRmIgLfuPixZi9tLXFve9GaidC/cmvgQbR7IpfLmLOl5w25zkUDQ9DmidSTMbcPrZoIudKNnwZj0eaJNJRx9wVaNZGkqrAT4BG0dyKN5eqn/4HWTSQZdgLY0lWvmZy9/WjdRIj7Xfixpq/mATl/DdG6idB2vGnAls66bWR30NjS/56051UDtvTW/lLWYDO0ciJXYfJvTXf9TrIOD6CVE0lpBDkBvkL7JiLfT8uaKVhNISfA12jbRG6Xt/glWjuRg4j8WzNjq4e8x+Vo7URauXa/08BktGsiKl11rZmFewbgBLBlzuY9KiZtmYbd3nz+rZm0q9RZfzxaPRG3HtgasGXWttpsjYwH0PqJ/NP4CfAk2jIRxek6o9D6iZxvOv+DhqItE1Gcr7UIrZ9IVk81n8I8hnZMRHXCXu+RaAdEsg2fAIPRhokoz9h8Ge2AyDdm82/NPwzlKbsD0A6I9Kuk6lSIvmi/RNTnbFvzuPut0RPgIbRdIhPVrd6N9kBkiMn8W/N4fKu617vQHogkDjd4AtyPdktk6jR1r926o10QecTgCXA72iyRmzjMZqJdEDlkLv+pfdBmiUzncPsd2gWRseOMnQCd0F6pIWnA4baDLaVvh42dADejrRJ5jsfu92gfRCaZyn9qV7RVInN4/N6I9kGkeZqhE6AF2ikRrotiWnO0EyJfGToBbkEbJTKPy/B1aCdEvjZ0ArRFGyVSh8vwtWgnRDheexCwZcsc3+cRazZBTjZyAtRD2yRSnc/ylWgvRP5s5ARogrZJZCGf5W/RXoiof/wkUAvtkkgZxiIpa5phTTFwAlyMNklkMafpb9BuiCgXQBGoizZJ5FxO09loN0RUSyAJVEZ7JMK7VaJ0P7QfIopF0ARsaaBZktf2+Wg/RAZrPwFsaaHLvF3yn2g/RNQ2QhGwpYk294Zpa9qi99V8AtjSRp+9ZUJ7tCMiSpuhCZyJNkhkJbfxdmhHRFTaIRCwZZROygZu59aMx1NoiELgE7Q9Iqv5rd+A9kREoSUSAVvG6WlonWjLiFz5pmgEbBmoqaN5qjVDspdrPAFsGamrpX3yh2hXRKQboxKwZai2lgbqf0W7IiLdGtmd9ZZcAfSMUNiQgvZF5IC2E+ADtDUiFfXYvxTti8hsbSfARrQ1IprGKP0F7YtIH13XgC22/A7cqcf/OkuugM5cTSdAMtoYEW2jFN9FOyOyX5P/d9DGiJTQdQK8jXZGZK0e+xtseROibZzyGluuAV9osf8W2haRj3XlPxA4C+2NyEta3K9G2yLyd30nwDlob0Q26TBvzffQI/pOgHJob1Re0WB+JdoUkd368h8IVEC7I1Jfg/eDaFNEztZ5AryGdkekCb/1VbZcAcrqPAGqoN1Rqc1u/Qy0JSLldeY/ELgI7Y/IJezOS6ItEUnQewJcgvZH5CJu49bUxe/VewLURvujwn0lPBdtiEg1vfm3Z2/sBcy+bdkbt0/3CVAf7ZBIBV7blWzpkKDnLXgQ16AdUtnBavtCtB0imr6DBWNLh5xzWF1XR9shoutLeBDXoz0S2cNpukZNtB0iDfWfAC3RHqlwfhWvgzZDpLG+iuhCbOmT+Tmj53loM0SaGch/4Hm0SyI/8Fm2plPmARMnQGe0SyJJm9ksz0F7IaJxT0wQ1nTL/xebZVu6ZevcFRfEH9E+iWzkMmxNv3yd+2KDuBPtk0jSeibDdyW0xNJiBA2dO+ODyCDKQTP730yG73YyWaYv+ZikW0LKCp4jZfRynLq10H58xDjyhuNklWY51PLc60niUUO/X31YyM57cucZJpo/ImhXI7QpHyqlJ53KGcvk1NOfv0aOQfvyofFjm/yUzerGcLQjhY8VOR3Q1nzcGZRQuImTo3FscGOo7Zor7nzUWRPcxuMZhgMWaYxyNXMTbh9ulk4NzhdDgcySkE3h8xhH8fhw039SyNtA9cKww6EvGPvobUbro0CLYrUKHykf857ir5hzTAwn8xGm99GsYsmap3zUamG+Mhz7Ce3VpzhVw7XwmaDaPX5L2O9MUz9Fu/UJ5XD3sKlqqXjYpRE+NR7y7wU9xfDBERJ1VPHAmRGO63Q19PHdh0LDTZHypPpFsE2kAzvpCXqHk/iQSU2OvHU3UW2kfNQhYT+vRzv3yWXLtmhZGq907KbRDu10fxzt3ScQ+OqXqElSa5o20YlOZg20/XhnWo5Liu5VOnw1l6M7aw+gIxDf1HbtWTNQpVZ+iXtv1PQEv1QIRmoyYai1ylu7Me6Hd5xtW9BxiFdak9p2LFRY4T+UBZyBt6IjEZ889gApPb8qLLGLtILjl40D6LCfOL9DoVFAanfaEo5T9xp0POKNshWouUkfJ73IEeoajpN4hZGNmT75NBVo2SH/0j6bvojjLF6GDkr80KW6SGbkd4iJbYP1y8ZN0fdNocSMkl5ohdA6ftm4GQYlCE5vk98mfpvYQo6zvTI6OrHPzoqiWZkqe3vWRXQlx6mpZWqvTyHZEs0aykmu9aP4Uo4zZAk6RLFMpZtkcvKV5GrvySzml41r5MDlUimRHR7wstRqJ+8FObYk+hQjeNOfEPMkFxS+2yjgXdmLjk8U1kjP7q4rt2DqVNkFnY4PoqMVe9SZJZ2ORLkv9hukF3T8snFuIpZ9k1gvtWYnlSX9snFW5m5SSoZcYajijAC/bJyNaGXfJOQ29SsPyHp3JzpyscG6q1QzUU9qXbeKYHdm1UHHLhaY/otyIg5JLXyp8rp+2bg6aW5l3xTekFr6KYaVnSYvoiNoN18s4MhCR5ml09xLwilk+WXj8pDKvinItAw9zrO04+zagI6jrWygFuW6IjNHdBjX4s7AyehI2skwWtk3hUUSy3OOCvTLxsWZlsNzDc5DZnPI54wngHPCLxsXhF72TaGEhILZnAKcxGS/bFyE7LGs4ZcZpvM1qwL/XlCELt8wB/85CREHmTU4I6eg42oLgmXfBH6WUOG68VyYlFv8DpMEHm4mWPZNYJOEjqHsKhxnD+9M85hkx8caAn+fuI5B/KfhSa5+FR1fr/Oqlimt6eK34Kt06DjJlX7ZeBT6f68p7OIf5dZoUuKXjUfhwFpdURfv4rJXlxQnxS8bD4902TeB48JqOmnT4jil/G7jYdjMUYARiTuF5fxXoxqn44XoaHuPOeR2LDJMEdejU47jHOIZahkzDM9Uj2k0XhBW9Ae9gpy2LdAx9xKSm/7orBSWlKxZkV82XkhGcpZ6PKPznrCos3VLcpyKftl4Hus/1B/r84RV7dMvyi8bz+PG+wyE+hNhWfUMqPLLxpnKvt35n7CwW4zoivuy8Zau/dh5uFhYmViLOHniumxcedMfmf3C2r40pMxxbrgMnQcUrV83FuSbhcXdbkybMzROy8YHCLfhk+cJYXW/mhPnJN2uNtrKStJ+ZSz7duU3YX2/GVQXj2Xjx880GmDxoQGSLcJkibOy8dRPecu+XRGvCzf7G+Ak33RBZ8Ucy0izXjhpJqzRzPuJYHpNQefFFItYdt4Lcb2wSEMvgoJJyomLsvFuot2+OfiPsMz65kU6zp4q6Ozo58gbiMheIKzzNYTMOOg2nq2l7NuVo8JC34bojPWy8f6TQGH9QFjqFSClzoyn0VnSx/g2qKheIay1HUpq7JaN6yz7diNbWC1ngxBRYrNsfM37wJB+Jyx3OlCtM+tbdLb4uVC++ToDPwrrHY+UG3tl45W4+20I8oWw4lewgp3GndA546RzW3A4/yYseR1YcSyVjfc+qr3s2w3xDy0N0JId56p16MzxUPVndCQdR+IleyJa88l7QfENTR7ksImybxdqSujma1OpwGDrO0zWuBsdw1yeklBeHi06jwXit6+eoqGhsm8XzpKQrnO3ugBWl42bK/t2YbGE+Hlo0QW0t7bD5GU3oGNXwJ8k1D+DFn2aob+jMynHdwPRkTuNeD0Ic7NoNZJsvBdk7fatSlMJA3XQooM58Qo6n6LU3o2OWTAy88OfRosugmVl48bLvl2QaceyEy06BJvuBZctRkcrhKoSJh720CUsD3vKxkd44iVaEK2kyq17oWWHMh+dWCrt0ZEKZa2UDR1dq5WQGXwD4Qx0pEK5QcrGaLTsEPr1RyeWSpd0dKxCGCxl4yW07BDuReeVjmfeAOYjMzMqEFiKlh3CUnRa6TRFxyqEx6VcHEDLLkqWRTtGtuLqv8Mi90m1J1p2Ue5AZ1WEq9DRKopkha2OqUHyWDVsBravKiwDJV0gNzIUI92q/hEbADvAIyMzNC6XR9HCg9mFzqkYHimnOYV4g6BTlEALD+ZTdErF0N5sXQSZj8G5TEELD6JVa3RKxVjnpS8pMyVNbEULD0LuZSaQiuiIFZJUSdaEwU6Wbsj+FoNxHjpihTSWNmGula0bKY3QCRVlvXeuAfLv0L3zNeAqdD7FOYaO2WlekvageXKYAOIdTuB45xlKfoPdT2jpBaRY2FHeOyV18qOZUmehtefzDjqbMkD6AYZhqIIHD+xrzsPK7oF/R0ctH5ltYQWYmRzlSpJMUSucz9Bhy+c1BQ+/o8WfYiM6l3J4ZGvICAULPb3xUUu8zaUn+B86bnkkKbXbqouWn2dhMzqVcuxABy6PukoeDM8NCU8pdCZlOYGOXC7/p2TBE4WhcjWtHuA/6Mjl0k7JgideBYn3uPMI6F6LHNHzwAfBPeg8yrMAHTvHmaFo4RDagMzga8/gga9parcAyK7xp9mBTqM8X6Bj5zgXKlrYjDbgVEBnUYV/oKPnKHdbbYJ2ID7uyEPsR0evmrIFg0Okw1MWnUQV5qKjN0rZAvpzwHZ0DpVIbQwO37XKFsb1wzq4BJ1DNWZjo5feU93Ch1gLx9EpVAO8xXo1gwVsXYPapww8qX2g4XubwUJlqAOZHqee4kto+FjeoUAbnlvXITSU5cjotWWxAJgjfhr1x1g0GeZHxRfyRxYLM4EO9qHzp84TwPD1ZXGQAex7afm8kFyAAxg7SjUILc5vMAeXo7PHQG9cx9XvmSwMgDnYj84eB6Ng4buVyUG37igHDdHJ42ARKnoTOnBZyAQ5aGzVjIBIDEJNjlGtBSkEdQ1ohs4dD6jS6gFsDnqDKgNl5lx4ENC/n4GD+Cxg3me2iYkrwMl7KMzs2FGMFhpCHNyMzhwXmOmx4zktQOqbO6ETx8UYRPSeYp24ejbAwQMWz4wtCuQ5+npWC5sBPa9y0HnjYyLgBDjCawHQ+7YHOm183Go+erINoiNhfpfobb3RaeOjQ0fj4ctmtpBm/FFGtsW1J7nJdPQ6sk9bNj5M/Ed00ji50XT05OaEReOI4dtAzvdYeNKaGz4BOvN7MFwezn8KQ7nObPR0bKf51qwFld5WHsRw192PNFjoYPSr5i+GrgAt7zezzjij4+Qn1NDhwWh18JNG0pJRokyrfWZOtStNRo+nGjiUzSYn4g4wkZSteQMRjv1kYq06BoOXUk6Ph+fMWZjAVM8ale/yL2pTTQykqlHTXPTma/Jg8KPw3fozMi2n8MH2EMMmWjeqm4uetlco7xizcJf2fNQu0sm363LtC15oLHjbtRXSfGfKAl89awRSPw25K09P0P3poVKiqeidoc1DxiZDFjI1J2NrmHFYP+vuSX++oeD1StPn4SNDHrh2NERgRNjNbrO+1bvquYaCp7OzboNfjFiYOk1nIjp8GemzxpPjdK7bM8tI8LpLj4mkcIERD8/qtHAkyiyftbJDVkmUNBI8vS01KhkpC5iu0UH21dFWTk/QWIh4honYXd1FY/ACZqZgjGUvZjhNadeXWdu2aFt8lYlXqbO1yT9FfwMFrs9pU//jm+6rD9R3B3pQf+z6aZ+wmKDfxOOapA9KoI1AytR1L9hUf+xGaZJeSGntwyTHaor/Z2dRFZTfq0dB61a6Y9fPwHil+rpNjNajO1ugKqvfUT33gqt1x+4ZjYkvoKfuXwHys46jUFqwJuv81jpUvKU5dM21qA7lNb0mEodr0HzgclEZI3V8j9qg+Rpgpq1mmt7up0P4FQ9KkAh8Uo6GL1J6v6f+ovUlYCF6X2g8yK53s+S+Ng33gslaQ3eegeTn0ru8RhP9+nPLnSP96qIm+9TyLTp3Vzyl8TNgUSZrdPENs9bhg1XUzF/FLKeixtDpqwMoxjZ9Lpg3Nc5VHNvUawCvng/0Re6Ewb1UnbX9Jstirc5LTS6jKigph7U+db2+a8Awc/nXuNPpddZos2xnK8VaNl5KV+R0lQJHCO3V6orD8k9GkdOZvl2zlo2X0BS4Mp8ZPQF0DZLJWsKmMC2HT9ZovgvTTk3XgJfM5j/wsJ6Bku3ZBFbezqlrxtNswj7WErjbDL0DKmSYFh9cTzKpyczT7lrt78YkTc/vTtURwRLM12AjfRmPtkYr+LVdyvSltYqO/L8LaKpaVcN94EEeaQO09DbuyPSSere6lFDSIZNVNJQHruTQFbzpj5dMlm33GppuYgZrTGO/D2y1lUHWXo1fKjbNZRBYll1WW31VtFGZSSuxo8Mw6LTYpj9eWLYQsp+hj2HyHwj8ymzkLWVFy+7Vmf5cVq9TFsldVzsRlf/AOOE6m6ikKJc0jzAwpXHCI6oq9/IK+oXp0UmGvqy3W6rtbbsRy75VUS4b522+D3gFUMifOZ0oll+UrWAk/Sepe42a0n2cYkoi8x/oT9hqQyVpvZKUbF3fp8KgWDZei1HKBLWoKcPYBLeiio5VQ8ylP5eSSk+silUqwWgpoheBbxbCvxRU/NjGbP4dZ+jvCnLrscngmg4rTw2utjFJ8u/apcq+lfUOln/9wtZv7Sm+z+fS3MkU/B+kFazZaD79uZR/RVoy0/Nz0hR09nOpz2Pmbdn1RTb98ZKYLPsRrhmPAG8M1Rj0A4uZnXKr95+ESn8u1SX7cbRgWb2a1p5GdMpNZTBzlmQk2yLz7zi9pkjJTp3BsHa/F9GZL+BVBjfnyCwMufsrSsrzUqVCHMN4dQwFkIThWVCm9rqqud61UdhTRUJ6J/V1r0NnPYhxJ1TdvCGx6uOIgZxhkNlCmKq8xfofxstAo1FFdTDea8JLqm3642We+OP47YpLJkKqwCLziKIf4UGnc031LSbRR3jyTA/FFduhMx7KQ0p2dguuxrDpj5eUHMF7wYwHlNbT10pPlg7HVPz8T2yxddq7LYmzcY2Yh3tUFtutZSqUGutVpoodF1pqupme1YJ0XChkYpHCUvf9DZ3tcDwm3wl1gcg6nJv+eDlUWsBG75HS62R5dKzuX6UdJQisUvkidJ4j07iTgBH5pxgPvQEqivRljd6NiX3THy8iZePSuysNTNSSpNs2OUfVyCu0vgOdYjcqkj9qDZK8aXrfxEg9SZbIPZxfTD3+MLVnJyPMqkN186jU8WcY6QYqS1mpPrLEl1rTnjA8wl6Sl4mlQmNkDt5RsSJZN1MkPs+1pR3ay3d/RVlAO6MfniB+6DKen6reTtxUPdKBs43O31YjizZ5RvwjatJSdH7dEd/51pJw1C7aN/3xcgNlm9tk4cMeRWeXwhOCphoTCusWGdj0x8vQye6uOojeMf2Gzi2J3leKubrF9YimNv3xkul+L/is2BEX6x5vy0SaWHfuzm7H26GnsZZ2TrjesE8XOl4pj9SAurOqroCtGW5XgHYGN/3xUvMtF29pIhXtF3E3rtbIZoGCp5ujH2rJPHQaVbjXZe++6xjDQppw9M8xxk/0m7Y7ox5o5lp0DtUYOSaqvTnkA80wMA+MkyrUTm1vRnti9kDZtyrRJ880oF7e2kjum8Gxl1i0EW3Q2Zr30enjYHvlKBaJF7iRZdH5FKcWrVd3lCa8cyRelXqRaGXjL5COMMFjJcA0WlBKxR+IeAXofxM6cXxE7jY+PJHw4xMo70o9yNOEC9xDkX74zsborHHSp0ckn4SWywM9swdQlOXurzrHh//J3kez0DnjJeLkmYWuP9pL0yRjE7zoVvTSK/zLzao/oxPGz7Hwux9drwEzDI8C4aWsy/uAUWF/6jDTrBdvEWHyzOLoP9W4HDqHauyM/iJnUZgf8W7ZtyqHwt0LLo36Iwu2oDOoStVoZYIDw4y6a+ipTX+8dF1e3G/paJvcTjRC50+dRlG2jv+p2N/OiLW7v6KkX1D8pqdk5L/+DusURRSrIjfxGhD6d7dsQ6dINz9XDfUcub/K6Gno3PHQIdI3r+6hj0ZfeXLTHy+zvg39BxJpS12OUj9aL5F6S3iHjxb9a9Ni9u6vKKGTZ8JPuEoS2S/neZLD1nQV/VRa25qyb1XWzixifGW4v9OPvL/EDm6sWdzjhOArgMc3/fGSXqRsvEuYa8CEHqIR9jr3F+/olBn0v7eWJMQthjgYXDZevN3F2trofPGzo9iQsVsL/+cY+c3yljIwyP2/Q//naskGpN5mePWiLqeefsjpsN/Gsm9VCifPbA2pexrMNabWY6QmFNnc+WzBn5ub9eIt6tYqiECRb19luAYoe5BHgvf3fZX/hyZnvXiLxILJM+8F/eHA8dLhtYBahWUezdPy/qTLN+g0IFlx6l3/lsJLYAXLqn9F2Xq6ve+pTncmJv15mdsG5IXh9NvyiWnoDOlmUME+v8PB/xG/nCob/+DUfyQqTs6zgxG9cr2OPXkPvLMiOvxeoPzeQGB93u1xE/kZNFaxLnfz6CHkrBdvkVs2njt15WsPtv/UQ+5v/mv7f48OvHeYv+rzOPn1X8CixiN4B09bzm1N4+XXfwHDX0bH3Fs8Kj+E0FZujMnSXzk6PojOBoL1MVj8L8cPnmz+rZ+M5JguAKXSan+Mfvsh0JlxjLatzHhaPY72UikTHX8082Ki8luBWGkCIEeE7WJxxeaYaAMix1lWb/zkIgYaAckRcct43GF7KzA5ev0XHXfvEI/fBeZb1PfRAPH2ZTC+Pv1QsLUhsBzlLW77ogs7W4JLEb15ZPxi31AAOUbehY60V1lm2VgQOVbEQNcPXaR+atFgIDn6HY2ZXf9aOH4mOkN6KdwN5BOeaTl2DAeUI9OaoR9ABlA7zVvHwO/QsbWDra+jM6WHbdb3/DNFanIZ9XB7jXTaMEmfPFpWQ+eLm5C+QD4uxFq/2My42fXDRiyVjcdn2bcqsVM2/q7lHb9RxEjZeHqCJRNfPUgslI13jeuyb1UqfY3Onyqj473sWxW7y8b9sm91bJ4eecwv+2bA2rJxv+ybi/Ft0LmUIb8BmA8D/SehsynOEL/smxPb2onW9Mu+mTnyBjqnImz3y77Zsahs3C/71oMtZeMjx6h79QmHHWXju/yyb21YUDae6Jd9a+X4bnSGo+OXfevG22XjmfHX79E83i0bDx4E5aMPr5aN+2XfpvBk2bhf9m0S75WN+2XfZvFa2bhf9m0cL5WNz4qxSc924J2ycb/sG4NHysb9sm8cXigb77ocHYV4Bl82fsgv+8aCLRv3y77xIMvGj/2Edu8DLBtPyonfWS/eAlM23qcH2rdPAYiy8SuXoF37BGG6bNwv+/YaZsvGt1dG+/UJxWDZuF/27U1GGCob98u+vcqyxSbyv2sD2qdPJAyUjScmp6Jd+kRBd9n4iWvQDn2io7ds3C/7tgB9ZeNDJ6O9+VDQVTZ+w2VoZz40tJSNZ/ll3xbBXzbe5EW0Jx8RuMvG/bJv6+AsG/fLvm2Er2y84k60Fx8Zeh9lKRv3y77tpXNb9fx37YR24SOPetn4odJoDz5KqJWNd1yI1u+jikrZeCm/7DsGkC4bT/HLvmMEubLxPvejdftwIVM27pd9xxSiZeN+2XesIVY2vqcKWq8PNwJl4/6sl9iEWjbeawpaqY8eaGXj7f2y75iFUDbul33HNm5l4ydeQSv00UvUsvGkwX7Zd+wTuWx86O9obT4miFQ2ftAv+44TwpaN+2Xf8UTxsvEFX6A1+ZgktGw8cxxakY9hDgeVjc96Aa3GxzxVT5eNr16H1uKDIL9s3C/7jl9yy8Yb+2XfcUz/7ycOR2vA8v/jJPK8MLADmQAAAABJRU5ErkJggg==;" parent="1" vertex="1">
                    <mxGeometry x="491" y="30.5" width="39" height="39" as="geometry"/>
                </mxCell>
                <mxCell id="88" value="" style="shape=image;imageAspect=0;aspect=fixed;verticalLabelPosition=bottom;verticalAlign=top;image=data:image/png,iVBORw0KGgoAAAANSUhEUgAAAgAAAAIACAMAAADDpiTIAAADAFBMVEUAAAAuXYsxZ5AzaJIzZ5EzZ5EzZ5IyZpEyZ5E1ao0rapUyaZIyaJIzaJEzZ5E0Z5IzZ5EzZ5EzZ5E0aJI0aJFVVaovaI4zZo8zZ5IzZ5EzZ5EzZ5EyaJE0Z5A0Z5I1ZY40Z5A0Z5EzZ5EzZ5EzaJIzZ5EyaZEAAP83bZIzZpMyaJA0aJAzaJE0Z5E0Z5EzZ5EzZ5EzZpEzZ5EyaJEzZ5EzZ5AyZpAzZ5A0aJEzZpIzZpA0Z5AxZ48waI8taZYxa5Q0aJIzZ5IzZ5EzZ5A0Z5AwZ5ExZ5IxZ5EyZ5EzZpE0Z5EzaJEzZ5E0aJIzZ5IyaJE0Z5EyaZIyao8zZowkbZI0Z5AyZpIzZ5EzZ5EzZ5EzZpE0Z5EzZ5EyZpEzZpIyZ5EzZpIzZ5E5cY4zaJAzZ5EzZ5EzZ5EzZ5EzaJEzZ5EuaJczZpkyZ5IyZpEzZ5IzZ5EzZ5EzZ5EzZ5EzZ5EyZpIyZ5BAYJ81ZZIzZpEzZ5EzaJEzZpFAgIA0aI8yZpEyaJEzZ5EzZ5IzZpkyaJAyZpEzZ5EzZ5EzZ5EzZ5EyaJExYZI2a5QyZpEzZo8zZpAyZpEzZo8zZ5EzZ5EyZ5AzZ5EyZpA0Z5EzZ5EzZ5EzZ5IzZ5EzZ5AzZ5E0Z5EzZpE0aZA0aJMzZpMAgIA7Yok0Z5EzZ5EzZpIzZpEzZ5EzZpIzZ5EzZpAwYI8zZ5EzaJE1ZY8zZ5AzZ5EzZ5EzZpkxZ5M0aJEyaJI0aJEzZ5EzZ5EyaJAzZ5IzZ5EzZ5EzZ5EyZpEzZpExZ5IrVYA0ZZMyZpEyaJMzZ5E1apUyaZAyZ5IzZ5EzZpE0Z5A3ZJIyZpIyaJA0Z5I3ZJAzZ5EzZ5EzZpEzZ5IzZpE1ZZEyao4zZ5E0aZA0aJI1ZZIzZ5ExYpMyaJE0aJEzZ5IzZ5EzZ5AzZ5E0aJIzZpI2ZZQzZ5E1aY8zZ5AzaJE2ZJM0Z5EzZ5E5Y44zZ5E0aJAzZ5E0Z5IzZpEzZ5E1ZZA0Z5AzZ5EzZ5I0aJAyZpI0aJEzZ5AzZ5AzZ5HDW1MqAAAA/3RSTlMACz6M2vzirGYdDDhggqTG6NOXYiwDG1B+3P3zwIpUK16Z1eaqbzMBDi1MbJu3wczd1se7s5+YiHtuVUU5IBEfZ6/x6a0lKkNheJSgqYV3Vk89KRQHY5PD7vDRspBrRkjbkgmR0O3nvqWLFg9Njs369c7j9rFXCD9995YeBECJyvKhCkeE+Ou5hlEVE6IZc50y7NlcaHqesMLU12r7o2ROOygCDUq0I+XYS3I3EMjqML3+bQU0dltYz422fLXhyX9fLwZJp0KVGC5SrjyPHHBlWRfSnEGa4Dok3ic2RN8axYC/+YP0MWkmeSLEhyG8qxLkce+oWro1y3S4U3VdpoEmeo8xAABULElEQVR42u1dZ2AVxRZehNA7BCWogCChSUIvQigCAkroSG8KIsUgoUVCkSpNihSF0ILSWwhVihgFniBIkyI9IL2JIoLlPkjuznyzvWbvxf3+QKacmZ1z7u7MmVM4zoULFy5cuHDhwoULFy5cuHDhwoULFy5cuHDhwoULFy5cuHDhwgWX6pnUaQI8KghImy59Bqdn6sJaZMyUOUvWbNnVeE+RI2eu3IFOz9qFFcjz7HPp8gZpZz1FvudfeDGP09N3YQKB+QsUfMkI6wGFCr9cJNjpB3FRtFjxEi+ULPxKqZC8oaGlQ0JCypQtV7h8hYqVKueq8mrV3NXCxK/r6jVq1jLJfB6v1a5cx+kV8D1krPt6lXol6lds8EbhNwsmIXXD8MrpGzVu0rSZhcM0L9Ki5Vut1JnUuk3bdu071EmV1CmsY2qzv3whOnXu2MXpJfcRZMyU/u2273RVWq2Abjne7f5e5WeL9DA1Us9evd+P0MmoPqEhH/S1mPleRPbr/1+XgQEDB9XWt6GKSlP2w8odBusfKnrI0GGqJ7YUx/CPOvxnzwYjRo56a7TRhRsz9uNx47WP1bN/dw1vfWfQbWg1p1nhACYUKJzP9NKFTkxfXcNYzXtN7OM0lxURVLbXf+tcMOmTtyx7GaeZXED5BzSlYEr89qdOK1O2dveCqUeFt0+fPn2BT9NPD5+Reuaszz7XOPjsOf+Z3UB0r34xFq9+2rnzZIQgutFbdrK9UKmJo2rMX7BwfKz88y7K/8X0oV+Gqm50sn+SymnWpAQWN1xiDy+Wdl4mWsABy23avns8ESEf5lqxUseDj5hSoPMq5S3P6vCMTrPHbqypbUiFqhGj14avgW9pdIu0tgwTt3TuukwDDD1//Pr2hccokJ66wRhdP8H6fnE2sj8Z2SduTFYVRG+ard66dejmt14pXHBLxccYWvCjV9p0UxHQWl9tfVXP714CsWuWb5Pf/27/NNYced/Fim3qv62paXa80r3lY258HZ6EhhUrbilZeG1pXQeGuBw5N6xruV2hRcTs2h/vHPlNngTxLAMnffNtrlHf7ZD4nS55c90ai87s8bt2F5Kb3Pu7nOaULZiUVenXP3pz1vr9V+yR797zf71KvPfmqtf0CIIkgj4vWKBpvIYJF13z/Yy95BsSWnLnYmsXJHbfD3Iymm6/o6yyA9EHZK9RYtqU/PGbaK2ERtRd1j71WNlfjwqyf3RQ563CoV6j+pU+/HYmW1YluOoR6VdbvuWaF8Q/0OSwzM9x85bii4wQnHB03U/v6DxMHtty3Pc+r0VrhEhO9p2qTs/MQqQqKfn2j+yX2dwlX6qB4TW1vgtqlTzu9DLIYUrBKIkJB1RMME/aN7BGajces/dFa9QeJ+Z1VxeCkMwjnF4FJewZKvWB3Jzb6XlZguDKEsqPkzMmWTnGz9PTDZfnflDhBSn1sEXzLDx1+jGeKfJztTA9qt2VlVaLJx613Pc+Wboxvpz4wXYUt/7BmndoeUaS/QFzF9r8iMFnMzWqPGpyuR1pBa/y0X1Dtr3xwoHG+bUod0YckBCBtkVtnrvtKCJWxa76wq7Bctc/J7xiinvTRsurHlU/Pf/RhbyJql+guLQXSq47rvYVKnrxkqjn0p/tm35KoIroFrZMR1sHHF+vLf4MP1th20jz3x/u0YeAHG+UKKL47jv7k+iOtFYvW9fLZtQX7v7zzrd/0IxVvvNuqbodtHOcX8rqFIAkdE13+YoC0Sk7hB2Crtq/ZDYhOLXgWfpcba6xa8L+IkWKfFPd6Bew+RclV3sCKijr7GOvPfNpeOfCY69vDu3W6jFeCz0cUvarj25UrrLvpjaFb8fDGrkuQNojHWVVkbHTRfYDFfxUKRQ7WfAgF1R0qYH7q44rcX53ulKliR4+qGtoyK3bDb6e832ThXd0jR54QqF99Pr0H2a7pMCixNI1h7bIpHp0DMx115gIeLoe6SDH1h5vChuX80s7gdgjgp//HAWjp4y7thY+rGYemDjtqwa/Ns5t1nAm9/JyGq37Yw6XL1FV+aU1YpBhW7MxFabIEN14T9B02CEnOWkMwRXYZ8iRX65l2MHdm3XZhxW60PvTusZu5YIXpM6rk0+RZWdUVXoHZ/jN+BV3tt+ltX0ZbgkahvrfYaAh+wSTZX631SvfMmYelu/62zv1+lpeO3/SGKPybUuv4I7wzGbDEuDplkXSVTD4quAnMfWU0wzVicvM9GNelmzUs8T7xpfuCVqXWz5FqxAEf3vfjDVKwPPrZO9oA6dPNU44sYGkUnSkwE2mVhOnWaoLyxgBrtVBqs0fRy7pWSg53Ot3YI26YjF+XmnTI8Vdrye3G7uT04Rw9RkqtV+91oZtdel1p5mqAwtb49RXF5Fo0uuBFdz3Ymr3TWFK84nOHGrNQLUK/iEzxEC9ewtE60ESd+KparONopY5zVbN6LkUJ55WYgNzNJuF7E9CzIU/ZXX+HZeap0/QpoX0uWBEbzPmroU2iSnGCvQoid87zVituI3T7iZWxq+/bzX7k9Hph2ckPgY3Z1k8TKH60hqmo6ZskB9KaEkusxvkmE2cX2A6Tnqq6FJ7RG/7PDSziY5VsQcirR9m+BbJDWFYYTNEIz8RS+8X7H1DTApo0s2jLq54H9Hx5ahFn2MpFDorHK3aBXtGGv2D5LmwhSlpK3VNRHAN60UTNcRp7qoj9hxMOEj42RpgZrushkSR1dcjqyJ6iJEvS0+Jp/+mkxmaw+eJCN5Mw7SoJbWh9i20x/n+JajMs0PXgujEdMFogRVt9UOZOkdCB9Fzrymab4qkqgerK1l902kGqyADfrXeEFQe72YnQ0oKRltp016T4gMJQ9Pg50xJ3UmRBUNYCNPgsCEr6pRDW5hrDsF12k512xkTWCU4nu03eFmrB3FvSGwFHplScEVsEF6aCSSgrU8bCjaCmeYTHMyn2/pCzi5Qque2xzFUiDESR7NfjF4SJ+Oh8O7vDivKFZ1msgJG4Kb1b7Zuna38DzrNjnbqnnma2lBT7NA22FxAsW4DBfQmMVvLuG+dZrM8wnFh2Krl9rLhPDvaHynGf4+n60HROoR9ZopiRA0BvWrMO6WQlUHzLEUYmDNNZX8YO+1lQln2w1gkZQNClRfFdRjQzxzF3QIThNzM7Uo6pxkthxswyY1MTRPD0cA0oRD72azb1TxJXZg2RbgU8W+ao7hWYA95OgJrCzjNaWlMAvOo55maxWN0Pr8+BLAfzUlnzJPUicTKwsUInGiO4irBhUM9rByjePnpGD6kMwz6BSuKaojVYQYzmGlkNGlmYgxzhTZPsTPNEXwgYPLbWNnOaV5LYXAEnSCrlClv79o/z2wAYtuap2gE7wsjFgZ+Z5IgayfS/AOoSzQQKdV2VKTzi2R2gOPsXfko1tOikr2jyWOM8KYmvqY5gqtYRdoVDCZRwWlui9EFDOM6Y8We1bofXRcqMdM47Vw44MSNgiVpbsh5iKIte9nwI1SNNhc02w7Mg5VgEuSU0/vc+nCY8bLJY7O0KSKuvmBNipowGH4C9nceWwaqZnC+BjBi/AnLG9m76AHM7UnwQ3tHU8OHggvCs8fM0WMdA6tCTVpfcxgbQucWg9ZNCWasJTUgJzOL6eYJmsNtgddfXXMqyaDiDDUMtOdr1kFgwzoRyw/Yu+B9GKv6xZZYmptCW8GlZEdze5LWzA73KNT84zTHWYTBVe8aKF9pwmdCCz7GScTaGhhaI8YKLsFNXoKUxvv/4M9pRT7fii6ei84sBMsr6n9kPWjF6MvmmSdoAS4IJMCkFqQw0poDFS86zXMGYH1zGYqL2meUl4QNOIcwJ08AgLJsTKD4UubINcZHhBdtSc6H0IxasEfij/JXe5e6EPNj223vYNoxi92hHzJnm7Id7xpfoeWdnGY6ogadV1YoDjTojqsVzLn7F9/JCNWdvZ3+xVzCmk+AFHxqPb6Ug3QtnRbGuv7e3nXOx9yX3DJP0DLsZpfnd1PEpoGVYHUob+Q01yma0R/fXbRpNPn1UwNzJ3ba3rF0QmAQX8EUsaNACSKMP+c02ylepLPCrUk1e/NDxGCeoGBbXQ50I4j9eQ4wpRNODZS60+LuTrOdAiwBxkHxVXsXmVGFPLJ3LN2IWsCs0Akzx6EHQOg56WKHQQ0+ElFv8Y69a4wR1YNz2DuWfkxlb6n7myAVAIsK24kxTrOd4Cyd1C0ormvvCh/GKfSydywj6MQadHxoghR4BK6gpXE+E1D+Uzqp5VCcxd4FXodTuG7vWIawjTkMDvjAOCXYUFSD4gycjwCs3zAaXIityxuJZ8B9tg5lFF8zq/Szcd9x0HekguI/OB8BDcB0D4S+mZ0pAj2ej3AGNhudGEQQ68Pzp2FCW4AKKJV8JZB0fASZ0lgoNrPt0YB9MNRNe2XNMLoyztyBZYzSmQlUQBGQ3mnOe7GQTukiFB/R/6A6EIoKpxvm6dmDD5h7oaZRBsnMAiIhtHir05z34lk6JVR/bNf9nHrQEEZKMJ9O0C78wKxUuEEqnwENMHob6jTnvYCgILAH/NnelcXgUzZ/bMwgCNW4XLRBdeXnQGMuLf7Qac57MYjMKAJOppltXdg2OAGbIkFZgmOMk19+Yz6SS4BEO1o8kfMN/EBmlAZK3zbwoNqB5rIL7U9JbQIzmbUaZYhGFFAA7cpepznvxUdkRq9AqTkXeRXE4T1QQ/P07ARjvpvRWNZb2EvCYfK+05z3gobibEALY201BtuM45sKzWY/sjMq4XqGaIDSKz0tzeY05714l8wIFMF1bF3UUTD8lBRhowk0wMWKNeS7DL6WG2npKqc570UImRG87ezdmWM2b5sNj80j4BtcreNGdizgDLyJlr7lNOe9oK9gOJv9a+eSrsZrFhtjz1oENlrGbQMUTtDuYPhwwWnOe0HcceLASPcjA4+pGRiB8o8U46Nx9MflumlAHwjOdo1p6VjOJ9CTTAiPq7aaA6LC0cfPAElIy5ivb9FPAO4UQO+6zWnWJ4NeBeA3yU5FcBzGSQtJMTaawHlcsEn6XwEQfQRMgmZxPoGBZEJwQxtvp5E+qgHH++hFIIvWjAG7fg8WyE8A/m+3nWZ9MjqSCcEFzTU7lxMDkBxMMSaawr+4YtUj9HaHIOKVaamPOAhTKzXwChyo9xH1ALMQ2ByAyiqwrwC9AcTi4NTzNS0+4jTrk0Gt1MBCxU6fIGYL0Dcl2WgC53HJFuvMljkc+sL3YwvnExhBJjSFFubS94S6gObA+VOUiybQmnFk/0df5+3QFUKQnud8A2RCEK3DztjQGBXG8ZgwmsFwK7c+deAO6EoV74wJtk8IAFgDXLRxKevB2G+kMBuNg90F6DNh6Ac9p9HiFk5zXiAA+aCspY1LWQzGsTkIrZVgjMQ36eqKYdcgJ4+vuAfz8zkGZXN1PaAuXIJQbGE+bQvCohXaBiXoimYCsTAXQfFIpzkvEIAPoMxc8ixFoIVkx5Tmohkw8Wxe0NPzIO2HppZVOd8AP59SUPaVfeuIztLnU5yLJtANbcQX69FgggvQLiiuw/kG+Pk8hLK1Oh5PJz6FYbaZJ5eCYBw59AQ0AcUH2IN4VnK+AX4+eDdxzr5lxOSZ/qIGSkYaDCRbRXu/1tDtL1ocxfkI+Al9B2X2JW2Ig6BZYY7w0Thw265jG4ibKzhebed8BPyE0ADavngNaWGUZ5zho2G8j8umPW4Q3vp9SYuHOc14oQDgadW+tJ1lYZT25smlLPDg9rrmXhgPF4LF+og5ABWAySkiAC1hFHPBtxzAuzD5wOxae2EiCgiH7TOJg/gJoaVeG60PpxvtYZRzzrBRFyJb9Q0NDf0gJGTz439Cx8PsNZtNQvTtHlD8q9OMFwrA3BQRgNdhlBTMD6obkcN+qvzsghMZ5ddNq49IAOgPTkH5OM5HwE8IDVTsCxAG2o9JSu1GLzkc8hib0zqQQ6BQ+Y0LA1XXrZpGatOgD7pbTHGa8UIBwM2q4WAYqkhFBzkq2SAqW85P5i+EX96iTPM6l9Y5iglM3X08WNvCaQwijT6gEGEgrqi2UVJOANBX8b62Z9OPezDIZVFt19tzisRLTrLa5ZQJJVo6vfZEDu9qI4lhVybTYp9RAxABwHNpOrsWGGMltGOr3hl0SvG9+8dHEXazv2+BWE47Jmsjugm6DKPFXznNd5EAdIIy22w18TWDKcIOz9BwNXLFZFJvFQTcGKE+B8BWbWTB/iEQYoS95zTfRQKAoUttCw9RHgYhSaJb59QaMu+0jQ4rS1donASPGprIYtgVvAzO7DTfRQIQA3sf2+5pwTE8NiK5KMePOvInhdU2NbwCti3SPotktNBEF/XHEJbdd8JEUpvAQ7TMWBwEDQA90KEnfweVO61xz83jqj1WRJ3Vz31ClNBEGNOHQnyYoFS6x7MJRcmcTtHCIZqezQCq0DHyezyRBRfqn3ANO7zJOuufB4Z+VwCafkI66lCn+U5AY4EAc6rbJQAD6RgLEltO0j9dTuurVxfK63wNJaGdJtL/gx4QC6Gt03ynfCBz+pMWBkbYJABN6RjVq+ufbDKGWj2rB80lx2l+5dUC6dP/lT79xiqPTp+uWuSXa0y8IE2Ws30gBdlK+HrdcJrvBB3InPA1aFfK4AlWTDn2S/MTQdyrJh5jf70jpcW7jThM9KPJcPI6dBgJ5VXUHjLFQHNal4PSV7Q8nH5EaHzV9ng91/mChQvPeuOH8I4S34lJXS2d1XQh/ZXTS8lsNDCy1yottDHYLJ6t9nO+Ano2LQ2l2r5vurFEfT4ZO1x8yEbjO9NugbDR31ZOaodA/dejXT7Ztl9CO03x7X6HDmNp8V2n2U7RjEwqChbCJqe9zcpzCS5yfpWk522ZLwQtNf36NOIoO4d1rRXaomOjpsTaoOCMBcI+EhziCQLpyw6imR3V8nD6oRgcM1PLJfI9v2vGtLUwzSAbrq+o9+MX12Z3+9NNxwfeXHb+PnwOZkBTLU7i2eGblxvKP+F8B63IrOCncFbDwxmAvOBP2ppGuWvexUx760LZMtuxCcmWEHnXQWxHrk420vhvWjpCC/E3gcyPUL7Aaa4D6KdsHpTaEyq2vMwcmvwWodo3+zXsoc89UwH38Ag44NyTojEbBbuCPOTHPgREVgt13F9CYJEIHdpv2zGMTOuGZKmVaCk1geBeEvYnJ7f+8uQEPeDOwsZXX0le/8Non9Vc0xdYA5hALe89Ken6s2iK5N4KXkOaMiqgpnMpLfYZk/AnoMYfhaF0oi0CIKX+eFbC/iwunFHNN5tzRiQ+DSyaEkYDz50UHG2daIrNE/l5wesikwbihYBIHig3onm2DVnJtN6B0hm2CMBF0ej7zkm1E2VTSbj4+C0QAPa1jFbFBIIw8EPhpCLx/URHvnU3KHxRA3W0s4T0jMzh0HHQJAiR8Ol7VsPj6cfHgrEHy9zuXhNPs0oM+4oa0Eff0DJAv60JEUlFp0RjE09QfHVrCaOD/qQYW8x31EAcE7oQ1t2enEHsLzuhvpzJr5Tj7F8eTwwm27TGhR29IbyhsRoIR6YBnmtD6Q8aqGMC4mO0OA3nS2hCJwbqlmhj6XFUgMEBuNzy/kcLJOaZMZE9PltjtILJa7yuHgFswkjuCj0oozePBrtJVHwuhvKCTvOcwR06MYxbZYt3GG5+Fivs4ytITbQQG2F9mSUzegQUT3rLLjHBW/4H6qmXoVyDB3VWaP4jlG/ifArdyMTQP/Q3OwQAPZCVrhsSF4uneSeAPT8fsmRGUyhB6q0eM4gYp4+4irGhMdurBr8mDIj2HS2O28P5FGiwC4zfo83eRSdwFzdLqeGX4mvDJCNcjKtjiYEobHuKQPGZP688nkGqIb3ZpJaQWHGCOm1kdDD4kr7kNMcFoCbAaBis5ZSjG2gMX1ix5cvCWRZL+iVWhhJL7EPB3VMQ9CMyrSijKabU0JDpIgQmi6mRRLtMhwHmzbDLbmqHAOArRjkWYYDgqDw4+feOHqz1rZjRAMl1kAHqdTToorNA80pQ/ojzLeyjU2tMSwPt8MrE6+BKyk0DzqMycKDXRGAplGkP0aAA8ET7VbXxORhdg1sI5sa6Tovj2ItN53GHzg1l9i2rue9hvY9UA1IfrsIrXo/W5m9k40BDsNIKA3Gwzr6q2rg7TF89PADmxroDGThQ4eobuEvmhgYvdhgFoSq1l3rz4f1Sh4c3LIfBxDC+wEl1CqoATfDLqo0rwuDnVFtjbuD+MlR8AzRcHzLIUrMrLzAesbEQUai4KWfBjMDiUN0bBsObqEcJOwitMSr2EM7XAJm7ztLSuhYsrxCYO+N/hiigMtYK83DIlah+/QE3hz1VGweADXksHChqSTvAO4lGdHbFYdLDVZ9RP+BKv7ohAhhvw4oU92AFpZ7EFm4j16s2xiRsC6DcV5KGA+DiB4Oi25FAHN64PQwRCIAbeSuSTkLwR/W4lbB9b6TaOByWEt9V6TmfQyw98WFuAy3XXXoBRrJ3jFEAd/uMFhwDDsADt1ZpGwXqyQ2qlFGbjXkRBnO+B2qSdRdKP1V9Rv34hZIvaowC5nE9ZowEAq+nPlBpi4vzoRphdAvHu3WMkeIzgIiN4CNuhy5wHyWvyapWjPMwbwuijaM7lNrRvo2eoetDYwgRzd6I+wpACWrzLnAXJZ9gjALeJ71nfkJ4MaOmCMDL6AdqhCFjOKoBGUWGzwDuwdBqT09MfI0AW4tYYxRywATnGSOBiASFcxOVtngEVfv6oKnZWfAsySftiOwwEqj5D/ru2JA7rDGQNxboYTT4W1uR4LQuJbdIZUZoLqFmkYgKK0gXy7zAfAg0CN89UNV8YQnPGWDI/URjJOAgYYX/Et46blZuCjpc1dcXBj3DL8BBp1ktDTCyhxAOd6wPx4MJYwxmKD9NKQTnM0YC8QLMSGVPAb/qLipU8dpzP7xYRvtMfFAWoFPD8GXWR2iFiDmBBknkggluNkgDcAvIqfgagEnqHRWq6ER6AMq3Oc1pGeSnU0QH6CPm11eAGpT4AIMkzsMECxukAbgEqvkRyqbQYKWkYhAWh2eAbFAxj/NNBNJ3KW5frQ/H9CMlvsggCUxs0dAgDQTGh3yo2BIuA1W0WHgPMBg+pAE9nOa0HEqROcaAiYT1F4LwCbhjkASeUy4bpIGA2FgqN8KgxU+l+TG5P6H8eaf5LIstdJJNaGlsK4/FAENpo2bdaBU234IpoS4wTPFkAruPQMX9cR/c6mGY8wOcrwJMHPEXYXkG0Z2U9n6DJNCoRP1SVh2XUDWjGH8MokMo6wHQdLUaiEqcRDgyH8EJOkuM4jHIKsZLrOE1ozQg+nJ1K+bUAR74oFJDPCB1U2qI6l68BwjhfBbBY8gs0aHN8lBBkEHLsPspbKQ0eGeoAx3+mo9RaFgCGiqFCDuGAUZCoMKXIgMJAbdb8J7qYrWLKGgCcxulAf778VbMqROug1KgfFTvKnkGom01+oQG5XGaywqAlz0qR622DYfLoF+M0kD3MIPqZBZgpMAVU2iH8U2el28Wh6Yg6GF3i/NhvErnuRuKrThoIxZQ0seN0sCYgRFWTIoJW6GQmwhdW9vKNysFzYLRdB19RX0OK6nCGvXYFgViIQAjXMOh/vA+wZLQ8XlxIX6Ub4d63MnyzXZCM9xERfV0msmKeIlMNAByZyzSEg1RB8AgToNjiDTmUBrB1sxqPazDIvkLJrTy+li2VVcMAYextnz0JpjHZDpTuG+zOlwceHb1N0oDcq5GWzOrljILIUB2aHVAttUWaFUU1QWNnWaxMtLTmaJteGqrWJ+EOLC/MWzVD9Z2Bs3KhOiKuiD5vUkQaCBkFQZxV6QX1dPKJ22BKL6hUx0LxY2t476H1eIZ1uOfpzTUruW1ggkX+7lsM0hxIeuaXBZJYQRMybA3PgS4EKwFv9M7lmboQSWTljBrkoDTWEaL5vUQV0LeTXwBbSSrxUDn/4VYsY/zcUAmVNwUWZpIHD2jNeZdFKM3paHuoacNcRgcMkw2MgKosZrJNCmEnn/oEDTbSFqiFAUc+fE+SDmQh07clx5PH2DLdseqiTFRWwrKtYIoasFR0k3OA51oTHzhuxeBPDrSyWKYgCoeC4HXZL2NEoFttjH/Qgnkw9CUsq933OBLByeIwRigxaEiisk35ZMoSo00a4Hp9SErLUPRLeYno0QaUhrVLJsZhkiUzQuO0f+lleSM6y9GsULR91XA/QbmNV3qsQ74balplMggSqOYURoinMGIRONkGmGMIOk4iq9Ci0kRUNGE832AN/BfUCz7RTSAAkDXsPc5TE5LyHaNaAxTC5TJmrcd2kh+wTrhTg/vgTAhl8/iezpf1HpblpvDw9pezDZKBOL5W5g6aC0uhUzOrAi46P9EqgG+4aLvQoXvbwEfYzz92g+3aRPwDQxnOCkNWFxaGdR+CsxtQHbpNhD6c6NE9SXc6cHvyR+2gE8AfiBoKy2vGdMNWEDjR/hllIiVIQyY/ZtMyDgQ4F0S1ehTwbjW+sMWkGPCBGB8k86WrXEA7LQMGwQhF6xMbxgHsUe4ldLvJ/iESURPiAO3Ou5nfHH6vBYwGY3ojFGjbd17FqPQGY/2DvmH/zRMRAK/4VrckGwCNq0SEYVeQQIYZhGdbXwZzajePwoutcMMenGKgaYmJYwSiQQiX1spAEGoD24mGR0DN3liVWBHqE2F0eRzcX4C0ATgfl01GoZW4E9ki1EimG/F2stqDO0JqZQAaDwmUgWWxjMgxq6Y6ktZAhXxAp00ek1bEZAxCZg30rAeaC0QsTa5XQxac96RihmGVwbZhJVMEnIMOCXKgeazAAtAfFtbEpb7CUCJa/yWEZlQ1lIB8JTExZDKSYS7eaFZaCtwqmSsSgJuOs1XzQD36Dhwv2huVeR4TPdgOAIVelhbnNgoAiw+uJ4SjpFtoV749mFiQGNlTafZqgNwC3IQihU95nQA7tNXGiaCxgrqEZv14UNcDAmDBbT4FriQMCntJqG/gk/GBZMB5AtFI/jKHmsAS2FYDRADOT6MS5EMRqPvTlGxmxgatAg+EXhTyITXesnnLUEAEH23LxRblUUSUmgY1uIfhnktMEpEFj/gaogtf8/I16K/UhcUnctOM1UPYmHmeCo+47EEoGszrF3Cs5p6lh+96APRrLnmomCAXaF2J1NTBpcRjYFbY85z38c/dOaYRNuiK2HI0fa7URoYbNtSc7VkMHm9dwprR0PlfKamMdQEY3At5p3i+wBjfdzxyllI6ATcBRm+xsFg26usF4DRuJcLFN6DYcKLV7EiB37ov4WKAIkUmL6Ms3AlDPatqaI8VgAM5oyaGqJlhdV+a0lgzPfnC2shcSATRnMj9roPFT6YHkIZoJ+BwM4WHQQheJpRz0B8o35rkIYiIhi1zTlBLdzro8tMKNhPcLnxHtAfTMEYgDYYLTjTe6wAZF5VC8wsB8zrbJmKmgGef0XThJwh+A5jtMDloeKB0/zUDTiezYbis5aYBU2hBA2eLCPxXuUdWwQgBp37hApfEADYxhYC3QRXLQLaC/Kf+gGagz8r7l92eCwAuB2rJ+iRRDqYUh1b+M8mfefys3fhYIsARwS0oeVyQvO+vpchTBUQLAgPgiqJXrUBw2wZC0EI+Sw0ZPo0hqD8uB6TmTrIM0mdW7tCQAUuD4ZV+pXzP0DaDLy+t8QCHyz6jb1SuuFm630jFLQAA+Vx+yNRNsCmjV4V/IvtMdXWVP9SAiUDPFqj8ILTijytmHFBPfeuBN6TnqjFiFuDC1IROSrF6XvwWuB6YEgIDLTgPwC1L2TKtCSVML5SDJmE4cvZgoRBcsDkedzKrrQCw9TO5Qu3Ymu0Jcw3gfNHQPIIVIrs0rBwasDwAEayPg6D/gmvGSCgEXF4s4OWp+gbxofRXY07gDC0JkZfUj9CR/oEfUHBGX9Pw8qpAa5a4g04hmAQ7hft4z8b7p0bsJ2Uo+HwMG8ZE/7zayAS5ctxIRUwAOx/0JOnuwULCz4d3G3dvRnjyoe6u+tBY1wReuDDRCBesViCk7qDv5K3neakUYC5JgZHtcJH8Dmgl0t3bzS6ymCZrbokluJxI5ZkpoEYlfHeCTDX/bgD8NcXAJMnBL95PS0Iy4q7wD16lYsBGGz9X1v5z+S2gXsfuCr0BgE+CZHDuENoPOmnO4DHmEQ5E3QWyi146TKa3HM6O6NxZWBamwWgEB6BuQvJhXgK9OrMUbfFmAle8tnsMOoARxCMkK7/nS0GOs/ozUiExpU2pDQUAL9W3Knk38R3UJQcS2w2xpXIgEpAxkjYz/A1fQw0gw2z4BuAG6NF+rL+McaVe20XgOHjcUnKJZVhlOLvkkowKBxXErv7pw4gGZBKOAiMeJQiZGsF+nUpBVyWAO629kTYLgCsLdeKJyUBcBfIhT4p+Qzb1EH7FMzB7HcIXkIfBCIzS8ZE0AuMPlRET0fGuDLcfv57RqPxGTfWw26Jk8JmBKGPAnNO7opRx/wPEMALU6YvitS5hhLAZAR486gK/EEGp0kBARBbhmCclwJPWjDepGswpirGV/BDgLVTENpJ69fdiNAVbSd0xHhiYjBbnspIEgF1cU2ueyIxzsuTIGGRzDsCLQELjeD8Gl1ge4bWTlaoXzF/OLNoymCS7mZNEQHw1MYx5zNvhOgn5gznsZ7xdPErZxApgHvAWijuYtijU5oe941mu15INsRNsMZGWRVxp2DQ4Jfwr46Pq++iqiA4BDrm9UNDIBbgtxOAxyErfnqYoklzvNg0mIntV42dTIOJ+YJxs5I2fDuxgMkfwBiJ+yUGwFUduuIYTvMCYEzuFt3V1gkjuQYbjjCoG5lk1udJJpAQlMmEUOjVJpbze8ylj4PxohIsSCbMWt1q8xFMxNfQwBTjP5tHAJD+8feBsfhn/KeLc/4P+KkH4DlgsgWr+h0zkqYgdEy+JSvupbWiquTqBH/u8XyEBT0xUMFn3FOA5nCxjaatHSxY1CDG5K75MA1d0B2kmdXZTJUwVnJ1Rno8rZi7HsY87bjTzLMEb9AHwpTH0VbE5HieGelmV9UOTDLeTzSMYB0kuflQcNC7grcks5xmnTXA6zaMFGCJRzajC+CO91Frj9a1wVaGr1fHfYm1yR/nGcbs88pBh4D83FOBBPhd4sXGeitW9S6bQ/OLCOXmQahxG5Ki/GcDJnox2RPAXAIw6VVnck8JJtNnCsWLWEtCR5dkx9qonJqM+RD/o3EIq/CSSKmTJ5G90Yh/CZpHZeCeEuB2Dz+EloTnjevIDvZIUbeHSZdTdAuYhJeFK5Pak52562OOgKm5pwWBkPIKBX6SJVEZxgxmR3tGQcGQiJ43loaH1oRWk9iphg3HmNEcNwGn3tqf7UAEgGC+Y/A1qOcOVx6rEtjR8svHocJYNcHTUlwAPOXYmf7pKcUEfquAbWdwTw9+gedC3db3OtdPBg0Ew62UvWtGzXrKXAQL0IKZ6J5hU/DPqrh/YU1J/R056IOh8i6+kO4VlMRB4Xjppe1NItH1ypBLqVnUqsbMkzkBxjMxj6dzEsjYdFeV9L++nP7vJoMDOX8C2F31KQrlo/QuoDT6iMLn1JVMJIYxIay4jzaAYfKJvzdguzTsiaHnilwvfFkap9yn7XQ/OiVkgJcbRmiuZlE+6dZFhCMGZ5Z4u6DWqL8j/BckA0JUY5RYZKoj1tdLfV/6ojMo3RSnGasZa+m00R6S+MWaxZi6oiFHbBAG6E3EL8AshwSA3fcDmOhph4NX1j3699aCX3VS/omU85e3QD0657ifodyyJEJ3r4kHHZGeVTXhbfQdCzwTjKFPMckVYm3kErVaKrXa5DRrtaEo7MpuQHn0MY0PqoqTdaTG/aMdvD3xLrKe8ZHMIk1PqQVaYpTc2/4RQvw7OuO7uIH9y7J1HXNNeuRiy2v3TW6B5iNW5S0wgr0SLDNxM7bbLyQAU7uhVWaYVSlEPIUVrKfGL8g8qDMqIYumuBoY8ZdogqfM7Ib9wnk4GjblTEKEDy1a1HMD9EzHCs8k44gZKFydzWbIxX2h59GdAgQ8GI1uEU2tySecd7yu2ZRv9RgWnUENQJj/1eS1RLdmuh7eGdQBRmPSRGsCtKyuY2BKgXn+vu2AOiiiu1BrUd3sd3Cy09zVglJ0vidxG2hFoO5LfxidVfMWpc0Pr4v9JauLJlFnrIaOcSfb3tg55NqTm6/Ya5vaMq+vGH9IJVAAJoxRAy0wzIr41vCsHq/mOMuOohqQ9YTkJE7vVdBLjF761ZYWfwhChRYJwSb+YDswAvJnokqGm2N2UeMyC4Yqqu9gtCinNfsQdWSXt/O/s6nzKoElQ1Tez/5p2GLIYOnjzQg8yb7mDw4kcNvNZEfPaDZsoODmvOiXniUX9cXVapwyLoIvqSluJ+Qf+H2N8MeYnrlj7jsqjVOh/VhVzveBRqCMJZzJvM0Cc4BF2Z4URtTuoOdHMbC1uTloQhs1luoE+jVtcIipugCJmfKhOrSaKdOwdCyjBzzPV4T+u0b73KYYiDaqE2ktj/YHIbi+M0/NfqDbK2MfacZTuBSrAIplrIFOdm6kddU72pE2ChFkfc6fjyn1c+ap2Y94uPA4ifEz8xvfhOUQRNAR69SPvdLy5V7rJ6l+EDYYGF0Pelu/oJBp5KTDvNUGzKG8Eytq6l5OL9LuZ0eoL9syZpDK5GJv2cr/qTbEegKjluyOMlYrxsNmeykqg4oYfAW0EjhPFZCnI7QdFmOxrRdElYTD3cw8Y+suc/E/QIO8xBShFMNMWJH+WJHO0KJGCT6rIyNkm64WnMCi52f5d5nAsPKG9pF1YzQb7jVh41tJxaE7zRh3gl1rJ6dZqw1rYEnaoLamqZGI3QHjWOpF5OOFBrzONm2adIaexsRq4SZYdjUtRk1mpFPUTLr0I8PX+dHdKP21TrNWI8A2kA2kP1P7WhIIAmgtzi7f9CrbdKE3R0gf1q9MU4QJY9iJ47RnxP2dX89y6ij6x6ejarBFaGPxkwYSvoDXYc6YtYXLoOrYLcIolvT4TvJNBTY4N/vyFYnMS2SKfQKAPC4u3KkEXfj3CxlHsNhJRXpdvth91erHb7H3BCdezJbWgvMTlIFJY7AObpDeJS3PMjXVMPmmny9imuaBMExRjHe2bQED0sIgCdKXT9l3FN5yoP++Ez05bsD+NSM3vnwxZ81sfal2YpowwAQTct3IdbgjKA6TLoMs7KIzmdx9dgMdr2Bgvpq9gZvAXADPRk+NBmqjGgU6BY4zQiCodxfBSubHHc/nTvNVM4LR+Ik5COhzFDxclCVbXr5pLdb+Iv4CW406yUZ2CQDGtjdiBNdpn3AhDzFfPD8KKIyZsk8yflJ6FDF3Bae6hvJNLw1hm5YU1IdCXVO7BACDE36mu3fA26KAweMZl4c+h5xmq3bEYmxGxjYsv3Zt/HDBNY+CSUHf9WzT5aIW/6OVCXblj0KLhal6Ow8TPMJjNDvMtPCrrGJoGXSP2fu+rXVFYkayJMfJ8i1urmB3vUzcdCdUWxG5TArP0iH26Oyadp74GmMCm+6+1iTOjxCIezBGdMO6aVyTeSzF43LJB1pP/kUweG4JI1C0J7Ere8BROkRVXR3vVpZwJx6cg21U2Wme6gP6A0Ywx5dH2hZFoAD4WfqdOi31UZGmfbzUUQO19C957AHsQ/UcAnYclLosWC9wfL7uX7ECOC4bTH4vU1Nby6rMZRUAhySYOnzbASnjywTJ/Rfmb8prkwCAV9plrX2y9/6Gk8J8gca6q794CBM8g9N/FWv2aIggfYG91sv4QFCf76sNK6KlB5bWN+eGFnblEISEWc9paR8XMmqB9O869qpgFyPcEPkDMBxmXkbBoZ5I5KUwhlQ0E2iqa9tP5JjPyaUI3YxNsquObwygxK2q6pge2r2A7LFuUllh6xpOc9MAiqFXww2mSk0X103gVkGTUo35rX0xRbMfaWORRMae1oIY9lLoimOcqNxPzgQ14OTt+qfDFJ7hW1Gm+4ZOM9MQIH60J4IJmND8fcWVzCfwquJvEO52PqqyEwqWefWyJwr9V1KaINTURv9R4sjzee+2evIyaN0q7exs27o3eK7AwGoq9iErd4sMXjo7zUpjGIwLXYb53Z5QivgdIQgLujN5Qc5VUd0HD5BJDSBYQJv8Re+rTU8Tfhcfkxv4RWwACVTCp2jPVClE/I7byVLpEJHE/hXq4xWTebHcYncM8fbwn00JYRALJVTlanaOvovmqHEZfpOpKy6rEha4AK15otXpc1ndAWTRKJmN12GBnnCRTQJwQ3WKarhZXrwqAT86zUYT6IhP8hb7Bq8nY9opeF0PfmJl3lrd2n7lr3J7+xzCoALjbRKAdSZXa/BPEWKikc+apOosmKTd9dm6/pL2uT+x37uiT/Shiaqv/9w5ZS39RPznDtkkAC+aWqrj3aVeYGcMu8T7Bqrjpz5CYO3yjMROsAL7qo9OCixxVXmQpvV3eGSRo4eovV1vABO5f7q0+ECSZL8w4zR9A1fxcfoKfoxNRTrZfwXdCz4p7KSw+y9afItiPPC1Eq6aE2wSgJucMTTvNVfaZzHiE3/d/lNEo3mg576AlYtYte094Us0ObzcXzK0w4pXXKViXdBA6sx9xx7+x+kKYMVj5bg35Bzn0/iDN7gq6jAfZ5FGozhYjtwXhlX5PvnALhUa8ObfFT5XdTS6J/1VXmmPAEzVvTZdjjbcIWvkEPBCF90EfRKsHY9opxyd61wSI2Nu7RJWVU22AIgUnAADp6x7U1PEzbaDpWdU1B4ByKFnVXoMaT+zjdLrq816PeR8GcFMgLAAiVPN4PnLpzcW73aueMNAsy6x88ZqDPnVaZzcjGzSA2Da2Cxl364xUCqm3Z71z1Z+758yarcRfbb6fT5xirPMZj9Ra6inPbxd/3CmeNd1TdzYXkN+BVPZIwAYxa1tUknrkHLlX6iYjIL/fFlq83Ztwavjsu7nniZUYZ4u6rSmThOoQaQgQOK+79SWMeir+UrXBl3sEQDMlviBGUKrMnFPGXqzEvC9hi49Q2gHkUNUxl4t5c9+MRf+rKZMe4A9AoDpX8YYJ/POs/5/9hMinjXSCmiv2uMOnh6fl2pRfWfvW6JlrnXhvSrqqpMEewSgFx1hgOFgKDmMuxH7MvZsZx/zB5UtTgbWbFNWx3r29KcHRv1U+DEm7v66wMDq8jdGHWBTHW2PAIARwwljFIIe9vKHSIBGUEyg6sqmaOK4T3DKW2I2TPLZ3zxwJoi1RwDAItBQvuJ7vf3G99MARgrOvGOqyDaN/Ut0Ph62SMdQIgRWfix+MF6wLfyPgB/vp7p7jzmyrLn+J/Mn/C00w3koI+9rpG52su3RNxriVJKZCGbdsSVmLPqGX9XVM/Hc0CH+ZvRvANOFyx7VUsKq/8pEad1oX6N68UnlkyUP/QJs8Q3EGH7aXYNrvbL1madE5asKscNmUL9eTOrUAVXayqvGhxpZpwFXef96dNyMsEMA/oEBNOXJixpW8PIv/4FfPsUcCWPM0bdmNDq1Jyys2ZrGW+8rh28680j3iI+oPxEqE2xJJocGYWrZCV57d8vfuaP1Po3/41OTgVp3LNMzWnAHyF7BeFbYEjUcBgimfqzZQ9M+yVvTanVo6NJhZdOV7zyowK46hu6Nnwp0NBsz/p3LRTUOlVCAydLMGCXb4hcAtuyTSOEojbP9z6COrtQtQRLfhEuF+6vLQODRnMIYAOhcbUukQEiOcJwUDlSd6n8NRdtqX9K8p+48kCqPKfPxi3VkVWbBTXPNlDAQxvAttuSQgvguv5PCp1m1YxCxy7W+gLM+/qWPny1X22fYka07O9QlGQnimy0ucvrv52a+K+NzhHZlduSNWA30qUNMRu0L89/B4gtaFnR4gaTGGdS+GUGt7oaGhhZSlSq0LLbDOfQB0D/CF0Y6vda+ieAaqhwIOMIHxOm5Ta2tNqB/VVfz5ERIB/SJe1crp5faVxE2VPkXWxZiegVetSTA+3kY3sRtvSwwtS+JUdrN6YX2XTR7TjZKQ2R5gUVMU21WYMrAA9lr5smJANau0RF84TGnl9mXET8/ncRxLCDby2KLjuBGoTpYIY2KQM+OCCGQJbM6KZzm9CL7OAZ80XAsfI+j2nw4TiblSkL6Tvp5wuA9oFbIJC0pQKinJqTwsNMr7A/IkKlXi7/Sp9/0enVFa5jATcOM8IUEl/sBaN21QQBAcqkaYJXTi/t0oWlFnR/vtG/vI7Y56JPUVx8ZLagF5GmYorVOL9nThoRXW2rOAZ136KlgyA7xIZDZrpWGdrQB8jQEVjm9D+hCHfkv/6P6Ch9e7oA3LuAVvgizrZyxXgDaAvl+pPQ3pxfracWeDhsmlpEO+dw65Ej6NfSqnVzMzYTu5s8UIrQE8jRZwmTNT+TCAIrmHrJpXZace98tW7bs3jc6j1qeuXFVoT8e8QPECE42hIrFkPg0qvFQp5fIRSxviYhvYxuihYPR8Qha+onTj++C420CZ0HZNEM8VgT4nSykpX87/fQuiNZvLJTpskrRBohEd5qWdtQ9XRdWg48MXgrKrM8X0Bqot6DFU5x+ehccr0LGBJY5DDFZCRiMPAst9rsY/08h+F87quUPG2KyEtAaAOIVP+XeXn4B/lDeCcreMcRkJeBVE3Vta61zri5sAM+Ou1BmKn6HJOYAdXq/mcbph3fBcW95mYFB3EIsFwDY7kMQunO6Z+vCcvD2eX2g7IEhJivhZ0r8D1pa0+mHd0H9NIOgbIchJisgCHZ7B2lxQacf3gXHzeK5ATw6Z7UA9IUBt9Ji/8z085ThTZ4bYLJz32oBQC0TZDg/4PTDu+C4uTw3IMZITasFoDwM+BYtPuj0w7vguMk8NyB4YHcDPFYEep1AzqchumfrwnKQaC3gvVvQagHYSGmngkg4TfVP14XVeI/nBqQY722EyUoAT5b8UNxT/3RdWA0+6aRnAS27aLUAQFqaZbTUdQ31BbzMs+N1WlbfCJMVkA/Ga0+LXb8gX0Aunh2NaVkNiwXgHRgvNS0eq3euLmwAyVQO5lmPLBaAvTBeOlr8k+7JurAeHXh2QJSoZywWgNQwXggtruT0s7t4jDU8OyBESF2LBUD6Mtjzu9PP7uIxevDsAMW81ZkjX6WkMSGVnyf9fEoQG+FlB/juBFocLBiUjN9A8Ur9s3VhPXiz4IlQZm2MmEQI+NuYFq/WPVUXdmCVlx/9oGy2IUbLYTZQ/osWX3f6yV0kYa8EPz4zxGg5oGfwEVpcXu9MXdgC3lt/KZTtNcRoOfQGynAZPMPpJ3eRBD5s5xgos/Y6EPPFQfwpLdnxXNiPel5+BMFWraGlAgARoTEvtRsn2DcwkmcI+G/+aqkAwF3gCloa+Z9KBuLDKMZzBEy39Wf1UkBXGOxvWvxA90xd2IIJPEeO07KOVgoAun+MosW7nX5wF8kI5kMNQ8qhIlYKwBEYbBYtLuD0g7vwgo8JVoIW7bFSADAODEQfuuL0c7vw4pyXIx/TomBLApB7cZTSTUXzot19KpNA+yVue1nyBpRZGCguCFIYnaLFboQ4nwFvF4wWWs9bJwA5gCxEh2nk9GO74DFHglMTrRMA/Kn/QEoD7jj92C54dPTy5B6UWWgYjorgsqTUjRPuOyDhguFHWcA6AQCHE0hF8q/TT+2CoDm/NYdgjlUt43++eEr1BC0+rn+eLuwCHymuPy1qZpkAoDHATlJ67z+YGdp3UdjLFbygtyxzHKiXuAqk1I0T70uY4eUK7tdXGWO3GCeAKA1A6R4CfQnfernyPJTttoj/eLY8RPSAUW7KWF8Cr/nPDmW/G2S4EM8BzXqktJ/OGbqwF3ySqLO0aLBFAoAxIKhb4E6nn9gFg4+8fFkGZdYkjkJ9TwLJSh/hqgF9C7zaB0P5vGeQ5Sw+BYrEDdVz3+kHdsHirJcxF6AsvxX8X43hwEk8Mk8Npx/YhQBeT6DEVFBmRbxY1Cz0JAnRY/bonZ8Lm9HSyxrcBKQ3z/+7I4AeDTsyS+/0XNgN3jQczfeam08gmxnHoAGIl+mcnQvbkdA6mTWtEqCwsln+r0LLf2oM1Nd1CPA9fOdlznwo69LNGN95DF+MI9B8sVmcflgXYvT3MoeJ4G9yF8B8ANaQAKGJbqYoH0RRrxlwAATz4AI3G+X9E+RkBrhNyis4/awupMB7bLyAhUNM8L8286X/H7kHShzs9KO6kAIfLvAeE7/XeNjwdwcgneBSMi8GF76CAfe8DDqPpSuNHgVvd2GobyQVidX0zMpFyoGP3ZKPSTD/apwh/r8dy9AeT8NC3HD6OV3IgHzvtzDFHxtg/5gqAtr0CHgslfYZuUhRxPJ+mxH5sTj4O9387ydU9c+hdY2dfkwXsiAB3N5lipvf0sf+NP2FhJtEkMq2mmfjIsXRLIpn006mvPlvOtifdp7I3rsa3QDUcneAvgzeLsjTmj2qx6bWuBMM2PYoQUS1RxraoIDTj+hCCZkIo9aym3huZFp17gdd/2u/BNEwSET9ndNP6EIZ9MJWGMm/aM4YRe5Htm3RQ5LkpMO00XY3OLSPYxx9mXcQ1l07kijH/b4zx8kd7upASJiYZ5x+PhcqiP2ccGuqeLs2vnKIBPMLt/9ZnmDHe9C0PefC1zGfsmvpeIn6PZt2X+CNBFodLpzlUR4laoGDMO1AS86F7wOihD9YJNMmoceJa9cyNFeldfM6vioeuu7A/oA1sNd715T/XvTyfMj/HW6SUP8AZPXzPOhhnM7Ad5itwjD3AOAnSDUN2Jb3hEEqU17xuPz3U/wRAYyrddAIiYHbBJrDUi7//QgbGN6VX6Sz+8oaw4RHxckJOmm4cBLB7N1PofSx2vvG7it4Scj+uPNOP5ELfUglcAosc1Rbv/hdqSWuDLqNdPp5XOhFs6UCJm4uEK/WZ3yVifc8Eng4yemncaEfN0XBIVZXeF3en+vspt2fS18YD5/uhgT3S1Q7I2bm1H7h+0TanAlH183s5JFBXNazRgZ34QPYf1iap2NW/ZazYv056dOHh/9bYVa2Qh4FvNPE6adwYRw9y3rM4fNNOk4PLnwP0R8b8whIxuEqLvv9Ht8aTSGe+OYQd+/3NKDHRCMvgZdmuBGAnhoczaGT+0uz5HZ6zi6sRHCvDzQzP1/Z8CLuq/+pQ2zxtgHqzB/97oxTbuSfpxV5/vpMSQayl3uuwwjzo7jwZUw42PlBhJj3td6t+MgN+PFfQfPc4zZ0/udWSI7Q0M9DLvzWeXnxOu5h34U5BOYpViRTkSkabIxFiJ90rciKItcOpaS18cr8Q8bV+zVLxYq7CxYs2K7i1Z3f1nF3PkYRuGBQzZPECHnM2na5ftF6hsjY8Ua5afwXKXF2zYtHB6j2SQjzwpit8/oDH5ad1kdiBzR6c8vvw5xeSz/EioISWamW5OyganjAhU3/TOynGPnKQRUZ2MQ3/dLQfBVd5BPbNlKftwvAq9fl1vLYOuUDxTe/yeU1b/WDou2JnQLwGGfauyKgGYNnKS3lbYWe39RUUk5Hbmkm39VmAfB4PndvvzVi/j3Fhcws23HEezEqTHitimxn2wXAE1TJ1YNqwQblG6ZEWR+CBaHqTPDclnNBs18APJ7ujvk/7q/XXa/9vlN4TmURy8l1nJ6ohQeelxZLd7dOAC69X7Zf4Z8aVPhnW7Z8gsELO6EYKTq/5ZOEL37ifJOZeWm+n/rlT789Pf/TGSVz8LGE/5buF5uTXeoz/4QXb/K/hSs6tD8iuLGcWlWSgFUCMHQwvOhjm/7dLwIHH5XiC/rnOe930T8EIH8UXazQGnh+Xvlt7yeRB6KKSvaLfQOXeUxDTEnP1al0F2tbr5eiYJUAzBPWHNowlY4dp9GHwjoc44f2CwGIpT4no9uLPpiBHWvG1ZTsF4z87/qyKCBN8zmvYYP/SZCwTQA4LgxCaqcxoNM0Bf8SAJqPdonkz5QrtkKy+F9gb1ZJp/VmGNf8pEReShsF4PF7mG5sp6fwkvqXALxENlK/6On2iK5v4jy5RpfhjPiKeDNmqwBwV+nmJIX3gX4lAE3IMmXW060OdTjNpxBpbCTsLzaIau0VAO5LMnQK7wL8SgA685M9rOdnEkuTTUQqrm6vCNpQdBi0WQCukbFTOCOOXwnAbH6y6fX0orHG48Ypt4QkV6LsxDYLAI2zmyZl1pKHPwlARv5THpdHR68JtQhX31NrO5FKwLeCKrsF4HUysonISgbgTwJQhJ/rGD29XiAru1lV05qRujWvElTZLQAJxFggZS+F/EkAOvJzfUlHp7NkYQP+UG/9rOwrwG4B4MrwLXamwFJS+JMA8InJPCd1dKIvgJJamt8nzb9iK2wXAKKIOCBLZM++AjXCwy/XO5pB873hiD9enB7+Z4vvh8i5W+kTgAHfNKoRfmDn/LqGDqsTvqi3ofJ8GYON5sW+T/9J+Jy/O8ibZZBY1Je0j9l8Nd8pQlOyieNEAAJYc2XbBaAB32KrZPWk9rVp4gzPvXJ/anic3Bffp8qNvjVfxq3T8SrJIOuTuQpAUqGe4eoFcqFW69Z0ooh/1duJsWyL9xaSffeIOSHJ9zVFJEhnajiMeg6MeXOTtEL/NGkic2MnAcI3z0xtHdaSDl9LE7JLAHrzLWaI62KfXUsSZ/KIu35Q2aC0w1vCLkGffUq61PYooa6Y3IKvBFMYndP7VuEjAjG5ogbwrbx/1yOuwiIBSLgsiiZRq6LUG+sEqZd/SwpBX+kadgBPQL4zns+ZctsFoKD8wz2a5pFEp0byA+YpJ9ll2gJvvU4BuPaVRKt8JZLq+DAf7CvT++6JS/pa9aSKLpEA/H5SagbDS4i/MtFEo/e5VsuJlRF8lw809oinL1rmJWu7ANTkWwi1nDcVsm49lHOreWa1TA/+slufAJToI93u9pMPOs8W9gaFP30/yQC6B5NIswLQo5/cHMqKjaVp1BGtuQPoF2CDxh7ch6TL5RQVAJJrYRdbXqW1EqfGdJAk9m2UTPsz/PZRjwB0ySrb8N0RXCCvnmHjefLvhcdszMiYXDACMEUhStA00TanBKnrI221IQKd+UKtrHqVdKmdkgKwkmyC2B/1DI8yAlpIEFvTR675UL6JDgHIeEGhZdvgld7/jWbnwOf6msQFs2OhAIzMp0Dak+aQ4LnGU7meOkXTupPUxXk1syqefGi2p6QAkL3Ha0zxe7ggkRfabUjffsZEJg5j3GURrS6QaK1v1q1zKmepUNa70uQWVbsADPiMqUp86dbDMqF0Q3h1MM8SdhL8W/8mt5OlDQKwL5KUji7XfsG1sGpTCpQE04wdwiDBu2ExtFwITiLNy2vnFT0HoFLWbgEgpu6zsDQcFm7YJmLIUncL/MSDeglpnSd1m7/gX/nRmW483t0sJW2mF0wG+QmWLwiAsziT+rX120OS/RcmPNrrlYHR/Om8GzsJ3nWjadFuHgZUAH4m9t0RqemuPyEX/SykFjzZHrQIT1ddddl7kcbzVNsSUOuRjiknAHXJTwpf6d9TQ4ZCrMX6JNg7DRd83oqSXUN5xr4o/vfQf0UDqyqC/qIDJX6M5/Mr3pj+/PmuL9uP/x2t2er9T8yFT3qdyn1qE2F1lzY84dLMCZJbSR4uSGj30wJFqc95Ne0V/SnoMCChuc9KQKm9AhA8liwyvHb2U/e366IrIrAi2sEeisil5kOhoiBBvLFWE4Dc1JMq7xTBpOcwfhYC/Sx/AN+XHAA6YGYGIWlyu/++0BY/cC5fVUao8/wIh/TUuiHcJrAgdOJ0JB3/mZAfCqX2CkBlMmZWKH1ISm9JeC7+SNfhL6ZiG//zqaNhYioCELyKDLJZvNbfo6m94B6bz/mRrEB4bZ+o8xR+2ztbnF8s/hxPVXgrm3Dfw2B0dzFlCmIKsp3Tjmgi15ip1FYBGEeGDAKD1OLkKXNIuiR/TOpbT0Ce8Sfwc1ompiIA/ckYZ6R0c2BB4SnNVoHqx+MJldBX8JuEPlJ63RMR3trnhTUD3vQIcLiG7M+bPN11Pcxawvf6DArtFAAwR4TNaiCxf4lsKkkzOhvp9gIU5+ELd2uZmLIABJLEnYnSmlSwpT3M1qCC557EAxADiOWShEt6a+OuCGuCbwglwHMv9TVJIsFkYWtzOhDC93ofCu0TgGrg61oI3FMbk9KtMkTXk23APfgNrJGSClkoCwCdw0Xp7pPoQV6ga61Jn8ojpbLm9ZvvSN9oVAuQH7gKXIt5ETT3pgSREaRel6EdUTjOhkK7BCB/BVDaxZyGmnf50iWyoQvoYR6M5IjdTFZOA5QFgHxwC8m9ZRuSKTxgK9LRx7ol0W8xL7wbZQjz2oc2EnV3yosdRBNbivcoE0jtD3qY1ZbvhTsHqwSg+0j6OTzxe7s2+AxxaOtYjTzjn7JU85PD4wVayCtmPNm1hJ9RFIA9hL6sJr0aaTKMrYBPtdTXI4u3rq9cXIQ/+d6S9n8DS3lEuCdyC8xA6oZyOnCb/PSg0ELv4Hyhn4eszVa6kFBfH8DYui4nxQqhc4mSLoZuA5uTrbmWGxNFAZjOV46Wj2JDpiAQAKo/CpHqxrt4yH6npvDd50vXD3leLAK1BeeJOqSmoR5mkW8ynmztdw+/9KL0wt5SILuO9N5EC8nt4aWB6hNTFAD+QOnZK09gqIwA/EOmJiWH1flKWQvIEfyrZZBci/U/DReu4V32FqsaqdC0H+JBjt94sLFdAB6w290E8n5ooUD2LHkBt6OFVKnQp4bqxJQEILgVX5lLnsDfqgIgdYaZ561rLf+Z4g10FUK+ZJwnSFDmmXoK63uQ8rf1MIv89uw4Bcig6yeCb+EKUqWYfpVk2M0GywK2ABfU7GCUBGAhIaNgfzZfTQCySxkwVvBWKpzP+UebzSlhxUfslzRfJqjMSIon62EWOX+/AoW2CsBrF0XLf5mvq6VoAErcnu9B4ctAOm7tOMW9oJIAkGeeqkCAnOflBGCsVK9h3so3wmSxw9tEzQlgz9uMCHTbT6tiyUZ6mx5mkbuUN6QWw3IBGD12o4RPOLkHLqVI9wAhA/r0YNYcbHt9heBXSgJAXFY/k+/PHVUTAEl91CWPZkSoLu7+idj+PvxiyEXkZh28WkRIVYRSqwSAjVN16Xq776UjT5KjSE5FutR8pRiUhgminkSVXy9HQEkAiJliOoUZqAqA1Cbujnb+ezwa7nG+xZSjv9Ny4mxRS0cArj8IJVTaWKYIWrxsXnj4xxU/Dv91477q8m9nEglR+QDzC5kscydyZ5VwFdeekiagJABEm6vkUqEqAC9LdPpGjwDc4dQxvgxtH0pXlZ5F1W0HCGgYIlxT220CBSBmlMrGjDfJZFnjwIwzhcsYV1tSo6IkAEQlqnSIUhWAHyU6DdEjAJpyh4+gV6eeZ0kpvS8rrp1X7UgnvGNLaQEgluA1FJvdIZMV2gWNEynMWx2UIKAkANn4OglXBQJDAtBRB/9Hc5qwktrB0S8WNfLXoQokSW5CsTSlBYAYy89RbDaePOHrwqqMg2oJ17K3+EuoJADD+Lp/OXkYEoBnPdpxTOOK/UG2/PnIkZrqgndoZlVPYp7LXKaktAAQK/Gtis2qkyfMJK5sNuOYYDFnirwtlASA6NuV1CiGBGAZX9kvXBU7ta4xvYCeQsrI1X7MeK1kGhEyTLymlBYA8uvrrdiM7ljzS1XHLivHZuupJGyhJAC8UY/nI4UZGBIA0inc0GpKowN5SmowTI/fmoOKFCZdGCuWlBYATYvPcd+T2crFuN2fBQPrBwgNqJQEoDxfN5aTxy4jArCer/zY0GpKYwQxX6RunQfJk6/VSGURUVG8w5SntACQyKbKxky8ya2SvmzRIDAiLyOoVBKArwlxhVM0saHVIwCH+MruhlZTBuRioCUp6kmuRuM0ugYRFazg45vSArCB7zBc0RWfmISsUmp1MxuVAMFmUUkAaFjGa/K0iaG2HgEI5rW3DzgLQRxYJ0uUeRpoohFMdGhBrBlzSgvASDLxIgqtYonTtbIBYPO9hNwRtkZJAK6QTgflSateB0sJALnpGa2erEc7yJBgAEbPG300RZaiTgEP2YqUFoCV5KK3kkIrugfsr0yuC1EsnWErFK+Dye5BwR6ARCHQJQC8zadniKHllAbZN0E0sEB6EPpJA4lAcvryvMrWpLQAcORVlEOh0Q98o7izKuRoFDLWdE7RIIRoUhNlD1GLyFWcLgHg7QHgc20exL4Otc/kW+qJmaJOoj1pLfw4pbgAjCJTOSXbpgu5+S+jSo9clxRjijtJy0Uy6CZANiQHtUnSJQD7ea3Nauu+ASPIXvcLKM1IXRPbqCqVB1Mbo46CqhQXAGIT5yks24bY7Hkqq9Ijx1s2WiqxKJGy+chI1uOuTGineKqA1SUA1Pb+MmcVyJE4jnlf1SAzFPmaip6GOsJ/JaxLcQGgrAmSu8vNSPRcow+pkiOe1aeZ4nN8sWScdXIhLHcpWZ+urj4B+JWvXiIdEMoAyEaXdVGJpp91z6fKFEigLk8fkT9KygtALjKbVTIRcVKTFjnVyRGtDmskRiz/Je3z6xI9YoykC14x0DDoE4Aw0rOgoQUVg2gXBeG9uPXUBiOqoxIFGrOd8QtORsoLwIC+ck/EPzE5KETcVCeXjW/MXq8T3y7p3RgNsfKahG3iJBpZVa8AcC1Jx3qGVlSInqXJG1PobEidxD1Ry+QpbKXN2oo1XykvAFwBMp+gFyWqr9BUMxqMnon9sOAYWImnESqpcKpGbbeWFBNW1oFIJLoF4BBxKotRCHbGYvIg2dxmI2hQvDeFdfHgQhDwl4xWc8Rc2qi0xGfJAQGIJT9az2hxnPOm9AVxjDWaqi7lbHNE5o1LFSXSORM/ocvSpwYrIwch2ZF+AYDoR0GVtAUebT7cs/pX6S3DCbpWEeIgh3cwzl45ychqx8GKrq/UC9UBAeDqUM/LgBmCNepFr3giBFkw0k0Ti8s8clku8MSgwReX7OckEFgW1u59muM4tqN3x0zcUPQKQPQOSvj6/ySbrGCdvZK0o5HdO4gM6Rb9CXsRqe1qHcwJdWmQyM+pzmSIglnoigQFRwQAPgIeTzZUB+yfCN6RgjN6qseLMXs5Ywg84AWymdsheAMG08/4SXJAxE3neMamoOt3v36RqUiHXCXPeAsOE/M+vQLA1YFryri9rwokPP6ZLKUFcR34Tfrdkgfh0NqlSQO0fFklmXZrIZMYLl+DgSBEixrNwiCoS6U3VEQAthdUgtzTGhMAJtuV5/kWybGbMs7vjpE52gn6JJtBjS5b6XjyzzW+yEUadSlI5Ir1A5CanfO5ramP3GrFnBSvCII8MRjzM/EeEcSjUBcAbgiTy7NVufod1mRYGVa9aZFly3OuTX77MbacuOVsdb176q/Dz3fOuiOCmVBfGY3/zbzsxFdva5h53OmRjdblvM6mE384QZrAJo8m/GatAAS3Y8m/Nqzs9U5szN4GwXJDeWJCy5Q9NzsSW4tVIXWCxE/xiGlR95hHDrUyUfehd3ULADc/yqMCPJxqMSWWfn0/QVg5Dd09UX/K3Xw7IwAc95xyquSAX4UduijFXuwnYYdeQdxM4I64J5sMubTFwH/sFbaTFgHgjnb1KAMDO2z1qOIdBR+24KujVfs/lPfDc0oAuPmtFIY7tkvUXsnesrCUMrznUlE7YdSW6EqSiZdvPwldRgRAkLNTkwBwg7MpryfmBinoUUFcBWUfkp/fVe5fapdCZ8cEgMuQTm6wiAYSx2L57OpRy6Vfb4v7CltmEbW51l30pdjcOKkmN/+3IBanNgHgoisrCbgnDjfs495XXPvNqlfLwS+2ke0dUGGKYl/nBIDjTn8mNVREd+kwcP/7LUiqeVBhWbOewTsEbaWsgKuN6gQtanX/1itNp/iiimx7jQLAcc0uTvXIYGo7wfHw6EeyH7jrj7R4fwWPWxsk3T9mbo38ShScFACOq3pE+DvJ8Zx8apU8c8rGCJr3fUEpaGDgnO1Ma5mIOot3Dr1d9sHa2j+V2EcvcUkaD8F3Q7MAPD64/t1P/HkOKJOliYRGa0TxD3MIH84T9/6ouqqj8Kg+aFWARxpT+/1VVe7K2KQAmEbzIV9/1SkieZohk39Uy5mycteB8mU6jXncIfLM9Z/a51YjH7jg31J5H/+68qW9Xr59U7XWCBIK+nc9vYTo8kz9rOcKJf28W5/ccfviwSkKn/Mup2oUfLd01yc/5Vbbr383aJneTHt3vh9Vs5NMRPXI5y92bKaTXoohOqz6tUM6gp6yKh116HChJSA3LUUMdBZBkx8gma6+pxNiRPUVP86SPogeqz1jpGZPkv84+JhqQboE02ewaNNtuVgF2/dWumZ+gKcdsbyWXU8uP99Cl2fn3pORAV0fw/8myCHgH6dnYgaB+96WUnjriSvyX8UW7Zt930bg0ZZ3hQJw1elJ+T5SkeOp9lyOPovgTA3fRzVanLsFUMXX/GJpTcvn6xhfpSD5GKwyT+5pRx2yg17n9FSsQ2Cmf3ckqQt/NU/rKUcqopy/NME8NV9Cs9/nvha03zydpwHNZH0OUtHATFb6+fsIYt0zYDIOXBolnU5mcQjhf6swnURd+A+uezz3Cu4TaYlT1QcNmql7ABc+Da9DQegP/cE+L9XrP+Ad7kfGybvwdVD3X0+3sTNvhId//fbcYeyF7NouTk/ShX2QSMwhwGcZzY/iwldxKECN/3Pd3//TjKOJyuzvao1rpwufRZ03Fd4BiT+5ZhNPP67dkPEM6faepsBbLvwewetnPCzEMj/og3anteQldPHUYMLR9hc7fzSrbLnCH36d69Qi8wRduHDhwoULFy5cuHDhwoULFy6eGvwfYJtHYgdvRCkAAAAASUVORK5CYII=;" parent="1" vertex="1">
                    <mxGeometry x="1211" y="830" width="82" height="82" as="geometry"/>
                </mxCell>
                <mxCell id="89" value="" style="shape=image;imageAspect=0;aspect=fixed;verticalLabelPosition=bottom;verticalAlign=top;image=data:image/png,iVBORw0KGgoAAAANSUhEUgAAAgAAAAIACAYAAAD0eNT6AABCoklEQVR42u3deZgU1dk+/vupru5Z2EG2GYZFUFQYRFkHjYA7yqqC0SQm8ZfoG79G8/omIiZvMllcMNFEjWverMbEMOwguMLgggugMohL3ICBYYfZl+7qen5/gKiRZaanqk9X9/25rly5hJlT9ylmup8+VfUcgIiIiIiIiIiIiIiIiIiIiIiIiIiIiIiIiIiIiIiIiIiIiIiIiIiIiIiIiIiIiIiIiIiIiIiIiIiIiIiIiIiIiIiIiIiIiIiIiIiIiIiIiIiIiIiIiIiIiIiIiIiIiIiIiIiIiIiIiIiIiIiIiIiIiIiIiIiIiIiIiIiIiIiIiIiIiIiIiIiIiIiIiIiIiIiIiIiIiIiIiIiIiIiIiIiIiIiIiIiIiIiIiIiIiIiIiIiIiIiIiIiIiIiIiIiIiIiIiIiIiIiIiIiIiIiIiIiIiIiIiIiIiIiIiIiIiIiIiIiIiIiIiIiIiIiIiIiIiIiIiIiIiIiIiIiIiIiIiIiIiIiIiIiIiIiIiIiIiIiIiIiIiIiIiIiIiIiIiIiIiIiIiIiIiIiIiIiIiIiIiIiIiIiIiIiIiIiIiIiIiIiIiIiIiIiIiIiIiIiIiIiIiIiIiIiIiIiIiIiIiIiIiIiIiIiIiIiIiIiIiIiIiIiIiIiIiIiIiIiIiIiIiIiIiIiIiIiIiIiIiIiIiIiIiIiIiIiIiIiIiIiIiIiIiIiIiIiIiIiIiIiIiIiIiIiIiIiIiIiIiIiIiIiIiIiIiIiIiIiIiIiIiIiIiIiIiIiIiIiIiIiIiIiIiIiIiIiIiIiIiIiIiIiIiIiIiIiIiIiIiIiIiIiIiIiIiIiIiCi1iOkARJRcE5ZNyAo1Zp8konkAOrpAR4i2BwCo7LeAOFT2xEU325b70eIpi2tMZyYi77EAIEpzkxZPGgTXOh8qZyowGMDxAOwWDLEbwBsAXhKVF7Md+/WSGSUNpudFn+l3287ujuX2tqC9Xbi9BRIBAFjoBEW9AHtdxT6xdJflhj7aNKvnJtOZyTwWAETpRiEXL5pyprjWVQAmQDTf4yPUK7AUKv+qq+qwrPTbf2k0PeVM0uue8hw0hcZa0NEQjAYwCkDHFg5TDeBtBd6EyHO5CD///syuXOnJMCwAiNLE5EWTu7uudTWAbwM4IUmHrYboX2yV3y6ctnCT6XOQrgbO3t2u3o1OFJFLAJ0AoI23R5CYqLsalsyVSPTvm/67X6XpOZP/WAAQBdyEOdO7WrZzs4heByDXUAwHwDxX9LZlUxdtMH1O0kWvu8pPsOLW9RB8C0D7JB22HsAc13Uf3nprwWumzwH5hwUAUUBNWjIpFzH7xyp6Izz/RJiwuKr8n+vY/7t8Rslu02GCquC2HYPFit8GwUQAlsEoT0Plx1tm5a0zfU7IeywAiALo4oVTzrVUHlagv+ksR1Apoj9eMmXRQxCo6TBBkferbQW2jV8A+AaAkOk8Bykg8yRk3bz5Rz0+MR2GvMMCgChAJi2ZlKsx+/cQ/RaC8fu7zLLcqxdPWbzTdJCUpiq979z+XYjeDaCt6ThH0ADFz7c05f0axeKaDkOtF4QXECICMGHB1P4hlfkQHWI6SwvtUtGvPTl10XOmg6Sifr+p6BN39E8AzjadpZlesNT6Jh8lDD4WAEQBcNH8aRdaov8A0Ml0lkQIEIPodUumLvo/01lSScEdFeeL6BMI3r/rXohevmVmr+dNB6HEmby5hIiaYeLCKZeHRBcjeG8ShygQVpU/TFw45Q4oP3gAQO87Kq4RwVIE89+1C1Se6n3Htpmmg1Di+ItIlMImzp/2NYj+BS3r3Jfqfr902sLvmw5hjKoU3FlxnwiuNx3FCwK9ffMtvX5sOge1HFcAiFLUxIVTroLoY0ivN38AuH7S/Gm3mQ5hRJq9+QOAQm4tuHPbr03noJbjCgBRCpo0f9pYFX0GQMR0Ft+o3Lz0kgUZ9cbR+45t90Jwg+kcflDIr8pvyftf0zmo+VgAEKWYCQum9g8BrwDoajqLz1wBJi6ZtnC56SDJ0OfObT9UIK0LHlH57uZZebzRMyBYABClkAnLJmTZTVlrFCg0nSVJ9qsbGv7kpfM+Nh3ET71nbzsPiuVIneY+fokq5LzyW/JeMB2Ejo33ABClkFBT1uwMevMHgE5ixecMe+SasOkgful1R/kAKP6F9H/zB4CIQOf0u21nd9NB6NhYABCliMnzp50HpOf14WMY1qP7zptMh/BFsVoWrD8hmI/6Jap73HIeNR2Cjo0FAFEKmD5nesQVfRAZellOVH42edHkAaZzeK1PTsV1EHzFdI6kE0zuM7via6Zj0NGxACBKAQ3h2A8AmHwDrAOwH0Dc0PFz4q71oMH5e+74Oyt6q+IO0zlMUdX78n5TcZzpHHRkLACIDJs2f1o3AMlspPIxgN8LcJmrMnD7rm6RpdMWtl06bWHnpdMW2vFYuJuKniGiNwFYDiCajFACnDdp/rSg9MM/JkfxC5jd2CcKoN7g8TvbjssGQSksI5cbiVLJxAVT7wbg9zVwF6JzxLUeWDJtwcst2aL34qUXd0IsfLUANwIo8Dnni0unLTzL52P4rs/sipNVdQOSdOOfAutFdZmovqQSea9r5/LyddcOjwHAgPs+yGqsyy4QyzpFgDOhciGgybrRtElCoZO5jXBqYgFAZNC5c6Z3yA7HtgBo79cxRGWlZbnXL5q66J3WjDPuz9/KbtNp/42i8r8A2vh5WpZOWxjoTWZ6z66YA9XpPh+mQSB/ERf3bbo1772WfGOvO8sLBda1Avx/ALJ9Tan62JZZva7y+VxQAlgAEBk0aeGUH6qKX81holC5aem0BQ+25BP/sUyce+kJGor/Q4DhPuVetnTawot9Gtt3BXdt6S9u6AP4+fqq+ljcwq3bZvba2qqss7fkiRu6CwIfb9iTmMSjfTb/uO92/45BieA9AESGFBcXW6ri16Y4laJyztJLFjzg5Zs/ACy9bN4HubHwWVCZ61P2CyYumZjv09i+s1zravj35r8HwOQts3pd1do3fwAon9m7Ysus/K/D0kk4cBOoDzSsVvhan84HtQILACJD1g1ZPwZAbx+GrrQs9+wllyx4ya/sJTNKGnIc+6sA/uXD8CGNh77pV3ZfFautEL+yv6tWfPSWW/KXeD3wlpt7LVUrPgKQj3xJLnLNoOKN6buvRUCxACAyRXSG50MCMRWdvnjK4jf9jl8yoyS+fVe3b4iK521fReVbfuf3Q+/cbRcC8GP14p1wKDSu/Obe/rxBAyi/ufdHKs5ZAD7wfnTtWZXVKW2e8EgXLACIDCguLrYAXOb1uAr84smpi55L1jzWXftoLO7YlwPY5fHQJ0yad8npyZqHV0TlSh+G3eE4uPCjH/Xw+hx/SfnM3hWu5V4MYJ/XY1uWO83v/NQyLACIDFg7ZH2hAj09HvaNnFg46Y1nls0o2aEqN3o+sOilyZ5La+QVV+SqYpLHw8YBmV7xk/zyZM1j680FH4jKdzwfWGUyipXvOSmE/xhEJoj60R72f0pmlBjp5PfkJQueALDayzE1YAVAKEsnwePGPwr8dssteb7dy3Ekm2flLYB4fn9Hj4KsHcOSPRc6MhYARGac6fF4Ly2dtrDU5IRU9BceDznw4vnTBpucU0tYgq96POSOxsbwz03NJxSSmQAavRxTxB1taj70ZSwAiAxQYJSn46ncZ3pOT05Z9AwOtBn2jARkFeD4Oz/qoMCFng4qcsfu4m61pub0yQ/zNivwuLej6khT86EvYwFAlGQTlk3IEm8f/6vNdeylpucFgYrHbxgCBKIAiGnWNHjbUa8mB+E/m56XZYmnGzQJhAVACmEBQJRkdn1uP3j7u7eyZEZJg+l5AQBUnvF0OKDwovnTTjQ9rWMREa+X/+e9P7Nrjel5bb457w0vewMo0B/FapueFx3AAoAoyVzR/l6Op6Ivm57Tpyp2d30NHu8eaKX4ZYAet2/vCuAcL8cUlcWm5/VZFn3aw+FCeXaF10+/UIJYABAlm2h3T4cDWrXJj5fWXftoTIEPPR42pQuAsBW/DICnn2qbVJJ+5/+RqKWvezle2PZ9R0lqJhYAREkmormeDuhaW0zP6QvzA7x+Zv30qQum9jU9ryPP1/Pl/207bu252/S8Ds1PxdPOgCqaZ3pOdAALAKIkU1FPt9KNixq7U/yw8wOqPB5SYim6CpA/e2svePxIp3pfQLWKZcs2L8cTtbgnQIpgAUCUZKKS4+V4WYCR5j/JlKpPA1iKGfD4dVQUe0zP6/PUtZs8HU8QMj0nOoAFAFGSiYqnzVUclQ6m5/R5lscrHAeNTsUtggWeN/9JOU60ydM3bHVdFgApggUAUZK5ot4ukVtuSr0xqmv5cZOXqGNfYnpun1dw15b+gIzwfqbiRwGVMDsiXb0cz7KsmOk50QEsAIiSTFSqvRxPVU42PadPjVs5zoboAD/GTrnLAGr58ulfoKlV0MWtfp6OB/V9V0NqHhYAREnmAnu9HE9UzjA9p0/lVrcfCsDbpxw+c+bkRZM9fYSyNfxa/ldIv173lHt6n0hruMBpXo5niabMEw6ZjgUAUZKpqKePVUF0/LBHrgmbnhcAhOKhC/wcXlWmmp4jABTctmMwVHzaqEjDVjSUMrvmieh4L8eLq8sVgBTBAoAoydrGwpsg6uWNgB3zuu6+yPS8AACil/s5vKuSEpcBLMv1+eY/vdj0HAEg7zcVxwEo8nDI6vKbC7abnhcdwAKAKMlKZpTEoeJttzzL/a7peV28cMpXFCj08xgWMG7a/GldTM9VfS50AJ2BYjX++mw7egXg4WN7ivUQUdPzogOM/4ARZSSVNzwdTuWiSfMuOd3klCzgVr+PoUA4ZrmTTc6z4I7tIwD4cqPjZ+T43tkVZlcBVAUQTwtLBdYbnRN9AQsAIgMUWOHxkKKWezcUYmI+kxZMnaAqFybjWKafBrBEk/Xs/08PvAmbUXDX9imAeryio+tMzYe+jAUAkQG25XpdAADAuIkLpn0n2XOZumBqRwUeTtbxVOXcc+dMN9P8qFgthc5I0tGGF9y57Zsmpjngvg+yRPUOj4dVWK6n20VT67AAIDJg0dRF5QC8fRoAAETvTealgOLiYstR+ROA3sk6JoCsbNuZmMTjHVKQvf1MAL2SdTwR+W3er7Ylffe8WH3OTwGc5PGwb5bP7F2R7LnQkbEAIDJniQ9j5qjlLpm8aLLP16gPWHvqW/dAdFoyjvUfjFwGEMEVST5kR9vGwu6/3pG07oC9Z287TyEzvR5XVZ5M1hyoeVgAEBmiovN8GjrPda0VF8+f5tNz6gc++U9cMPV+ADf6dYyjEr3w/KfPT27L3GK1RdVE4XF6JO6U9C3+JNvvA/WaXT4Sirnw8s7/T1lY7Hd+ahkWAESGjHjrtFeh3m61+jkFIvryxIVTLvN64ElLJh239tS3lgG43t8zdFQ54bo2Se19UJC9/RwFPO2L31wCmeBmZy3Lv32rb49A9rpr+1hLracAtPdh+A/LZ+at9e8MUSJYABAZUlxc7EJ0gY+HaA+VkokLpj7uyU56Cpm0YOoV6oQ2AvCz41+ziCT307ggaXf/H4GOD1myts+d28Z4O6xKnzu3/T/LdZ8B0MmP5KLyr2ScIWoZY4+YEBEwccHUcQBWJuFQdQAesYH7F05buKkl3zh9zvRIve1MEdFZ8LgvfCvV5sTC3UpmlDT4faAB932QFa1vsxPQVNh62RXII4hHf7n5x31b1VWv9+3bT4Hl3gvgXF8Dwx2y9ZaCDUk9S3RMLACIDJo+Z3qoIRyrANAtSYd0AayGymIAL0Xb1JU9c8EzdZ//guLiYmtN4Ya+lhUfrqLn4kD/fSNL38ciKlOXXLJgkd/HKZhdMVXU19WaRDQA+jdX9E9bZxa83qL53LF9hCD+fYhcAcD2OefGLbfk+3Y/CiWOBQCRYZMWTH1EgWsMRtiJAysETQDaQrQrVHy/4cwjjy2dtvAqvw/Se/a2J6Dwuf1vq3yiiicBrIYb2hAO1ZV/fEv/KgDIK67IDeegj8IdJGoVKXQSgBOSFUxEf7p5Zq9fmj5B9GUsAIgMm7Rg6vkKPG06R0BV5sTC3UtmlET9OkD3X+9okxWP7wSQ3KcO0oRruSduvbnA+54X1Gq8CZDIsIpd3VYC2Gc6R0B1bAzHzvHzANlxdwr45p+odXzzT10sAIgMW3ftozEFn5FOlOtzUyA1fvd/cImCd/+nMBYARCnAUvGrKVDaE2DquJXjfLmRre9vP+kI4HzTcwwoFVglpkPQkbEAIEoBTnbjswJUmc4RUF3aVnYc68fAGo1cCiDL9AQDSbB606yem0zHoCNjAUCUApZftLxJAfZKT5BfWwSrgsv/ieLyf8pjAUCUIpSXARKmwCXT50z3tH99j9u3dwUwzvTcAspVifPnOcWxACBKEVbYeQoHnsenluteH4l62iI3K+ReDv+b5KSrUm79m/pYABCliCWTltRDZbnpHEElKp5eBlBw+T9h7P0fCCwAiFKIAlw2TZTKZVBvmpvl/WpbARTebrqTMSQWV5c/xwHA5S0yTp87qUs0YueH4ujtWuguKl0gB1/IXY2LZe1G3N3j2qHdYXE/kK9s2G86s19yHXtpQzjWACDHdJbAEc2/aNGUkcuw6LXWDhUO4avKTqmJETy77dZee03HoGNjAUBJpRsHRZzdMhaQIkCHAzLcAXpaLqACiH76hQf/XwSqClgCcV04AKKlhVsEUgboG1DrWXv3ia/IjJK46bl5oWRGSe3E+dOehehk01mCyDrwNECrCwAVLv8nTF0u/wcECwDyna4dlhuvi051FVOc3bgQQPsDf5PYBywBegPaG8BEiPtTp9t7+6MrhzxjWe6cUJusJTJ8Xcz0nFvFcudBhQVAAlRlOhQzIYdKyBYruGtLf7g43fRcAqrRRpPvuzOSN3gPAPmm8cVTT4ytKvytUxvdporHBZiBQ2/+nuokoperyjynNrolVjrk9oZVQ/qZnn+i7ANb9fq2uU06E6Dv5MWTh7ZqDDf0NdPzCCoFln+6CyGlPhYA5LmmFacOipUWLgrF3feg+AGAjkk8fA9AZ9mq/3ZKB/9BXxrU2/T5aKmF0xZWiugK0zmCKt76pwFSedvf1MbmP4HCAoA8o6sGFzilhX+2LHc9gMkwexOVrZDvOI7179jKwb/TlUM7mj4/LcS7qBMkKtMT/d5+d249FcAppucQUPVRO7TUdAhqPhYA1GqqkOiqwmsclY0KfAuApx3ZWikLIjc6En/XKR08zXSYZgu5CwE4pmME1ImTFk8alMg3xiG8+S9BIli080c92MgqQFgAUKs0rBza13mh8FlRPAKgnek8R9FDIfOjpYWP6epBnU2HOZYlk5bsAfCC6RxBpfHQZYl9Z+KrB5nO5fJ/4LAAoITFVhWeZUv8dSjOMZ2luQT4eixqvRVbUejL7nGeZhXlZYAEJbI5UN/ZW0cD2t909oCqDjVGnzYdglqGBQAlJLqq8BoongPQ1XSWlhKgABZWxEqH3Ktrh4VN5zlizgMFQFr0N0g2BQonL5o8sCXf43Lnv9aYv6m4X6PpENQyLACoRVQhTmnhfQeX/FP2zbMZLEBvcGqjpQ0rh/Y1HeZwFk9ZvBPAK6ZzBJXrWpc0+4uL1QIkwcsG5LL3fyCxAKBmU4XEVxXeq8D3TWfx0Bhb4uudVYUp+ew39wZolWZfBuiTs20sgHzTgQNqT/fOFc+bDkEtxwKAmkUVEn+h8L40e/P/VHtV/N0pLfyjPj2kjekwn+e61lwg8a52GW7YxfMuPb45X8id/1pBZO66a4cHu/tmhmIBQM3ivDDkVlVcbzqHnxS4Op6lG6Irh4w2neVTyy+dvxXAGtM5AsuKH/PRz2GPrA3D462EM4nlxrn8H1AsAOiYYitOvQCqPzedIxkU6CeiL8RWDilWTZnfD14GSFBzngbYs7f7eQC6mM4aTLJ9U/9eL5pOQYlJlRc4SlFNqwafDMudg9Rq7uO3MER/5rwweJk+N7i76TASipeYzhBgo6csnFJwtC9QYfOfxLlzMEP4pEpAsQCgI9KV42wL8hj82cAn9alc4NiywVkx+GKTMZZMXvIJgLdMn46AEkdl6pH+sm/xJ9kQizsvJkhcNv8JMhYAdESOtfd/oBhmOodhXdWSJbHSIffqsgFZBnPwMkCCjnYZQLOyLga0g+mMQaTAls2z8l81nYMSxwKADqtx1dAToPiZ6RwpQgC9wcnNWdu0cshgEwFclTmmT0KAfeWiOdN7HO4vVHj3f6JE8E+I8AmVAGMBQIcVUvceADlJPmwUwHuArAR0CYDFAFYD2Gr6fBw02BJ9Nbpq8NXJPvCySxb8W4F3TJ+AgLJCkeiU//zDgbN3twPU6OWdIOPyf/DZpgNQ6om+cOpIuO7EJB3ubYjO1bj1VLh7/E0ZtDF6uC/S1YM6x5ussyC4SIHpADoaOj1tROWP0dLCC8IaulbGv1WZtCOLzoXKTw3NO9DcA4/5PfL5P2vQ2BQkv8hNF+9vnpX/pukQ1DpcAaAvEdctTsJhnoVgbHjchsLw2Ld/Hjm77LUjvfkDgIzZuM8ev2GhPW7DNXakbZ4C1yiwydg5AmbExH0rtmLQGck6ZoibAyVMgPGTlkw67j/+mMv/iVI8YToCtR4LAPqCaOmgEQAm+HiIrSK4ODxuw/nhsRsS2u5WxrzSEBm34Q/hru5AiPwEgJFNSATaB5ZVGist/KnOme77Y5KLpywuA/C+ibmmAVvj1qRP/6P3HZs7AXqe6VCBpRbvSUkDLADoCyzINf6NLkttDRXaYzcs82S0QRuj4bFlt7muNRzm3hhtAD93ur23QlcNLmj1aMectC4wNM/A+8LTABK+DEDEdKYgEkXZllt78n6UNMACgA7RlYPaKuRyP8YW6EP2roFT/bhmnnX2+o12dsNICFb5fpKO7CxHZb2zYoivLWVdXgZImKqce+6c6Qcf+VMu/yfIFe78ly5YANAhMbGmA2jn9bii8sfQ2Lf/n8wo8a1jmIz+sNpuE7nIcBHQSS2d65QWPqJrh+X6cYBlUxavBfCJwTkGWVa27Uzse9euHgDGmg4TVKpxLv+nCRYAdIgAPuyHri+F2oW/J+L/jnYyfF29HXYvAfQDv4911BkD1zi10bXRFYNO9ekQvAyQuEtddWYgs1pbe0he3zqr4EPTKcgbLAAIAHCwy53Xn4qqbLWukOHrkrZVqIzZuE9duQKA6e1JTxbLejVaOvgGVYiXAysvAyRO9EIR90rTMYJK4XL5P42wACAAgNMm9wwAbbwcU1VvkfFlSW/iEzl7wzoI7k72cQ8jWyD3Oi8ULtEXTuvq1aBPTln0ClKnOVKgxGKdc9SVkaZzBJSGYc01HYK8wwKADlD3HI8H/CC8++Q/mJqOHY3cCegeU8f/4qnAxY7rrI+tLDzXk/EOXE5ZaHpaQVRZPRyAtysyGUPx0se35G0xHYO8wwKADpKhXo6mgtl+3vR3zNmct64KkIdMHf8wekLwdKy0cLZuHOTF42e8DJCA/TWZvrdV4kTY+jfdsAAgAIAChR4OVxt21fiLhR23HgHgms7xORaAm53d1suNKwcNaM1AObHwiwB2mZ5QkDRFu6OxqZfpGEEVt+I2l//TDAsAgr5Y2EkAz5rYKLBMxm+sNT0vOWf9NgCpuF3p8JBYbzirhlyV6AAlM0riwssALXJw+Z8Ss+KTH3ffaToEeYsFACGm0s/TAQXPm57TZ1n0GdMRjqCdqv41Wlr4uL46oH2CY/AyQAtU1pxuOkJgcfk/PbEAIIi6x7V+lM+JY53pOR2aG2SN6QxHz4cr4405b0ZXDhnd0u+t2NVtJYB9pucQBA2NBWiK9jAdI6AkFg+77D2RhlgAEEStLl6OF47Je6bn9CkHIaNNgZpDgeNF9MVY6ZBbVZv/O7nu2kdjCiw2nT8IKnnzX+JUn956UwELzTTEAoDginb2cLh6uaCszvScPpXV6FaYztBMNqC3OauGPKfPn5rf3G+yVHgZ4JgEVVz+Txx7/6ctFgAEuJ4+F2385r8viHRuMh2hZXS8E3LXOysKpzTnq53sxmcBVJtOncrqG/ohGvN0kSuTNEYas7jKlKZYABBgedo2N7W2WO22O4g/413UwkKndPADuroo52hfuPyi5U0AlpoOnMr47H9ryNIPi7uwwExTQXxxJM+p4+Fg7XTtsLDpGR2yw/asBW+yKeQ6J1q77libCikvAxyRQlBdc5rpGMEl7P2fzlgAECzX8vKafaipqqm36Tl9yhGnr+kMrXSyWNYr0dIh1x3pC6yw8xSAlLnvIpXU1Z+ImNPBdIygqnHD+qTpEOQfFgAE1Xi5l+PZYg01PadDcxPxssOhKTkCfSC2qnChPnfSly5mL5m0pB4qy02HTEW8+78VFIu33lTQYDoG+YcFAMGOwNMCQC09w/ScPmONM53AM4opjh1eHysdNP7Lf8WmQF9mobpmqOkQwcXmP2mPBQABsa4VADy7D0CAZt3B7jfdOCgiouebzuGxfMB6LlY65PbP32uR69hLIdpoOlwqqa47BU7c0x2uM0llJLc+VbtokkdYABBkfKkDwLPmPQocH1s1eIzpecV3W1MAdDKdwwcWoLOcuuiLjS8WHg8AJTNKauFafMH+nMoq9v5PlALzPrzhhIA9QkstxQKAAAACeNoyVxXfNz0nhfkMPk9wVCiON51VhVcCACyXlwEOUrVRXT/YdIzAYu//zMACgAAArsc98wUyo+mFwUNMzSdWOvg8AF8xdfwkaq+Kx6Olg/86JVK1AkDUdKBUUF1bCDee0/qBMpAAu7c05K00nYP8xwKADnDjqz0e0bJc63eqnnYZbBbdOCgCyL3JPq5JArnq27l7V7aXeMpsxGTSfm79mzhFCYrFy94glKJYABAAIDx+Y5kCW7wdVcfHVg2+PtlzcXaHigGcnOzjmqbAgK/n7BtpOodprpuN2rpBpmMElsve/xmDBQABAESgFrDI83Ehv4mVDknaUryzsnAqoLck63ipZlSkNhQyHcKwqppT4WrqNKMMmIryxp4vmQ5BycECgA5RkYU+DBsBdEF05aChfuePlQ4ar4J/AMm/7JAq2ouLU8KZ3buFzX8SJ5AnUCyu6RyUHCwA6BB758BVAnziw9BdRKzn/VwJOPDJ31oCIOPv/BoTTq0NGZPJibdFTV3GXf3xTFziXP7PICwA6BCZURJX4GGfhu8M6HPRlUN+oOrdz51uHBSJrRz8KxXMA8CuLwBGheshoqZjGFFVMxR8WUuUfrz15l6ePg1EqY2/KfQFtkb+BMCvjnIREf2ts2rwK7GVp57Z2sFiKwvPdXZbayDyY/Bn+ZBOloOTQpnZw6Wyhnf/J0qAJzK2csxQfNGkL5Dx6/aIyF98PspIiPtirLTweWfV4Bm6bEBWc79TVxflOKsGXx4rHfwiBM8CMNZrIJUVRTLvMoDjtEd9fX/TMQIrHlIu/2eYjL1Zio5MXzi5p+PaHwLITdIh6wBdAZXVYsk7rmCrK1oJAJbjtrcgvVRQCMhoAOcmMVdg7XFtXFPVB5n0cW7P/rNRsetS0zGC6r0tt+Tz5okMY5sOQKlHznp3e6x08O8AuTVJh2wDyCQIJqkqRIFDj7KJlVFvYl45znIwwG7CB06zF1cCj3f/t4LgCdMRKPl4CYAOy45l3QVgh+kclLiiDHoaIBo7DvUNfUzHCCyBzDGdgZKPBQAdlpy3rkog15jOQYk7I4PuA6isHg5e0UzYm5tn5r1rOgQlHwsAOiJ7XNkSVTxuOgclppvloF+GPA1QVXO66QjBpdz5L1OxAKCjCsdjNypQbjoHJaYoUmc6gu+aot3R0JRvOkZQqQWLBUCGYgFARyXnvrcX6k4GkP7vJGkoEy4D7K8eYTpCYCnw2qZZPTeZzkFmsACgY4qM3/iWuPJNgDfkB02eFUOvUNR0DF9V8e7/hAl3/stoLACoWeyzy+ZB5H9N56CWGxNO38WbhsbeaIp2Mx0jqFw3Fi8xHYLMYQFAzRYeW3YbBBm71W5QpfN9AHz2P3EKeWHrTwq2mc5B5rAAoBYJj90wG8BM0zmo+fqGmpBnxUzH8IGgspp3/ydMXS7/ZzgWANRi4XEb7lLIdQDS8V0lLY1Ow1WAuobjEXM6m44RVE7EtuebDkFmsQCghETGlT0Etc4GsNN0Fjq2ojS8D+BA8x9K0PMf/ajHLtMhyCwWAJSw8Pj1LzkaGg3BOtNZ6OgG2I3oZjmmY3hGYaGqdqjpGIGlwuY/xAKAWiln/FubbLfLaKj8HIBrOg8d2ag0WgWorT8RjtPedIygimrYXWQ6BJnHAoBaTcaXOuHxZcVw5XwAFabz0OGNSaP7ALj83yrLt95UsM90CDKPBQB5Jnx22fO2ZQ+F4EnTWejLBoYa0dmKm47RaqohVNecajpGYCl7/9NBLADIU3LWm7vtszZMUpEfAMiMnWgCQkQxKg1aA9fUDULczTUdI6jqG5vCS0yHoNTAAoA8JwKNjC2711UZDuBt03noM+nwNABb/7bK0t3F3YJfBZInWACQb7LGl71tR9qOBOQ+01nogEF2AzoE+DKA60ZQXVtoOkZgsfc/fR4LAPKVjHmlITyu7EZx5TIA+03nyXQWgJEBXgWoritE3M0yHSOoauLh+HLTISh1sACgpLDPLptn2+5QQF8ynSXTFQX4PoCqai7/J04WbL2poMF0CkodLAAoaeTMjVtsPW78wZ4BwV2HDrjCUCPaBfAygBvPQXXdINMxAkvcOJf/6QtYAFBSHeoZoHougK2m82QiWxQjwvWmY7RYZe1QqNqmYwTV/rbR6udMh6DUwgKAjAiPf7vU1lChAnNMZ8lEo8PBuwxQVcOd/1ph7sbiQVHTISi1sAAgY2T8W5WRcRsuF5FvAgjeR9IAGxpuQK4Ep3OzE2+L2vqBpmMElyiX/+lLWACQcfbYsr+5ljsCQJnpLJkiDMWwAF0GqKw5Haoh0zGCaseWfvmlpkNQ6mEBQCkh66yN79haM+pgzwA1nScTBOlpAC7/t0oJZkjw7vok37EAoJQh4zc1hseV3SiKSwDsNZ0n3Z1u1yM7ALVWzOmA+voBpmMEl8ve/3R4LAAo5djjNyy0VYZCsMp0lnSWJYrTAnAZoKp6OBRiOkYwCcq3zMpbbToGpSYWAJSSZHzZVvusDWcf3FQoZjpPugrCZYBK9v5vjScgkvrLPGQECwBKWSJwI2PL7lXLOlOAj0znSUcjwvWIpPDTANHYcahv7G06RnC57P1PR8YCgFJe5Kz1r4eyG05X4B+ms6SbbHFxqt1oOsYRVVYPB7j8nyD5aMstPd8wnYJSFwsACgQZ/WF1ZNyGrx3sGZD669YBkspNgbj8nzgF/snlfzoaFgAUKPbYsr/FXRkO4E3TWdLFqEgd7BR8n2iK9kBjU57pGMEVt7j8T0fFAoACJ/vssvft+oYiKGYDSN0L2AHRRlwUhlLvMkBl1UjTEYLs3fIf93jbdAhKbSwAKJDkog+bwuM33ALohQC2m84TdKn4NEAlm/8kTKC8X4aOiQUABVp43NvP2mEZCmC56SxBNipSi1RqtFvf2AdNsa6mYwRW3GLvfzo2FgAUeHJG2S577IaLD/YM4I5nCWgvLk6xG0zHOKSqerjpCEG2buvNBR+YDkGpjwUApQURaGRs2b2qegagfPFLQFG4znQEAIBCuPzfCqJs/UvNwwKA0kpk/NtrbTs2TCGPmc4SNKMjdSnx1FhdwwDEnI6mYwSVCqwS0yEoGFgAUNqRM9+viYwru0qAGQAqTecJik6Wg4Ep8DRAVTWf/U+YYPWmWT03mY5BwcACgNKWPW5DiaOh0wBwM5RmGhMxexlANYSqmqGmT0NwcfmfWoAFAKW1nPFvbbK1y1io/BzsGXBMReE6o413a+sHwom3M30agspVic8zHYKCgwUApT0ZX+qEx5cVQ+Q8ABWm86Sy4ywH/Q3uDVDF1r+tUVo+szd/vqnZWABQxgiPLVthW/ZQQJaazpLKTD0NoGqjquZU09MPLuXOf9QyLAAoo8hZb+62x5ZNVsG1AFLnwfcUcqahroA1tYMRd3NMTz+gJBZXl8v/1CIsACjjHOgZsOFR17VGANhgOk+q6WY56BtqSvpxK2v57H/CBM9uu7XXXtMxKFhYAFDGyjp7/UY70nYUIPeZzpJqipL8NIDrZqG6drDpaQeXulz+pxZjAUAZTca80hAeV3ajiF4KYJ/pPKki2ZcBqmuHwHWzTE87qBptNC0yHYKChwUAEQB77Nvzbds9DcCLprOkgjwrhl6h5G2rwNa/iVNg+ce39K8ynYOChwUA0UFy5sYttnY5+2DPgLjpPKaNSdLTAHE3BzV1p5iebnCx+Q8liAUA0ed82jNAVc4U4BPTeUxK1n0AVTWnQdU2Pd2gqo/aIT7WSgnhb10GWjtsWLhnthwPxUkC6e4C7aDIFUUb09lSxe5ZQKi9LurwdecCu3f8ZNN5TOgbakKeFUOFG/b1OOz9nzgRLNr5ox6psY0jBQ4LgAxQMea0Pq5rj7dEx6vIaCiOh3vg316Bz1q/muwBm4LiNYJ9D4WRc7qFtlNikIjpRMk3OlKH+Y0dfRvfibdFbcMJpqcZWC6X/6kVWACkqZ1njjjecfQbsORKVZwocmCfdZjf7TVwGt4IIbpV0OEKB3aPzNpOoCjsbwFQVTMMqiHT0wyq6lBj9GnTISi4WACkEQWsbUUjLxXBDU5cz4CI8A3fG/FdFvY/EEbbCXHkFDkZs1rS325ENyuGXT5dBqisHm56ikE2f1NxP/P7N1NgsQBIA2uHDQv3zLK+XqGYKdCBfNP3hzqCmiU2oh9aaHdZDFZu+p9oATAqXI8lTR08Hzsa64S6hn6mpxhYLnv/UyvxKYCAqxgz4qyeEetNKP4EYKDpPJmg6V0L+34bQfSDzPj1GePT0wAHdv7LkKUU7+3p3rniedMhKNi4AhBQu0aM6BGzcbcqrjSdJRO5tYLKP0eQMyaOthNikDS+jD0w1IjOVhz7XG8nyeX/VhCZu+7a4THTMSjYMuMjTJrZesao8Y6NNwC++RulQMPLIVQ+GkF8f/p+khVRjPK4NXA0dhwamgpMTy2wLDfO5X9qNRYAAaLTp4e2jRlZLK77nAI9TeehA2JbLOy7L4LGN9N3GaDI466A+6tHmJ5SgMn2Tf17sWU1tRoLgID4YMKArG1bN82B6s/Af7eUo42C6jlh1JSEoclroZ80g+wGdLC8645cxd7/reD+CzMk41tVU+vxjSQAPhk3tGNuZadnBbjEdBY6uoY3Qth3fxacivS6JGABGOnRKkBjUz4am/JMTymwLGHzH/IGC4AUt3XkyC6RJnsVgK+YzkLNE98j2P9gFuqes4E06htU5NF9AJVs/ZswBbZsujn/NdM5KD2wAEhhFcOG5UpIFwEyxHQWahmNA3XP26j8WwRubXqsBhSGGtHOg8sAVbVc/k+UCP4JkfRvQEFJwQIgRa0dNizsRqy5AM4wnYUSF33fwr57I2h6P/i/arYoRoTrWzVGfWNfNEW7mp5KYInL5X/yTvBfldJUz0joHgEmmM5BrefWCqr+GkHN0jDUMZ2mdUaHW3cZgMv/rfL+5ln5b5oOQemDBUAKqhgz/FJArzedgzx0sGfA/ocjiO8J7iWBoeEG5EpiNzYohMv/raF4wnQESi8sAFLMjpEj+6nK/5nOQf5wtlnY9/sIGl8PZs+AMBTDErwMUF9/AmKxjqanEFxqzTEdgdILC4AUEw/pHwB0NJ2D/KNNguoFYVQ/HoHbELzVgESfBqjks/8JE0XZllt7vmM6B6UXFgApZFvR8CsAnGM6ByVH49sHVgNi5cEqAk6365Hdwi0nVUOoqhlqOnpgucKd/8h7LABSxN5Ro9oL5G6DERwA+w/+r8n0+cgU7j5B5SNZqF8VnJ4BWaI4rYWXAWrrToITb2c6emCpxrn8T57jboApojGkN0GT2N9fsV4tedJSvKCOvpO/Zk355/+6Ytiw45BlnQLFGS5wgRxoRMSC0QcaB2qfshH9wEK7GVGE2ptOdGxFkVq8EmvT7K+vrE3u3f+54R3om/VObQ9UrLec6IKyztlPd8x+vTwrt97ateecvBNq6ieErKxpO9F9SHn05LZ1Kd2ZUNdsnVXwoekUlH6CtfaYpnafcUa7qBvdBKCzn8cRIKaKv6st9/Z66fX1LfneijGn9VHX/h4E1wHgRzmfWG2AdpfFkHVSard6r1cL367qg6geuyZUtbHxozvhxnN8zWRJDCfkvtp4cuzN39130+xZzf2+6XOmh3rs6nPbu9bgGz+s/Uq262b7fwJbQFR/uHlWL5Org5SmWACkgG1Fw38EyF0+H+apuLjX91697qPWDLJ15MguYuudUFwNrgj4Q4CcIgdtJ8Qhduo2fbu9tifWxHKP+XXVtUOxadt3fc3SP/d1Z3zj6u/+9OZf/6U148x8+DtXve6e9cePq8fbmho/3q7joG/FT/LLWz8U0RexADBMx42zK5rqNgPwaw2yQQQ/yFu95lEvB902avh5sOTvALr5fpIylN3DRYcrHIS6pebNASua2uH++mP/82+u+A6qak7zJYMdqsdU6x+v3vM/PyvybFCFXPfwD0qfrf/2WU2x43zJ3QIvbbkln/uAkC9SosTNZNub6s6Ff2/+e13oOK/f/AEg/7W1z8LBcEDf9fcMZS5nh4V9D0TQuCY1ewaMjNTBPkZb+ribhZq6Qb4cv01kF651HviJp2/+ACDQB7/3u7Ezcu+5sUPOv33J3vwobP5D/mEBYJgC3/Bp6L2WhbEFr6x93a/s+WvWlEtUzwLA55N9olGgen5q9gxoKy4KQ41H/Zqa2iFw3Yjnx84N78Z1jY9ePXPW727za363fe+v910afmhax1xjNW7cittzTR2c0h8LAIN2n3FGOwBTfRi6SS1rYs+X12z0ew5569btgYMLAezw+1iZrPFtC/vviyD2SWr9yh6rKVBV7ameHzNkNeKa+J9/8f1bH/qz3/Mrvm7Owkusv16bk7XN70MdzopPftx9p4kDU2ZIrVeTDNPkxsYCOPZdVC2mP+z18muvJmse+WvWlKtlXQkgtW9dD7h4pWD/HyKoe85GC/vw+GZkuO4oLyIWautO8vyYV4Yfe+Omm+/9WbLmWHz9Y49enP2HpZaV3PYYosJn/8lXLAAMsoCzfRj2xbxX1j6Q7Ln0evm1lYA8lOzjZhwF6p63sf/RCOKV5i8JdLDiGGQ3HPbv6uoHIO56++jfCbnr4r/67+LhyZ7nPf/1h8mndFiczAogGs+Kz0/2PCmzsAAwSKHjPR7SDYleJ4Y+HzZG4z8BsNfEsTNNbJOF/fdmobHM/K9wUbjusH9eU3eyp8cRuJhcv+K/jfx8C3RwbNWkrEiyVuTl2a03FexL+jwpo5h/9chQe0eNag9giJdjCmR+j9Vr3zY1p/7r1lUpcK+p42catxGo/mcE1QvC0Ki5HKMitZDDPA3Q0FTg6XEG5ayJ3njL7+43Nc+7rl/w7Kltn65K0uF49z/5jgWAIdGQOxBen39RYy+OnwrZzsMCxEznyCSNr4ew78EInO1mfp07W3EMPMzTAA1N+Z4eZ3Tju8a3yR6A128KWYlth9wCDTkSXmR6rpT+WAAYoi5O9HjITT1Xr3nR9Lx6vvjmbgWeNp0j08R3Wtj/YBgNr4SMXAAaE/niZQDHaQ/H8W5Tg5xQJTasPeGG5M/si+787oI/d2u73uczrMven9m1xvRcKf2xADBFMNDL4RTytKlr/4dJ85TpBJlIHUHN4jCqHovArWv9eC0xKlz/hbaiTTFvG0QOimyoKymZYf4pE4H2D23c5esxFNz6l5KCBYAhKvD0AqmlavzT/6dc6AumM2Sypnct7PtdFqL/Tt6vdzcrhv72Z5cBHMfb/aIGxre8kbTJHEO+bl3u4/C1TpP1pOk5UmZgAWCIut7uqKeiKdONr7q68X0AjukcmcytFVT+NYLap21okj43f/5pACfe1tOx+9RUlyRnFsdW26biT5b4c5uLAosrivN8v8mACGABYIwIPH2FlKimzG5hgzZujAJgBzPTXKC+1EblIxG4+/zvGfD5+wC8LgA6x2qe8X0CzbSlE94Ohyt9GZu9/ymZWACY4+kKwP7GxmrTE/oiTbE8mStWbmHv/RE0rvf3172HFUPf0IFeOarebWBkWTFMf7/iQ1/Dt0BufW61+LMCsL9dYyVvoKWkYQFgjqc37EV6N5lvC/cFkmJ5Mps2CqqfiKBmrr89A4oOrgKIeHfdIdV+kEqml7h+pFJgwcbiQQY7OlCmYQFgjqeP+bTZ1cHbu65aL9XyEICGdSHs+30WnG3+/OqPOXgfgHhY37qujTe7V3ZPyglqhukl07O9vskRAKDCu/8pqVgAGCIeFwBultXL9Jw+9cGEAVkAepjOQYcX3y3Y/3AE9S96v6lQr1AUvUJRiOXdB1mFYHPXvuck+TQdUf7eDqPi8TZeD7urvKnnCtNzo8zCAsAQhXhaAIiqt43XWyF7X5eBALy7CEyeUweoXWaj8o8RxD2+W6MoXIew7W3H3E05XS5L4uk5Kjfe41r1+BKAQOahWPjkDCUVCwBT1N3i7YDWGNNTOpREdKzpDNQ80Y8s7L/f254BRZE6hO39nuZ8Lyf/jGSfmyOpsPLP9XpMl3f/kwEsAEyx8L63A+oFpqd0KInoBNMZqPncWkHlXyKoXWZDPfgM2i/UhPzIHk8zrtfCzoZOz5d8GBvUxcvxsuz62vLGni+ZnhdlHhYApqjXBQBO2D5mxAjT09oxZkw3Ac4znYNaSIH6F23sfzgL8d2tX94e22YrLKux1eN8anv9ACn56TXXmjxFAPCTu2d+d1/D8Z6u/7eJ7FmBYnFNz40yDwsAQ0J10X8D8LRHm6peb3pecTjXAbBN56DEONsE+36fhcZ1rbuF44xwNXKyvetNpRAs7zL816bPz8asE+72+hHARjf2oOl5UWZiAWBIj7KyOgHWeTuqXLHzzBHHm5pTeVFRZ6ga37GNWkejQPXcMKr/GYGb4If4AXYTjsv9yNNcpU1nt1v886uNXV66d/Y149+qH+/p83/Z4T363o1fSZkuh5RZWAAYpICnj/0oEHbico+p+QjitwPoZOr45K3GMgv77s9CrLzlLxMCYETb9zzN47g5+GeX8fNNnY/n2o5ZFnezPR2zoG3ZDoikyC6elGlYAJjkqg/P/eqUbUXDr0j2VCrGjDpfoN9N9nHJX+6+gz0DVoaAFl6lvrzTaxCPn2x7uXZ89n13zVqQ7PPwi3v+519lNed4++4PoFvb9+ckey5En2IBYJBrhV8SwNsHpgEA8nDF6NFJ6wuwffTovqruY+DPU3pygdpnwgd7BjT/+vdpkUp0buP1JpWC38u3pv7tzpuSVmz+4Zdfu+xxvWqGevzjnR3ZgX3h93+RrHkQ/Se+YBtU8MorDSrwY5vT9irxp7aOGuV7d8AdY8Z0cyX+FIBufh+LzIp+bGH/fVloeqd5LxsiijGdXvU8R2O8LX6b9dVHn7jze77fD/CPWVcVPdj+uyUNseM8H7tP+7WVT88o2ef3HIiOhAWAYSLyN5+G7i2WvrR15MgT/cq+Y+TIfnGNvQRgoF/HoNTi1gFVf4+gZnEY6hx7NeC/uj2PkNXkeY69Tfm4I/KdZX+964bv+DXXx4pnTL27x7dX7204wYfRXfRqt/b3fmUnag4WAIb1fPn1lwTw9nbpQ7SPhPS1iqKRU70eeeuYkRfHQ7oGgB+vjpTKFGh4JYT9D0QQ33n0l5CTwlXo2+EVX2Lsj/bAL/H9P9x5z6+WeT32fXde9+fb289csLvBn/q5U7syrZXK2b4MTtRMqbbTZkbaOnrkf4noQ/4eRf8Zt+I/7P3ymxWtGWXXiBE9orbcJdCvgz8/GU/CQNuLY8gZdeSWFn+vOgU/e/du+PnjMjRnTXRC05orv3fzbfNaM85Tt15y+uM9z1n1Qv3Etqr+tbMYk//wa09845ejfTsAUTPwBTwFfDBhQFZuZaePAeT5fKgGiP6fqD6Y98q6Fj2jVT5q1AkhS7+n0GsB5Bo7WZSSsgbH0W6aAyv3y0+0OSoYs/HX2Fs72NcMlsQxPPu1uhHRj++Y+cObb2/J43VPz7p84ry8UX8pjZ7fpTHm75OsbbI3Y0T/3/b526QSj/cDIWoZFgApYuvo4f8tksRn+AXrFPK0pfqiaOi9Hq++ulk+tzlseVFRvsA5SUS+IooLFTrK9Dmi1BbqqGg/I4Zwvy8/L/inqsG4/d1fw+td9I6kQ3iPFobKKk+JbVuRF6t6orZtzyU33HDDoZsRXpz1jVFvd+r6zY05PSZvxMk9P6kvtFwNJyXbyPyH3pr7jV+dlpSDER0FC4AU8cm4cdmRpvoNgA4wGKMaB9oTs5kPJUaANmc7aHO284U7jBwVjHvvp9heVWQomCISagAAuBA48RwjKdq3+beemHd//vxL5283dCKIDuFNgCmiX2lpo4j8P8Mx2oNv/tQaCtQ9f2BTIXffZ58vbFHcUvBXX54IaB5BNJ6LaDzX2Ju/SByFXZ6axzd/ShUsAFJI3urXnhHIXNM5iForVi7Ye38Ejes/e4mZ2HYTinr8y3Q0Ywo6PddU2bHs66ZzEH2KBUCKsR39PoAdpnMQtZY2CqqfiKCmJAyNHvize3qVoKPn3QFTX3ZkB/p0en7y8ouWm1oCIfoSFgApptuaNTtc1Svg8VbBRKY0vBHCvgcicHZY6GLF8L/97oMdqjMdK2lEHJzWfc78x6c/zl3/KKWwAEhBBa+uLYXqL03nIPJKfJeF/b+PoH6Vjam5m/DVfvdAJDNq3IFd5+50wx/PMJ2D6D+FTAegw7t7a8WLNb3zTwLg78PTRMmiQPRDC7FyC+cO2YxXbUFFzRDTqXzVq/Nz0TY9lvZbOG1hveksRP+JKwApSgB3e5P7DQBPmc5C5KXoBxaq74/gQecJHN8lfVfFu7R7w83v9sxpT058cr/pLESHwz4AKW7XuEFtY425z0LAtqGUXgRoGgdcffw1+HjPRabTeKpzuze1X9c5ZyyY8Td/NkIg8gALgADYMWRIG6dNVokAvm9/SpRs1SeFcE3RNdi87wLTUTzRpd0b7vHd54yad9lja01nIToaFgABoePG2RVN9Y8AerXpLEReq+kkmDntEry592sI8pXJnh1KnV7584fOmzxvo+ksRMfCAiBAFJDtRSNuUeAXAPzbqozIgFhI8JvLR2BZ4/fhxNuZjtMiIg5O6vrE7lDbtUOWzShhHw8KBBYAAVReNHykBXkCQD/TWYi8pAIsHNcHD/W4DjX1A03HaZacrAqc0u2JZ7fU1ly87tpHY6bzEDUXC4CAKi8q6myp8xsIvgX+O1Ka2dIzgl9deCHeqfoq4vHU3H1aJI78Titi3Xo+PWPhpH8uNJ2HqKX4xhFwFWeMHA5XH1BgpOksRF6K2YK543rjHz2vxN7qEdAUujegXZt3cXLnJ5dXH7dx+jMXPJM5bQ0prbAASAM6fXpo29bNXxPoTACnmM5D5KX97UL484Un4+msy1BdcypMvmzlZJfjxE5Pvuu2e3vGk5cseNv0uSFqDRYAaUQBa3vRyCkK/R8AZ5jOQ+Sl7V1szB03EM+1PQ97q0ch7iZnW1+RONq3LUO/ti9vdDq8c8WyqYs2mD4XRF5gAZCmtowZ1t9S60oBvgYgGHdTETVDdRsLq4Z1wtL+Z2JT0wjUNpwI1414egyBIifnE3Rvs77xuHYb/xjL3nb74imLK0zPnchLLAAywM4zRxzvuBgrirEAzlSgL7gPBKWBiuNsvHZqB6wuGIJ/6xDUNfVGQzQPbrxlqwMicWRFdqBN9ifoFtmyr03bD59ozNrxt2VTFr0OgZqeJ5EfWABkoI2DBkU6dszp5wL9Qyr5rivtxEIYqh2h/JmgYKqPWHbZwKweH/XOyt/aJb9gezivS2WobW69286Ouh3EhQrEhQVRW+NudqgymhuqqswKV7/rRPY+HY9UrQkBaxdPWVxjei5ERETkJRa4REREREREREREREREREREREREREREREREREREREREREREREREREREREREREREREREREREREREREREREREREREREREREREREREREREREREREREREREREREREREREREREREREREREREREREREREREREREREREREREREREREREREREREREREREREREREREREREREREREREREREREREREREREREREREREREREREREREREREREREREREREREREREREREREREREREREREREREREREREREREREREREREREREREREREREREREREREREREREREREREREREREREREREREREREREREREREREREREREREREREREREREREREREREREREREREREREREREREREREREREREREREREREREREREREREREREREREREREREREREREREREREREREREREREREREREREREREREREREREREREREREREREREREREREREREREREREREREREREREREREREREREREREREREREREREREREREREREREREREREREREREREREREREREREREREREREREREREREREREREREREREREREREREREREREREREREREREREREREREREREREREREREREREREREREREREREREREREREREREREREREREREREREREREREREREvvr/AQOx945oo23kAAAAAElFTkSuQmCC;" parent="1" vertex="1">
                    <mxGeometry x="950" y="24" width="52" height="52" as="geometry"/>
                </mxCell>
                <mxCell id="90" value="" style="shape=image;imageAspect=0;aspect=fixed;verticalLabelPosition=bottom;verticalAlign=top;image=data:image/png,iVBORw0KGgoAAAANSUhEUgAAAgAAAAIACAYAAAD0eNT6AAAyEElEQVR42u3dd3xkdb3/8df3JNkK0osgehGXTbIUkXovWBBQQRDZZKOCcMWGimIXFMt6sbdrVxRBELg6mwRXBFTAFWyoKz2ZWXYRZbHQ27ItmfP9/RHwR9mS3czMd8rr+XjwMMmcOef9HWfnfOacbwFJkiRJkiRJkiRJkiRJkiRJkiRJkiRJkiRJkiRJkiRJkiRJkiRJkiRJkiRJkiRJkiRJkiRJkiRJkiRJkiRJkiRJkiRJkiRJkiRJkiRJkiRJkiRJkiRJkiRJkiRJkiRJkiRJkiRJkiRJkiRJkiRJkiRJkiRJkiRJkiRJkiRJkiRJkiRJkiRJkiRJkiRJkiRJkiRJkiRJkiRJkiRJkiRJkiRJkiRJkiRJkiRJkiRJkiRJkiRJkiRJkiRJkiRJkiRJkiRJkiRJkiRJkiRJkiRJkiRJkiRJkiRJkiRJkiRJkiRJkiRJkiRJkiRJkiRJkiRJkiRJkiRJkiRJkiRJkiRJkiRJkiRJkiRJkiRJkiRJkiRJkiRJkiRJkiRJkiRJkiRJkiRJkiRJkiRJkiRJkiRJkiRJkiRJkiRJkiRJkiRJkiRJkiRJkiRJkiRJkiRJkiRJkiRJkiRJkiRJkiRJkiRJkiRJkiRJkiRJkiRJkiRJkiRJkiRJkiRJkiRJkiRJkiRJkiRJkiRJkiRJkiRJkiRJkiRJkiRJkiRJkiRJkiRJkiRJkiRJkiRJkiRJkiRJkiRJkiRJkiRJkiRJkiRJkiRJkiRJkiRJkiRJkiRJkiRJkiRJkiRJkiRJkiRJkhpeSB1A0gScc9sUJj08lWkdm5G3ZU94rJxHRlY/wOpNV3DizitTR5VUXywApHpTGJpEFp5FjM+EtmdCfBYh7gRhGwJbE9kGwtYQN9/APd8L3A3hbmK8E/gnId5GyG6lXF7CI9P+YqEgtQ4LACmVuTFjj8Uzycv7EUM3xE4CXcDOQHuCRDmwBOL1hHA9Md5AHq+hb9Z9qV8qSZVnASDVykXXbU55yvOJcT8I+xPYD9gsdaz1iMAQMVwN+a+JHVfSN+Pu1KEkTZwFgFQthaVTYfnehPKBhHAo8EKgI3WsCcoJXEfOT4lczJzOawkhpg6lBlSIbTC8DWTbEPJtydqmQz4VwmbEOJ3IpKc8J7AMshVEHqaNhynHh4jhnzD9X/TttCJ1kxqNBYBUSQOLn0EsHwXxaMZO+FNSR6qyJcCFZFzA7K5bUodRHVmwoJ17d3gO5DMg7ExkZ0K+86M/b0dgGyCb8HH+v2XA34ncRmAJhMXEsJj2vMgxXX9N/XLUIwsAaaL6F3USy3MI4RXA3rTuv6s/QTiHDs7n6M6HU4dRDc2/aTtWt+8L7EHG7kS6gU5Yw7f4FAL3E8O1kF9L5FomZVdzdOc/UsdKrVU/qKSJKQxtSVvWS+QE4MDUcerMw8D/QfgGvZ03pg6jCjvvhulMbT+ALNuPnH0JYR+IO6WOtRFuAa4ihquIbb9oxb4tFgDSeJ25sIOtNzmaPL6BwGFAW+pIDeAX5HyKvq6rUgfRRioMbUJbOIA8HETgQOD5wOTUsSrsiX1b+rr+nDpQLVgASOszv7QDq/PjCdnJDfpNpx78FvgsPZ0/tdNgnZsbM7pv2YcsfxlwOLAvrVfsDhM4n7bR83nl7ktTh6kWCwBpbeYNPZ8Q3gvhSFrvA7BariHP3k/fzN+kDqLHuXjhNFZu8nJCfCWBlxDZOnWkOpEDVwHn8vCUHzXbRFkWANLjxRgYKB0JnIr39qvpCnLeQ1/XTamDtKzC0qlkyw6FMAfiK4FNU0eqb+EBiOcR4pfo6f5b6jQVaVHqAFJdmBszdlt0LMTTgFmp47SIUWL4OpP4qKMGamRuzNijeAh5eB1wDDA1daQGNArMh/AZejsXpg4zERYA0sDwocTs8xCfmzpKi/onMZ7GnO7zUgdpWhct3oXRkdcRsv+2H0slhUsJ+Rn0dF+TOslGpU8dQEpm3tAhhOyTwP6powiIXELH6FubudNVTcUY6C8dBpxC4HAqO+mOnugXEE5vtCsCFgBqPRct3oV89NNE5qSOoqd4kBhOZk7nBamDNKyLF05j1SYnQHwH0J06TguJEC8gj6fTN+v21GHGwwJArePihdNYOf0DBE6l+afobWyBeawcOYnj9rg/dZSGMb+0KavztxHCe4BtU8dpYSsI/C/l/NP0zVqWOsy6WACoNcwrzSHELwHPSB1F43YbIRxPT+dvUwepa/NLmzLC64nxgwS2Sx1Hj4r8gyy8k57O/tRR1sYCQM1tYPjpxOybjw5zUuMZJfAeerq+ljpI3bl08WRWjL4dOJ3IFqnjaK0G6Ain1OPaAxYAal5j3/q/BWyVOoom7Lvc+8jJnLTPSOogycUYGCz2EcOngZ1Tx9G4PAjhPfR2np06yONZAKj5zC/twEg8B3hJ6iiqqCtYNdLX0v0CBhbtS8y/ChyQOoo2ygB5/mb6Zt2XOghYAKjZzCseSeBsYJvUUVQVi8jzI+mbtSR1kJo674bpTJ/8EWJ8H05L3dgid9IWXsfszp+ljmIBoOZw6eLJrCh/nBjfj+Odm1vkTkJ+CL2zhlJHqYn+4lEQvuEEPk0lEsLnuGnmh5gb8lQhLADU+C5avAvlcr8z+bWUf5G1vZjZuxZTB6mawuJtyEa+C+Ho1FFUNT+lbeXxHLPXAykObgGgxjZYehkxXmgv6JZ0FzmHNuWCQvOKRwJnOayvJSwhZ3aK97EFgBpTjIHB0mlEzsB7oq3sLrJ4CLO7b04dpCIKQ5uQZV8E3pw6imrqIaCP3q6f1/KgFgBqPGMz+p1LoDd1FNWFO8izA+ib+ffUQSakUJpJFvuB3VJHURJlYjyFOd3frNUBLQDUWAaLW5EzHzgwdRTVlZvJJx1E3y4Ppg6yUQaGX0UMZwGbpI6ixCKfprfzdEKI1T6UBYAax8AtzyaWLwN2TR1F9ShexlZ3voKDDx5NnWTcFixo576nf4IYP4Cfx3pM4Exu6nxbtUcI+IZTYygs2o8svxgXOdG6fZfersa4f37BjVswuWMAODh1FNWlc8k730BfKFfrABYAqn+Dw4eRhx8D01JHUQOI8U3M6T4rdYx1KpR2JssvgdCVOorqWSyQdx1brSLACVNU3/qHjyAPP8GTv8YrhK8xuGjP1DHWqn9of0L8vSd/rV/oI1t0DnNjVc7VFgCqX2MzoA0CU1JHUUOZQp5fyMUL669oHCi9ArIFju/X+MXj2a301Wrs2QJA9WmgeCwwCExOHUUNqZvVm3wldYgn6C++hhj7gampo6jhnMxA8ZOV3ql9AFR/BoaPIYYC0J46ihpdeBW9nYXUKegvvgn4Nn7p0oSEt9Lb+e2K7S11c6QnmDd0CCH7KV72V2XcS97eRd+Mu5Ml6C++B/gCft5q4kbIwsuY3fnLSuzMalT1Y2D4AEL2Yzz5q3K2Ihv9fLKj9w+/G/ginvxVGR3E2E+hNLMSO/NNqfowuGhP8vwqYLPUUdR0IiG+hJ7uK2p61HmlEwnxe/g5q8pbREfYl6M7H57ITrwCoPTml3YgjxfjyV/VEYjhu5x3w/SaHbG/9FpCPAtP/qqOmYzEMye6EwsApTW/tCkj8VKIO6WOoqb2H0yf9KGaHGlecTbEc/DzVdX1GgaKE5r10upU6RRiG1npIuCo1FHUElaS5zPpm3V71Y4wNmX1Apy4SrWxCvK96Z01tDFPtkJVOlnx63jyV+1MIcv+p2p7v2jxLmT5T/Hkr9qZDNl5nLmwY2OebAGgNAaKb4bwltQx1HKOZ2D4eRXf64WLtqY8ehmwTeoGquU8j603OXVjnmgBoNorLNqPSFWmtpTWIyMPlR0WePHCaUwuXwLMSN04tagYP0KhuPuGPs0CQLU1uGRbstiPU/wqlcCLmTd0SMX2t2r6N4lhv9TNUkubRFv8JjFuUL8+CwDVzoIF7eQjP7THv5IL2Ycrsp95xfcB/526ORIxHMRg8bUb8hQLANXOPdt/GDg4dQwJeBEDpQMntIfB0osJfDp1Q6R/i+FzFG4d93wqFgCqjYFF+xKozThsaTxiPG2jn1sYeiZ5/CEuWKX6sj1h9bg7BDoPgKqvMLQJWXYtdpJSvQlxb3q6r92g5xSGJpFlvwX2SR1fWoNHCHEGPd3/XN+GjVe9xhi4aHEno2XH2lZTlj1C78xSZfYVvoUn/43xIPAHiDcQwhIIi4nhn2Rt97HF0vs4+OBRYGxCpck3b82qbCva2rYjj7tC6CTE3YD9gU1TN6RuRU4FXrVBz8myT+LJX/VrOjGcDrx9fRs21hWAi67bnPLUfoiV68GrtQvxjfR0f29C+xgYPoYYBlM3pUGsBq6GeCl5/DnD3SXmhnxCeyzENtpv2Y1YPpg8HEXgBTRi4V9NG/I+Hxw+jDz8DG+fbowI8S/EcB2wmCzeRZ7dDeV/EbMHnrJ1W9yeGHYgsiMh7kRgV2J4Hk60NB6raWMmx3T9dV0bNU4BULh1M7KRX0F8buooLWI1ediDvs5FG72HwtCWZNkQsH3qxtSxCPyOwHlkKwscs9cDVT3aBTduwaRJryTLX08MB6VufJ0YIcRD6em+ep1bFRZvQzZ6A/D01IEbxMNEFhDClQT+TDs3TnT1OhYsaOfep3cT8n2JvIgQXk5ki9QNrUuRrzGn65R1bdIYBUBhaBIhu4zAi1NHaRkhnEFP50cntI+B4rlETkjdlDq1Ajgf8q9s7DzeEzZY3JWctwBvxNsEV9Dbddg6t+gv/gSnrl6fmwnhIsrhF2zzj2v+fZuqWs5c2ME2015EzjGEMIfI1qlfgDryCBnPYnbXvWvboP4LgBgDA4vOhXh86igtZDEPT9mDE3deudF76B8+AsIlqRtSh5YTw9cZCZ/n2Jn3pA4DPHpVoOOtwCkEtksdJ4GcED9IT/fn1rrFwPDxxHBe6qB1aojAPEJbgdm7FpOlOOe2KTxtxXHE8A5gz9QvSp34GL1da13/ov4LgHnDZxBCZSbt0HhEYn4Yc2ZdudF7uHjhNFZNHwaelboxdaRMDGcSy2fQN+tfqcOsUWHpVLJlbwBOA3ZMHafKVkL4LXAxeeinb+bf17rlwPDTieFmYMvUoevIcgI/gvgderqvSR3mKeYVX0QWz2j521yRO4n5M+mbtXpND9d3ATAw/AZiOCt1jNYSfkBv58Qu2/cPfwLC6albUkeuhvAOejtvTB1kXMaGbZ4OvBfYqFXG6lCEcAPEK4hcTtzk1/TttGJcz+wvXQTxlakbUCduh/Al2lacW/X+KpUwUOol5p+BsEvqKMmEMIeezv41PpQ621r1F18KXEzzfAA1gvvI2zvpm3H3Ru+hf3gGhJtwrn+AhwjxPczuOpsQYuowG2xsbfsLgOekjrKR7iBwOXAFoeMKZj/nrg3ew7zhVxPC/6VuSB1YAuHT5OXz1/Ztsm6N9SF7H4GPAZNSx0ngF/R2vXRND9RnAdBf2gPib7BjUm0FTqSn6/sT2kd/8WfASye0j2YQuZyYv5G+WbenjjIhF9y4BZM7CsChqaOMw8PArwhcTswun/A8FoVbNyNbXaK1R7H8ncCHKXf+gL5QTh1mQgaGn0fkfAhdqaPUWE4enkNf521PfqBexwO/D0/+tZQT4nvp6f7+hPbSXzwKT/4rIZxK78yvNeS3/ic7bo/7OXPhEWw17XwIfanjPMko8EfgCvLs8or3Os9WfRxCq578lxP5PCtWf54T9nwkdZiK6Om+lsLSvcke/iKEt6aOU0MZIX8tcMaTH6jPKwCDS7alPPpysujl/2qLRHKuoa/rpgntpxDbyEo3At2pm5ROuB7Kr002rK+aCrGNrPh9CBu02lgV3AJcDvEK8skL6NvlwaocZewq5J+p3y9J1RO5hKz9LfTMuCN1lKrpHz4ZwleAttRRauQmerv2ePIf67MAUOOZN/xGQvhu6hjpxLN5eOrJExo6We/mxozdS2cRObFmxwzcQwxXEvKxe/k93X+r+jFjDAyWFhB5Yc3aWR8eJPABerq+kzpITYz1M5tHq1xtztq6nzxM0wJAE1dYOpXskUUQd0odJYHVED5Ab+dXUgepibkxY7fiuVW8EjBK4AZyfkrkYoY7r5vwdMgbqjU7/i0gz45f53DIZjSwaF9ifjkw7iV0G1YIH6Gn8xNP+FPqTGoC84ZPJYTPpI6RwL2EcDQ9nb9NHaSmxm4HXFihPgGPDs/LLyeGKzZoeF5V2jY0iSwrAs9OlqG2IiF8jvLM0xu+k9/Gmjf0fEL2M5p/jYE/0du13+P/YAGgiTnvhulMm3QbsE3qKDV2G3k4fEJrJTSyMxd2sNX0QeDIjXj22PC8yOVkHVdu1PC8aukvnQKxNa7mwEPEcAJzOuenDpLc2MylP6a5h53nZGz7+KmBLQA0MQPF9xL5QuoYtRWuJy8fXrcz+tXKWPG3ANh3PVtWdnhetZy/+GlMGV1CaxSz/yLPD6dv1vWpg9SNecMnEMK5qWNUV3gVvZ2Ff/+WOo4a2NjUsX+hpcZJh+vJ4qHrWmCjpcy/aTtG2q8AdnvcX1cBC4ErqzI8r1r6ix8HJrYAVmNYTGh7GT27/iV1kLozUPw2kZNSx6ie8D16O9/42G+tN8RFlZM98iY8+be2o3e/k8LS/ciWvZIYp5NxM+V4bePNFnfrZjByytjqzE3tJrKOQ+vqtks9eWjKu9h05QE07WJC+Yse/5tXALRxxsb930LrdJZaTN5+4ISmSVb96i+dDvETE99RXVtEx+gLOXr3O1MHqWtjy2QvpFmHB+bt2z72OZalzqIG1VZ8Ba1y8g/cQ8aRnvyb1Hk3TIf4ztQxqux2QnypJ/9xmN11C4GPp45RNWF0/8d+tADQxhlbc7sVrKCcvZzZXbekDqIqmTrprTR3x7/7yPNDajKJUrO455GvAjenjlEVIR7w2I8WANpwg8O7AS9KHaMmAm+jb+YfU8dQlSxY0E4Ip6SOUUWjhPgq+mYtSR2koZy0zwg5b6cpO4WEfR77yQJAGy7nZFqi/0j89oRXR1R9u3f7o5t7BsvwPnq6r0idoiH1dV0FcV7qGFUw67EfLAC0YQpLp0L26tQxauA6pnW8K3UIVVmgmW9l/V/LTFFdLVnbp2i+qwA7cv7ip8HahgHOjRm7F99HHt5JYIfUaTVho8DZ9HS+ZcJL1LYtO4bI5qkbVGWryPlvjpixKnUQVVH/0CwiL0gdo0ruIM/fnjpEw5s98wb6S5dBPCJ1lAoKTFndBfxhzVcAdi+eSAyf9eTfNNqBNzO4eOcJ76mWK8GlM3fCyyOrAYS305y3snJCOIG+WfelDtIUYrn51jkJWRes6RbAwPABxPC11PlUcfdRnjGxXsA/vmkn4MWpG1Jl15F3fj51CFXZObdNIYRXpY5RHfFr9HQuSJ2iacyZ9WtCbK6OwDHsCE8uAAZueTYxzAemps6nCgv8YsKrfY229dLc/UYiIb6rZVdFayWbrDqKyBapY1Rc5E7yyR9LHaP5hPNTJ6isuD08/sN8sLgVsXwZsG3qaKqCPF428Z2EntTNqKrAhfR0X506hmogxBNSR6iO+AH6dnkwdYqmU27/IWN9qZpD5HEFQGHpVCIXA7umzqWqiMT4iwntoTC0PfCfqRtSRasp5x9KHUI1MLhkW+ClqWNUwe/o7fpB6hBNaWwW0CtTx6iYbOwKQDtzY0ZWOp/Y1B/urS1w7YSXrs3aXgmxiS//x7Ppm3V76hRrNbb07ssg7gVsBaGJ/7+osvLqbkJovnXfY37ahEf5aO0CPyQ2SeEYw6MFwKxFXwRmp86jKorxggrs5ajUzaiiVbSXP5U6xFoNFN8MfGbsnnUzdlqvsdCUr+EVzJn169Qhmlo5u5wsT52iUrYHCPQXlwHTU6dpQasJPLLerSIrgRXj2N9yAk8ctx7DAxB/QG/XuRNKeuniySwfvZemfZ/Es+ntfkPqFGs0b/hUQmi+YUiqrJi/wAKgBvqHl0DYJXWMitjqXx3tEE6H2P2EBwIRwgPr30Msk8eH1rtZYDUhrP9kl8eVkK3/ZJfly4H1T9IS48Pk2Tg6buQP0tax7tKunEdGVq//NYlTy7x2xvpfk0ayovxfNO3JHyB+PXWCNRoYPpQYPp06hupduNKTf81cBTRHAXD3M6e3O1Wk1ivGl6SOUEW/pXfWdalDPMXcmBFLX8Fr/lqvvD4L2KYUrgZenzpFZYxuYkcijcehqQNUTYzfSR1hjWYV+4DuCe9Hze528q6LU4doGSH+KnWEimnPp1sAaN0uXjgNeG7qGFWykjh5fuoQTxFjIASHJGr9At924qoa6un+G/DX1DEqIrcA0PqsmL4va1s0qtFFflqXk6YMLuoBdk8dQ3WvTPvo2alDtKBrUweoiIi3ALQeWdgvdYSqCaH+1vqOMRDjh1PHUENYwNG735k6RAv6a+oAlZG1WQBo3WJs1gmiyuTlK1KHeIrB4iuBPVPHUAOI8UepI7SkEO5PHaEisphbAGjdAnunjlAlf6q75VJjDMTgt3+NxwgxDqYO0ZLyfCR1hIoot1kAaB3mlzYFdkodo0omtjZCNfSXXg48L3UMNYRf1l0B2yqyccxB0whCbgGgdRgpd9Os49Ajv00d4Smy+JHUEdQo4s9TJ2hZkea4AhDysgWA1i62Nes49Egbf04d4gnmLTqc2MQdLlVZGZenjtC6mmQxidDuFQCtQ8i7UkeoksXM7ro3dYgnyMqO+9f4RP7BMV1DqWO0sC1TB6iI8ugjFgBahyZZ9OIpzeKG1BGeYGzO/4NSx1CDCOFKl/1NKTZHATC57QELAK3LM1MHqJLFqQM8QQze+9f4xfya1BFa3FapA1TEqun3N+cMbxtibszYvXQqkaMJTTDjXWQRq0beznF7VGKs6o6pm1MVeViSOsK/FYovBF6QOoYaSGxbmDpCS4thhyboGr2avp1WNP4JbyIKsY220vlEXg1Ac1xU25tJ7X8BJvat8syFHcB2qRtTFTHUzxWAwGmpI6ihrGaTrL5uYbWa0ATLAUfuB2jtWwBtpTf8++TfVCqwOMi203ekWd8fHdk/U0cAoDD0XAIvTR1DDWUxR8xojnHojagwNAl4RuoYExZ4AJr1A348CrduRuSM1DGqowLfcEea5D7XmmTlu1JHAKAtO5VmnWdB1RFZmjpCa2vbGWhLnWLCIn+HVi4AstUfBrZNHaMqKnGJO+Sbp25Glazg6M6HU4dg4JZnE+lNHUMNJnB76ggtLeR7pY5QmXbEv0KrFgCFoecA70gdo3pGK9DJLdssdSuqpD6mT42j76NZl1lWNf09dYDWFvZJnaAyzQi3Q6sWAFn4AjA5dYyqCNxfkTnCQ9g8dVOqJP390/k3bQfhdaljqAGF+FDqCC0ti/unjlARcWxJ49YrAAZLL4ZwdOoYVRMZrsh+Qv601E2pjpi+AFjd/k5gauoYakDNMg99IyoMTSKGJrkF0KpXAPI4HXgkdYwquYuYf6wie8pDk16eDquTHv7ihdPIeEvqV0GNKvH7t5W1tx0ETE8doyLK5VuhFe9B9nZdDGySOkbdy2JGbMoO6mkbtXL68QS2SP0iqEGFmKeO0LLKvLQ5xuyEB5jTvRRa8QqAxik0/lCXNYppK/jAyalfATWwGJq1c279C/FlqSNUyE2PrSVhAaA1i6FJ3xthWrJDDw4fBuye+hVQA4vRq0cp9A/PoGn+7cZ/zyTZpB/y0lqlu/2ThyYeeqqaCMECIIWQHU/q24cVaws3PfajBYDWLMSVqSNUyaYUbq39ZdRCaWfgiNSNV4OL7JQ6QsuJMRDjcaljVK49uVcAtB45y1JHqJ6VO9f8kCGeTDNMIaq0ArumjtByBhe9CHh26hgVspJpk65/7BcLAK1ZFpenjlA1baG2BcDcmBGacdEpJbDLoyt1qlZifHfqCBUT+MPjF5OyANCa5aFZ50qAGGbW9Hjdw53AjqmbrabQwTZPe07qEC1jrPPfy1PHqJxw9eN/swDQ2jTxLYBQ2+k8a33FQc0tLx+UOkILeTdNdZ7MLQA0DjGvjyVzq9O42hYAzXw1RQnEF6RO0BIuKv4HhNenjlFBIzwy8vvH/8ECQGvzr9QBqujpY/+4a2R6++8J3JO60WoW2QtTJ2gJ5XgGzbRoXIh/4IQ9n/BlxAJAa9F9N1BOnaJqyuHwmh3riBmryPNXUy9LEavBxZ0oDD03dYqm1l/aA8KxqWNUVMx+8uQ/td5aABqfvlCmv3g3sH3qKNURXwl8q2aHmzPrSgqLO8lG+gjhICLbE9g09aswIZHdaKZvSI2kLZsDXJ86RlOKMTBY/EbTzYaaxflP/lNzzGyk6ugv/hl4XuoYVTJC28ptOWavB1IHaUgDwwcQw+/wMySVJfR2zUgdoin1F98EfCd1jAor0dvV9eQ/NleFo8oK3JI6QhV1UJ4yJ3WIhjQ3ZhC+jif/lJ7DQOnA1CGazvybtgM+kzpGxYUwf01/tgDQ2kWKqSNUmSvzbYxZpTcR2Tt1DMV3pk7QVGIMjHScDWyZOkrl5T9e018tALR2IQynjlBlezKv+F+pQzSUC27cgoxPpI4hIDL70TUmVAkDpXdDbMb1OhYzu+sPa3rAAkBrF7Kh1BGqLuNdqSM0lMntnySydeoYAqCNwCmpQzSFQnFv4FOpY1RF5PuEENf0kAWA1m50xi009YyAQKSX/qG9UsdoCAPDB0B4c+oYepwQ38rA8LNSx2hohaHtycJFNOeIljJZ+3lre9ACQGvXF8rAtaljVFkgZmekDlH3Ll44jRjOxRUN681k378TcM5tU8iyiyA25zLLkcvpmXHH2h62AND6/DF1gKoLvJx5Q4ekjlHXVk37IrgUbX2Kx9Ff2id1ioYzN2ZsuvJs4IDUUaomi99f58Op86nehT+lTlCbZmbf5uKF01LHqEv9pVMgvCV1DK1VBvF7FIYmpQ7SMGIM7Fb8OvCa1FGq6O+U40Xr2sACQOsW8l+njlAjz2HVtLmpQ9SdeaWjIX4pdQyt1x6E7EOpQzSMwUWfhvDW1DGqKsav0Tdr9bo2cSIPrV//8DCEronvqO6NEuIh9HRfPfFdNYF5xRcRuAyYkjqKxmWEkB1Iz8zWuGq3sfqHPwHh9NQxqmwZq0aeyXF73L+ujbwCoPWL2YLUEWqknRh+xPzSDqmDJFco7k1gPp78G0kHMQ4wuGTb1EHqUoyB/uKXWuDkD3D2+k7+YAGg8cholQIAYHtGYoEzF3akDpJMf2kf2rgceFrqKBUXJ76L+hZ3Ih/5IQsWuNDb4y1Y0M5A8Tzg3amj1ECZtvavjmdDCwCtX7njcmAkdYwaOpCtpp87Nud9ixkYPgDiFUS2SB2lKpp7fYvHHMx9T/8WMXqLF6AwtCX3bP9zCK9NHaUmAhdwzIxbx7Np633AacP17fIgcFXqGDX2GnYrfa+lPkTnFV9CDL8ANksdpUoGiAykDlETMb6RgdKXU8dIbrC4K1n2WwIvTh2lRkag7ePj3dgCQOMT+EnqCAm8jv5FX2qJIqC/+CYClwCbpo5SJSNkfAjyy1IHqaFTmFecmzpEMgPDx5DzJ6AzdZTaiWfRs+tfxrt183+wqTIGhp9FDLfRmu+Z/yPPX7e+ITUN6cyFHWw1/UvA21NHqaoYvsmczpMpxDZC6e8EtksdqXZt52vEznc/OrNn87t08WSWj34OeAet9Xm1ktA+Y10z/z2ZVwA0Pj3dfyNwTeoYibyGkF1GYai5lgmdX9qBraYvoNlP/vAwbe1jl0X7Qpmw7slRmk7gHWSlAoWlU1NHqbpCaSbLR38PnEJrnfwBvr4hJ3+wANCGiFyYOkIygReTtV1PYdFBqaNUxECpl5F4I3Bg6ihVF8LnmP2cu/79e5bNSx0pgdlky67mosW7pA5SFYXYxkDxvWTxOqAVF/e6i7aVn9zQJ1kAaPzy9h/RWqMBniTuRJYvoL94GoXYmIviDC7Zlv7iBcQ4D9gqdZwaWEJ5+hef8JfRmVcR+UfqYAnsQ3n0WuYNvzp1kIoavKWLrPQbIl8Amv8qx5rEcBrH7PXAhj6t1S6RaKL6iz8Bjkodow5cB/lb6Z31h9RBxmVuzNht0UmE+MmmHeL3VJGYH8acWVc+5ZH+4qeB01IHTCf8gKz9fU+4MtJozrthOtM6PgjhfTTnUr7jE/g9szsPJIQNnuXCKwDaMCGemTpCndgLst/RXzyTwqIdU4dZp4HSK9itdD3Eb7bQyR/gvDWe/AEyzqEFpgVau3g8+egi+kvvbMirWf3Fo5g26eZHZ/Vr3ZM/5JSzd23MyR+8AqANNTdm7FZaAuycOkodWQmcRWj/7IZ2wqmauTFjt+IrIJxKMy93unZ3k9HF7K5717pFf+lqiM9PHbQO3ACcwc2dFzE35KnDrNNg6cXk8WPAC1JHqQ/xW/R2v21jn20BoA03b/hUQvhM6hh1aBUwQBa+xzEzF2xsVT4hhcXbkJWPhXgyMCP1C5JOOJ7ezvPXuclAqffRvhAaMwR8kjwfqKshr3Njxu6LjoT8/cTQHJ1wK+NvrGzfg9fOeGhjd2ABoA134aKtmZT/DZiWOkr9irdCuICQ/ZSbdv1zVb9ZXbhoayaXDyeGOcDLgNZdxwAg8jPmdB2+3u0WLGjn3u2XAM9KHbnO3AuxQMguYPbM3yUpZAF+fNNOjLS/isBbgWenflHqzNr7t2wACwBtnP7iVxgba6v1idz56LK6vyPP/8T9K4Y4aZ+NH00xuGRb4ugB5PEAAi8E9gca7z5uddxNiHvS0/3PcW09UHzvo73HtWa3EeMFZFzClncu5OCDR6t6tMKiHcliL8Q+4D/xHLVmj01sNUG+uNo4haFnkmVLaPVvmxtnJXAzkaUElo4VCOE+Yr4cshX/3iqL04lxCwjbAtsDMwjMJLJ16gbUqUiIR9HTfcm4n1EY2oQs+yutMSRyoh6G+BvIFhDCryiP3jDhWwUXXbc55Sn7E+NBZOEQIvtj5/T1iLeyfGRPTtjzkYnuyQJAG6+/eA7wutQxJABi+DJzOjd8udf+0ukQP5E6fgMqA38DlhDDEkK+hJjdQUaE/IGxLdoeoq2cEbLNKeebE8IOEJ8JYRdgN+A/UjeiwYySZwfTN/M3ldiZBYA2XqG0M1ksAZNSR1HLu4mHp+zHiTuv3OBnFm7djLbVt7XYEEk1osjpzOn6VKV256UWbby+ztuA76SOoZb3CGR9G3Xyh0eXu46OalGdC1cy1FnR96kFgCamY/QTwLLUMdTCYnwbvTNLE9rHQ1O/ytjlbKke3cHq8OpKjyayANDEHL37ncDnU8dQiwqcyZzu8ya8nxN3XkmIH0ndHGkNRgjh1Rw7855K79gCQBM3rf2zwC2pY6jVhOspb7Lhnf7WZnbX+QR+n7pV0hOF99PT+dtq7NkCQBN3xIxVOCeAailwPzmz6dtpxcR39tg+Q6TMSUB1x7pL4xbPprfzK9XauwWAKqO36+cQ56eOoZZQJs+Oe7QTamX1dd1E5FupGygR+SX3Ln9LNQ9hAaDK6cjeRuD+1DHU5EJ8H3NmXla1/a9Y/cGxqZylZP7CSPaqCc0YOg4WAKqcozv/QR7flTqGmln4Hj3dX67qIU7Y8xFiPImWXi5YyQTuJ+PwanT6ezILAFXWWI/sgdQx1JR+RV7e6KVPN8icWVdC/HbqBqvlLIdwFLO7atKp2gJAlZd1vA0Y32Is0vgM07bymJouU/vw1PcA16ZuuFrGCMQ51erxvyYWAKq82c+5i5zXYG9qVURYSohHcMxeD9T0sCfuvJI8fxXwYOpXQE0vEngzvd2X1vKgFgCqjr6uqyDMTR1DDe9ucg6jpzvNLH19s5YQw39jfwBVVXwvPV3fr/VRLQBUPTfP/DSR8S/NKj1e4H6y7DD6OhclzTGncz7Er6Z+OdSkQvgIvd3/m+LQFgCqnrkhZ1X7scBNqaOo4Swj50hmz7whdRAA7l3+fuB3qWOoyYTwEXo6ky1F7XLAqr6B4WeRhz8Q2C51FDWEB4kcwZyu+jrhDix+BnH098AzUkdRw4sQ30Fv9zdShvAKgKqvp/tvZPGVwPLUUVTnAveTZy+pu5M/QM+MO8ji4RAeSB1FDW2UwOtTn/zBAkC10tN9DSEeDaxKHUV1KnA/ZC+lb+YfU0dZq9ndNxPyo4GVqaOoIS0nckyKDn9rYgGg2unpvoIYjgfKqaOo7txBiC+gZ+afUgdZr57uqwnhVfg+1oa5jxBewpyun6YO8hgLANXWnM55xPAmIE8dRXXjRkL7fzK7++bUQcatp/MnEN+ZOoYaxhLy8F+1nORnPCwAVHtzOs8hxuNwoiARriSf9AJ6ZtyROskG6+3+BpGPp46hOhf5JXm+f/LhrGtgAaA05nT/kBBeA9RualfVm+9z77LD6dulcWfam9M1lxhPSx1Ddes73PfIy+ibdV/qIGviMEClNTD8cmL4ETA9dRTVzCghvr/qq/rVUn/pFIhfxs9UjVlF5J3M6TozdZB18c2q9PpLe0C8BMdXN7/APeT5q8dW22sy/aXXQjwHaE8dRSmFpYS8j57ua1InWW/S1AEkAAqLdiSLP4X43NRRVDXXEuLsZPP618JA8Vgi52IR0KLiZWTheGZ33Zs6yXhYAKh+FG7djLD6PAKvSB1FFZUT+V+mt5/OETOafx6I/uJRwPnA01JHUc2sgvhBerq+TAgNs3CUBYDqS4yBgUWnQPwCfotqfJE7ITuROTMvSx2lpvqHZ0AYBHZLHUXVFovk8Vj6Zl2fOsmGchSA6ksIkd7OrxDi4cDdqeNoQgaIeXfLnfwBersXk+f/CeFHqaOoasrAl8g33bsRT/7gFQDVs4HhpxPDecChqaNog9xF4N30dF2YOkhdmDd8AiF8A9gkdRRVSryVPLyBvq6rUieZCAsA1bf/f0vgc8Ck1HG0HoF5rMrexrEz70kdpa4USjNpixcQ2Tt1FE3ICPBFHp7ycU7cueHXg7AAUGPoL+0D+XkQulJH0RotIeZvacrhfZVSGJpEFj4K4QNAR+o42mC/Is9Ppm/WcOoglWIBoMZx5sIOtpz2HkL4H7waUC+WEfkiy6Z8phm+EdXE4KI9yfOzgH1SR9G4/JMY3k/vzAsbqYf/eFgAqPEUirvTFs8ihv1SR2lho8DZdIx+lKN3vzN1mIZTiG20ld5FZC72DahXy4EvkOefp2/WstRhqsECQI2pENvIFr0Z4hnAVqnjtJCcyCAh+wi9M0upwzS8+aUdGMk/C+E4/DyuFzmBcylnH6Fv5t9Th6km33BqbBddtzn51NOI8d14W6CacuBSyD9K76zrUodpOvOK/0Xgy8C+qaO0sJxAgdD2P8zetZg6TC1YAKg5DN7SRV4+A5iN7+tKGnn0Q/GTrfKhmEyMgf7SMQTOALpTx2khOYR55OX/aaYOfuPhB6Way+DwbsTwUSK9+P6egPAAxPPI8y/SN+v21GlaSiG2EYrHEcKHgRmp4zSxlQTOJcYv0tu9OHWYFPyAVHMaGzb4fgizcUrhDXEthG/w8OQL7dWf2NyYMWtRD1k81fkDKuouiN+lo/y1Vu/AagGg5jYw/HTycBIZpxDZInWcOnUf0E/Od+jr+nPqMFqDgeFDycM7CLwcaEsdpyEFfk8evsH0tv6WWJRqHCwA1BrmlzZlJL4aeD1wQOo4dWAZxEshnM9W/7qMgw8eTR1I43BR8T8ocxLwBmCb1HHqXuAeIheS5+c06nz91WQBoNbTPzQLstdDmANxp9RxauhuCD8hxh+zbMoVXuJvYGcu7GDrTQ4nxhOAI4HJqSPVkVVEfk4Wv085XkLfrNWpA9UrCwC1rhgDA8P7QegZ+49np45UYSMQriHGX5KFyynPvIa+UE4dShV2wY1bMKm9h8BsCIfQmsNhVwG/IMR5lCf/hL5dHkwdqBFYAEiP6V/UCfmhRA4jcDCwaepIG2g5IV5L5Pdk2S9ZturXnLDnI6lDqYYKt25G2+qXA0cBhxLZOnWkqgncA1xKDJeQd/zck/6GswCQ1mTBgnbu22EvYnk/QtiPyH7ATOrn38xDhFiCcB3EPxGzP7HVP4e9l69/mxszdlv0PGJ8yaMF7QE09rTDy4j8HuKvieEK6PyjV7Qmpl4+zKT6VxjahKytk5h3E0IXhE5C3InIjsD2FT9e5E4C/wDuAG4HSoRYotxWbPYpSlUFCxa0c992exCzgwhxPyJ7MVbU1ueogsD9RH5D5GpC/mu2uuvPFriVZQEgVcKliyezIu5IOW5Nlm9BjFsQss2J+WZjG4Q2svA0APKYQxy7XBmyFcR8OSHcTwj3US7fD9zHJpPudKiSqu68G6YzddKeZLGLPOxCiLsQwi7EsAvEzSt8tNXAv4B7gbsf/d97CeER8vgQxDJZWE4elhH4MzfPvJm5IU/9EjUzCwBJ0lMNFrdiNNuFUH42hGeQsQUxbglsSQxbkLElkS0hbAFxOvAPQlxKDEuBv0NYSsiXQtsdUL6D2V3/arbldCVJkiRJkiRJkiRJkiRJkiRJkiRJkiRJkiRJkiRJkiRJkiRJkiRJkiRJkiRJkiRJkiRJkiRJkiRJkiRJkiRJkiRJkiRJkiRJkiRJkiRJkiRJkiRJkiRJkiRJkiRJkiRJkiRJkiRJkiRJkiRJkiRJkiRJkiRJkiRJkiRJkiRJkiRJkiRJkiRJkiRJkiRJkiRJkiRJkiRJkiRJkiRJkiRJkiRJkiRJkiRJkiRJkiRJkiRJkiRJkiRJkiRJkiRJkiRJkiRJkiRJkiRJkiRJkiRJkiRJkiRJkiRJkiRJkiRJkiRJkiRJkiRJkiRJkiRJkiRJkiRJkiRJkiRJkiRJkiRJkiRJkiRJkiRJkiRJkiRJkiRJkiRJkiRJkiRJkiRJkiRJkiRJkiRJkiRJkiRJkiRJkiRJkiRJkiRJkiRJkiRJkiRJkiRJkiRJkiRJkiRJkiRJkiRJkiRJkiRJkiRJkiRJkiRJkiRJkiRJkiRJkiRJkiRJkiRJkiRJkiRJkiRJkiRJkiRJkiRJkiRJkiRJkiRJkiRJkiRJkiRJkiRJkiRJkiRJkiRJkiRJkiRJkiRJkiRJkiRJkiRJkiRJkiRJkiRJkiRJkiRJkiRJkiRJkiRJkiRJkiRJkiRJkiRJkiRJUu39P7q7j1iY+JbJAAAAAElFTkSuQmCC;" parent="1" vertex="1">
                    <mxGeometry x="1015" y="510" width="52" height="52" as="geometry"/>
                </mxCell>
                <mxCell id="91" value="" style="shape=image;imageAspect=0;aspect=fixed;verticalLabelPosition=bottom;verticalAlign=top;image=data:image/png,iVBORw0KGgoAAAANSUhEUgAAAMgAAADICAYAAACtWK6eAAAgAElEQVR4Xu1dC5gkVXU+51b1PHYYZRc1O2uMMUGNRvNCs85U9dgSIKwGwccKCETAIG8EgV2QQDSIoiAqIg8RDaigQSMgQljRdLpu9bCYNSYSNUZBEXlIdhdZdmdmu+vefH9/tze9bc9sd3X3dHfVvd+3H+x23ap7/lN/3XvPPQ8m2ywCFoEFEWCLjUXAIrAwApYg9u2wCCyCgCWIfT0sApYg9h2wCMRDwM4g8XCzvVKCgCVIShRtxYyHgCVIPNxsr5QgYAmSEkVbMeMhYAkSDzfbKyUIWIKkRNFWzHgIWILEw832SgkCliApUbQVMx4CliDxcLO9UoKAJUhKFG3FjIeAJUg83GyvlCBgCZISRVsx4yFgCRIPN9srJQhYgqRE0VbMeAhYgsTDzfZKCQKWIClRtBUzHgKWIPFws71SgoAlSEoUbcWMh4AlSDzcbK+UIGAJkhJFWzHjIWAJEg832yslCFiCpETRVsx4CFiCxMPN9koJApYgKVG0FTMeApYg8XCzvVKCgCVIShRtxYyHgCVIPNxsr5QgYAmSEkVbMeMhYAkSDzfbKyUIWIKkRNFWzHgIWILEw832SgkCliApUbQVMx4CliDxcLO9UoKAJUhKFG3FjIeAJUg83GyvlCBgCZISRVsx4yFgCRIPN9srJQhYgqRE0VbMeAhYgsTDzfZKCQKWIClRtBUzHgKWIPFws71SgoAlSEoUbcWMh4AlSDzcbK/mEBBr167lW2+9NWru8v67yhKk/3SSlBFxLpcbK5VKHIbhtkEVyhJkUDXX5+NevXr1s4QQz5uZmflJnw910eFZggyy9vp07CDH0NDQKx3H2ZTP5+f6dJhNDcsSpCmY7EXNIrBmzZrhp59+ekpr/WCxWPx5s/369TpLkH7VzGCOS0xNTR3gOM58EAT/Opgi7D5qS5AkaLFPZPB9/2Bmfs7KlStvGWTLVS2cliB98nIN+jA8z3sNEeUymcy1+Xz+qUGXpzp+S5CkaLKHcvi+/3tEdJ4Q4uJCofCLHg6l44+2BOk4pOm6obFYfZ6ILgmC4P6kSW8JkjSNLq08wvf965n5vpUrV342KfsOuwdZ2pcosU/zPO80Zp4eHx8/5u67755PoqB2BkmiVpdAJmzKmfmTQoi3FwoFnJbrJXjskj/CEmTJIR/8B65evfq3MpnM55n51s2bN9/4gx/8YOfgS9VYAkuQpGq2S3K9/OUvH1qxYsXFRDRRKpXO3bhx4xNdelRf3NYSpC/UMDiD8H3/SCI6VWt9XhiGRSJSgzP61kdqCdI6Zqnt4Xneq4QQlxDRP4+Ojn56w4YN25MOhiVI0jXcIfmy2eyE1voDRLSMiC6QUj7YoVv39W0sQfpaPf0xuMnJyVHXdc/VWh+qlDq/WCx+M6lWq3rELUH64x3s51EIz/OOY+ZzmfmGcrl81czMzGw/D7iTY7ME6SSaCbyX7/sHMPM1WuvvKqVOLxaLv0qgmAuKZAmSJm23KOvk5OQfOI7zVSJylFJHFIvF77V4i4G/3BJk4FXYHQFyudze5XL5n4no5Vrrk8MwvCXpJt1GSFqCdOf9Gui7rl271nnsscduJaJDiOgW13WPz+fz5YEWKubgLUFiApfkbr7vX0pE64joZ1EUvWpmZmZLkuVdTDZLkLRqfgG5Pc97IzN/DT8rpdYUi8UNaYbIEiTN2q+T3ff9lxCRJKLnENGVUsoz0w6PJUja3wAjPzblURTdpbVGbPkDy5Ytm0yDK8me1G8JsieEUvA7TsqFEFcy818T0dNKqQPTaNJtyYo1OTm5QimVGRoaUuVyORoeHt6Zz+ef6ef3Zb/99lu2fPnyzPbt253h4WGxc+dOEUXRro8AZJmfn1fLli2LXNfV27ZtqwT5jI6Oivn5eeG6roM+tTLWyK9mZ2crnqvj4+NcLpd5x44du55T7eM4jq4+RwhRqualNW7iY9VnLFu2bP7ee+/9da/xNIneTmfmC4goQ0TvkVJ+GuMy8ebDRv8tyz82NhZVMQZmc3NzuzCu1UsVMzxnZGREtdKHiOa6+V4uOINks9n3aq1/x9i+S1rr/yGiG/s1EXEul3OjKDpCa/1qZhZaa4eI8LLvkpGZldYamcbxRzOz1lrjd16gDwikmDnSWoMcu/XBARozO1rrWlJV+hBRiYj+q/qyTU9Pv0BrfZzW+nnoQ0SPOY5zZS9T5MCc++ijj76BmT9GRL9LRDdMTEycXI0t933/OCICni3LX+0DzEE24AycgPMCmOEZEa6HXur6AC/82U2XSilgvCkMwxu79aFZkCC+73+HiF5V8+BHiejciYmJL/djcL75En6GmY/uFlgt3hcKvzMMw8PQL5fLjURRdJHW+hzzpS4z8985jvORXp0xTE9Pv1IpBXLksDl3XffofD7/SFVOz/MQNdgveDaCHxjfEobhMS3qpunLWyEIvgT/ysxnBkHwn00/YYkuBEG2bdt2PRFVwYLt/n/rHl+Nm14ofroymzTos9j1uLy2T/VazFJ5KeWp1fuZUFWM8a9MH4zxdCnlzUsE067HGPd1LKuO11ojKvCvwzAMaseRzWYv01rjsDCO/LV9hhCBiNWsuT8+trXL9Wb00ghnEOQbYRjizKYrrRWCYABzWutPlkqlD99///2buzKimDetJ4jW+gtEdF3t7czyquw4ThRFkRJCaKUUO44jlFJYlmXM/1dwwe+4jplLQghV3yeKIkz7rlkyVR5l7gly4Dm/LhQKWJruap7n/SEz/yNcOMw/PiSEOLpQKCA6b0ka9mojIyPHIPhJa70XEa13XfdT9TMZzL5KqX3akD8ql8tYlv4OM/89Ef1x5S1nvkApVagK6zhw9VIVzIAzmsGyohdgLISA0nYtZdFHa12OomhzsVj8abeAa4YgYDe+xI8R0R8R0eNa61NXrVp1ez8ttUCQZ5555jqt9TuMEi5fuXLlef00RqNEzmaz+2utbyeiMfNv9yulDlkiT1kkmF4thPgHInoJM38RS+cgCKDfrjQQjZn/QWs9aXSzNgiCr3TlYR2+abME+Xci+igRwbqBiLINURSd1k/FUcwMcg0RYWOJdoXruut7tb5fTE8wKJTL5TMMprgUfk43SSlP6LZDoFlafY6IDiKiHwohTi8UCt/u8Hu12+2mp6dfrJS6gYiy+EFrfUQYhphF+z5VUDMEwXQ3w8xrlVJ/z8x/Y6w5542Ojn6qXw6TzCb9KjM+TOMf37Fjx7pNmzbB0tF3bb/99suMjo7i673WDA77kTOllEjj2ZVmDAWwTv4tEc0y84f32muvD3c76ZshCD6uMAagvV1K+aXEEERrLcMwfO309PT+SqlPYv3MzJuVUgeHYbipHwStJwgRfWLLli3r+jlnk+/7y4kIs/MLDYYwfrxNSvnjLjCEp6ens0op+FYNE9G9QohT6vdIXXguGYJgP/g6c/+jDEH6PiNKszNIIKXMmcMuWAzON0utr2HN3w9nI4NIELwsU1NTk0IIFJvBIR3Kld3kuu67O126DAe/rutu1FrvS0S/YOb3BkEAQ0bXWz1BtNZHD0p8SVMEqc4gRqG/7zjO1VprrGHRjpdS4qCmp1+DQSUIDF++78PC815j+n1Ya/3eMAyx/OpUwzNwvyOICFkQv7Rly5YTlmp2XWAGQQBWYvYgRSllZYOF5nneO5gZ+ZGeT0S/EkK8plAoPNQpbca5j9mkf4qI3on+/b4HqZXxoIMOGtu+ffsdzIwlCD5a90RRdObMzMyP4mBR28eclp+MPLrm3/87iqLDOnHvZsdmCILzn9eaPsnagxDR/VLKiokOzbyMV5tDuQwz36GUwrTZs3rYZga5lpmPNcP8qOu65/WjFavBi4X9wSuUUncSEdx74NpzWSaT+VCbfkYwKU/jMM2YlJ9m5ncHQQAT75I1QxBYzjw8VGt9eBiGiFhMxAwCIb4rpax1O6HJycl9HceBkH9ihD5/bm7uo72yGhnSwlICj1Qo4bIwDM/r9dKv2bfQ7O8Ox0EsMz8b507MfEoQBDgvifUiZbNZHEbebvYdOIi7aWJi4oSlPhtqcA7y1iAIkAyi71szexAo5z+llBUi1LZsNvsWnFZrrfchom3Gvn1XL6Ru4GpyqZQS6/pYL1cvZMBG2nGci4joJGNpCoQQJxYKhR+2Op5cLvfb5XL5s0R0oOkrmflt3TwQXGiMJhDrJjgIm2veLKWsRC32e2uGIJDh+1JKnKLv1kxw/4VIRQl3ACL6D3jULuX6tjqgemdFZv5QEAQgyCA1npycfKnjOB83Lzb087lSqXTWxo0bn25WkFwut1e5XL6ciE40fR7SWr89DMP7mr1HJ68zBMH5zp/jvsx8mJkZO/mYrtyrGYIsOINgRMaWj6XNW80I/0lrfexS70fqZ5ABJQi8ft1SqfR6Zv4IEb3UHOi9LwiCy5qcDZEJ8T3G9wnOgciCeGI3DyD39GY2IMibgiC4bU/9+uH3ZgnyG3uQ2sGb/QimzFcQEUpxfUBKiUTHS9bq9yBE9BEpJfYgA7PEqoJlnAnPZuaziAiHib9i5uODIMBme9Hm+z68b68ym31ce0kURZf0Ml2oIQiOAhDOi/3hW8Iw/Kc9ydIPvzdDEJxv3CelrFggFmq+78ONAAqEr9ajZj+ym/t0NwUeIGfFpmAwrvHXGtd4LF8fFEIcvNjJtynHDJ+nqkvHPUR0pJRya1MP7dJFhiCwYk2ZR8BbAAaevm/NEqQgpay6CTQUykT0naW1xtIApPr2yMjIW5cqrLTG9Hy8+Up9LJPJrBsQM29DTE0dQGxuX2xmQjk+Pn5gI98pzDqjo6Oo/IT4E7iS/CqKotf2Yj9YL0y9syIzHxkEwZcHYXZvhiAwD35bSlk9OV+Q9cYBD7MILCdPEdHlUkocKHa9NXJW3Lx58/qlOi3uloC+759NRLBsPct8eIDp+rrnsed5b2Nm7FNeYJxJj3cc5wv98IFo4KwIX6zEnKSDIPdKKQ9u5iWYnp5+kdb6O8b0+12t9YlhGP5bM33buWaAXU0WFdt8dLC/A/4I0EKg0CFhGO4yp5sgLIQj/KW5GTxlT+n10qoqWNJ9sUCQb0op1zTzApulFpITwLIFV/PPaK3Xd9uqlVSCAPNcLve75XJ5hohWGh08ViqV/hQFND3PG2dmxJa83xAIMeWHSSm/2y9LmDQQpOkZBAo0B15YO79Ba/0zIcQ53T45TTJBgKnv+/AQ+Izx+oVl7rbZ2dnDx8bG4MKOGeO5JgPLOf1WPzDpzopN70FqZhisifdjZti64dB4q+u62DD/rJlZKM419Zt0OCuaPUg1K3m9ubf27/V7serf2+nTcfOy7/uIqYAzJpZac9hzaK33r/Fxul0pdU4/RXpClyBIFEXIODONvydtkw6L1B6tWPUvNTxUd+zYgejDDxur0jlbt279dLc2zQ2cFW9m5qurOZaQPADJGpCAIIqinea/KpPJgAwIgYXlBzEZruu6FYKgjwmHLbmui/OdcqlUwn2qCR6GkOgByRuqfZDYQSn1VDesRwcccMCz5+bmsPeA4yjGCN1UExn83Dgi3tEvS6vqO2HMvHB7SaSzYiXkVkrpt/plx4ZdKYVU+vDZelApdVSxWES+rY63BgeFHX9GkzcEqZDuB1/2jrepqalXCCFAghfV3Byzycccx/lgm96/HR+vWR4iKfaug0JmTpyz4sZad/cWUBTZbPZ1WutPENEfIlAniqJTu1FvooGzYgvD7PiliMCsLCc63Yz/G/yajqy594Na67PCMARx+q7VOysyc+JcTRAPUnETaLUZt4lThBDnaa3HtdYXhGEIk2RH1+gNMiviFL+r2ToWweJhKSWWFB1vpn4H9iJVixaegQQMNzqO8/58Pv94xx/a5g0T76zIzPcFQVB1E2gZLs/zVgkhrtBav4mIthjP0n9p+UaLdFjAWRFexh0lYifH3Oq9pqen/1QphThyxHlALuSyQqgB9k9Paq0vmpubu2nTpk07Wr13N69P+gyCg6lKVpN2QMxms3+utUYk2x/ALZ6ZX9/J2IQFnBWRXKKnsfLtYFbbN5fLPadUKn21aglCmQIighHkL2rc2n+ktX5XGIZhP8ld76yYtD1IHDPvb7wXZu18ktb6EmbGUuvmMAxh2+/IF75RyO3ExMT6pY6e6xQh6u6DpAuI6UbWSJh4kZV+3datW69cvnz5i5kZDooIRsLH4BtRFJ08MzPzyy6NpeXbJt2KBdPoPUEQvKFlZOo6mK88lgjIeI6ZCV+7jqSub+SsODc3t75XIcDtYlXbP5vNnowQ4ppUpbe5rnskUgOZD8+biQg5AlA6DQmdL1RKfbyXLu6140/6OQjS9N8VBMGhnVC653lIZIwlwG/DoVEI8WedyIiS1JN03/eR8PnrxgkRKnho586dr65NHm5yXl2otT7dzDDbtdZr+mWplfSTdJxE3ymlxAa7I83zvKNgdTHKhBsLPIXbWmolkSDmsBVuJHBURExIWSk1XSwW4Ze1W/N9fzXOQqoJoonoR1EUed0wqbf6EiTdFwsE+bqUEtN4x1o2m/0S0r+YdfPJ1UpMcR+QQIKw7/vIYgnXdkQVYuNxfhiGOHht1JDi5zQsr4xfFlw6rgqC4N293rAnniCmSEmlUlKnGqwy5XIZeX2RB+pJIYTXTp7YpMWDeJ6XNcnesMTC7Prt2dnZNYvtqYxnL7yo4bkAtxn0O1xKiVIDbc3Q7eg9DfEgd0kp39gOSI36Tk1NHSSEQKzDMAwB5XL5rXE3lkmKKMTHI4qiy5HDFstQeEQ7jrN/M3u1qampPxFCoGLVy4A5kozDXzAIgh90Wn/N3i8NEYUbpJSvbxaQVq7zPA9mX9TtgzPghY0qHTVzv6TEpCNAatmyZTCHI1/v3jBkMPNxQRDAjaSpMx3f999lnETRH+0+13Xf1KtT9h7HpIs1a9ZkZmdnowbRlSKXyw0NDQ05juOUG4UyNxNyW4kvl1JWE5A18742fY3ZiCL8EnX7fiKEODZOObKEZDWppgpFjmH4rsGF5NJyuXxZKzOrKdAD/zcQBZt7tBtGRkbOXqocAbUvQC+zmkxNTSHZOvIp/DAIAlhPKxPr1NTUc2FBNV4JCGdGjunvzc/PP1Cbg6wZgnTVOxWjNVMw0sDA6/POKIrOaPWgKwl5sVAqWil1ZfWciIi+YoqmtlweLZvNPldrjaC1aqg0zkf+thfpYXuZFyubzaI0OD7An5ZSVhLpTU5OPl8I8QFmPoCIntBab2dmxC25WusblFKXVz9IfUEQDDqbzR6qtUbEHGqPX7pjx46rWvEpGvTMiqj+VCqVUMHrTGywmfk7SqkzwjC8v9mlVf20bc5QYE6vFM+EHxzSmi51yp1eOivWE8TE+KMSMqyBIM7NWutnmBnhA7AAvpKI3iilvLcy1Sy0Fqqpk44Z5FvdWmJVn4/kzcuXL1+P2uGw4QshzigUCnBobMr6MuC5ebG0eqdJmQSTLvKKXbR169bPtxtg5nnegaZQJ0Jy0R5g5ncEQYCY9SVpvczN24Ag1fRIOPg+S0qJQ9hKm56eno6iCMsu+B5WEo00QxDsQe7p1ia9VkM4ZRdCXKO1RnaOL8KmH4bhw81ocZCzu09PT08ppVDUEtP8LGbS0dHRCzuxXzBJNI7WWsOXC/sRfHBud133hHw+X19HvhmoW76ml9ndawhynZTyJPOenEZEHwQOQoiPj42NbcIGHW47Tz75ZGbbtm1R1ZzeDEGwdr0zDMOOnoMsgDK+pAcZZaI+95mO43y+mXJkjZwVB6E+iDkP+pYpsY2XV2qtTwjD8L9bfhMX6IDlW7lcRugzsp+gIRP/ZatWrfrgUjhz9rI+SJUgzHxtEAQnQ3iUhTDvGJJpI3cxStIhdui2IAjw312rlmYIgpP026SU1WqsndJbw/uYwy6cICOv7kPGNfr7e1pqmS/DoFWYgpcuDvEw3SO2/BGzKe947QzEs8/Pz99d44rygNb6PWEYfrOrCv1/I0xPKkzVzCDXSClPqVlOvUBrfaRS6ghmRnwN8Ed5urtd1z2m+lFuhiDIbfVVKWVtiGdXMTWBQVcgJRSY7zjO+fl8HpkaF2yD6Gried45KMVslIMv2fVSSmzSm9p3tagEuK6ghEXenK/AZf6LSqnzWrUYtvjcharcLklmRc/zDmdm+LNdLaVEWtbfaFNTUy90HOfNyN8GNx0T9Vpx6WmWIF+RUr69VWDaud7zvBOZGcnQVmitD121atWGxZYDg0YQz/NeZbyah0x8x/dKpdKBtV667eDXqC8MIfvssw+MAZhpofvtRLRufHz8hm7WSu+lL1bNDPIpKSX2Hgs2QyaYxpEoEedyTRPkVinlUZ1W2GL3Mylu4FcEJ8kfR1GUXcwzdZAIYmRDdhckpUZ7RghxaKFQ6HoMfTabnSCia7XWVdehB5RSx3cr2wyE62KddF67dq3Ah9MUK0UO40McxznKVOXCrImw64uZeR1qrJgslXcy8y+jKDqlWCz+tPoe+r4Pj3XMNrdLKd/WCkGWdIlVHXA2m0WYL1KX7svMl5ulVjUR3G78auSsuGPHjnX9FjBlFIkkaogOxFcc8TYXB0EA15KlaCgYOqmUgr/WC80Dr2fmC4IgeLIbA2jgrNh2ldvJyclR13Wv11q/2hQIymez2XXweNZaw+hxnRDit7TWHyOiZyPBXhiGMpfL7V0qlS5iZqxQvoaakFrrx4QQCAnHcvf5JmdCpX5JM0ssvJBfqzKqGwAuds9sNnsRwkuJaATuKFJK1Lz4jTW62aRfQ0THmftd4bru+n7Ibl6Vz0T/ITMi3EAgT8WEPjs7e+hSEtlkmnkXqnCZcWCf+Tezs7O3dGMc9c6KpnYMzNqx91rGRekerTVOxd+Pyr3GEwHYIk4f3sx4d+Guc3MQBChGVGnmXAZl7nAdNufQAzDAgeHVQRCgjERlbM0QBDHpd3Q6HqRZoq1evfpZQ0NDt2qtceD1U2Y+qJFXawNnxWujKLrUdd1dDn6lUkkNDw9DnvL8/LxyHKcCguu6zuzsLLIjwmkNMd+7WhRFUblcjkZHRyv/xQ9RFPHw8DCAdefn551MJlPNbkhCCI3naK3L+DM8PPy0ISnSsSKoCXUx4OKP9n2l1CHFYvHnzeLRqetMUj+UpkBMDsb/mFLq0G4stRqcg6wNggDWu3YaSs29TAjxMqXUPdXk6HhfXNc92FimtjLz94IgKNSTETNJuVz2mRkHg8iR8IgQYkOhUEBt+pbMvJVEAN1wd28WnWw2+2daawD6IrxgWmsEWO1WNanBSfqPiei/ap+htVbMXPkDE86urwQzUomy1hpuLrtedvQ1fRCXjy5VsjGa1hr9RF0f3BfX4c8jrut+EjmJTfUnuNIgoRxI+LAQ4phCoQDl9aR5nvc6RCGaMxh8LP9FCPGOQqHwi04OqP4kPWkl2KBwxINUdvW9aia7OaZPeF5eNDExcWmtVavPMitWYfqhEOIopRSSdr/PJJ4e01r/GvUHpZQoS9azBr+kkZGRd2IPZBI+4IPwmXK5fHYrVXX3JEAvfbH2NLY9/b7gEiubzV6jlHqJ+XJuDMMQ1oCeNeNkBj8t5LrCmcixtX405vf3EBE8NCtyYVaoH7BJZt1o7duwTzX59QLrZcwiCz0Dj344iqIPOo6D5G6wwcOChOvzW7Zs+Ui7fladUAaqFDPzuUS0H2ZQrMWFEB/q5Mxmarbj4BdVe1kIcVGckIZOyNvqPRYkCCrXZjKZUWQrh2tCsz5RrQ6gleuNCzfcwY/A+t0UinnQ3ANuKiuR3jSKIuG6LpY+9fsJ7DuQfT3CXqH6bKUUo48QAluQ3ZZYJlt7hH71fXA9+tX30Vpjv4LM8fNjY2OPPvXUU2M4z6nef2ho6NFO+Fm1gt1i105NTT1Pa71rfEKIrfl8HoV4OtJw/rL33ntPMPMIsIqi6JFuF1TqyMAX26R36gGdvo9JGwQLCMx7X9qyZctx/fAl7rSc9n79gcCCM0h/DK/xKEwJANi64Z16brcSRfczBnZsS4PAQBIEZknP8w4zFi0stY7spPfr0kBvnzIICAwqQRA2OSqEQMKHkxBOOTs7e243DrkGQYl2jN1DYGAJAkgQW+w4Dg7eEDuCQqGo0W6bRaBjCAw0QeC68fjjj+cQlM/MG5RS68IwfLRj6NgbpR6BgSYItIcAKyI6TQhxtlJqfSaTubGf/K9S/4YNOAADTxDgb05q4Ym5XCl1WrFYfGDA9WKH3ycIJIIgwNKkMb2Cme8YHR29ZMOGDQgGss0i0BYCiSEITmtXrFgBi9YZJtYa6Vxiu1O3hartnBgEEkMQY9VagVrhRPSKKIqOnZmZ+UliNGUF6QkCiSKIIcm+juNcy8yPOI5zUjMpg3qCvH3oQCCQOIIAdVNRF3XKkSUELvK2WQRiIZBIgsAVJZvNHqK1vhJ5jxqVLIuFlu2UOgSSShAy8SGIZT+8VCr5nQwASt1bkmKBE0sQ6NRYtuCK8ss95URK8TtgRV8EgUQTBHKbiLn7oyg6tVgsbrBvg0WgFQQSTxCAYbIYfsF13dfsKYVpK+DZa5OPQCoIYmaSU7XWLw3DEGWR7QFi8t/tjkiYGoKYpG2fYOa7gyC4y5KkI+9P4m+SGoJAk6a88sXlcvkD3c5onvg3JyUCpoogOB/xfR816A5wXfe6fD7/TEr0bMWMiUDaCEImyfX+QgikAPqWjR2J+eakpFvqCAK9In9rJpN5rRDiR4VC4X9SomsrZgwEUkkQ5APzPG/CcZx9S6XSA4vVHYmBqe2SIATSShCosJIdHFkWd+7c+VObESVBb3UHRUkzQQim3yeeeOKP5ubmHu5m6bMO6sveaokRSDVBgDXyazmOMzE+Pv7LbtbpW2K92sd1CIHUE8SQZMXw8LDK5/O/tgeIHXqzEnIbSxCjSFQcyufzT5vCNwlRrxWjXQQsQdpF0JY92SEAAAFXSURBVPZPNAKWIIlWrxWuXQQsQdpF0PZPNAKWIIlWrxWuXQQsQdpF0PZPNAKWIIlWrxWuXQQsQdpF0PZPNAKWIIlWrxWuXQQsQdpF0PZPNAKWIIlWrxWuXQQsQdpF0PZPNAKWIIlWrxWuXQQsQdpF0PZPNAKWIIlWrxWuXQQsQdpF0PZPNAKWIIlWrxWuXQQsQdpF0PZPNAKWIIlWrxWuXQQsQdpF0PZPNAKWIIlWrxWuXQQsQdpF0PZPNAKWIIlWrxWuXQQsQdpF0PZPNAKWIIlWrxWuXQQsQdpF0PZPNAKWIIlWrxWuXQQsQdpF0PZPNAKWIIlWrxWuXQQsQdpF0PZPNAKWIIlWrxWuXQQsQdpF0PZPNAKWIIlWrxWuXQQsQdpF0PZPNAKWIIlWrxWuXQQsQdpF0PZPNAKWIIlWrxWuXQQsQdpF0PZPNAKWIIlWrxWuXQT+D8fAnrkkQCrMAAAAAElFTkSuQmCC;" parent="1" vertex="1">
                    <mxGeometry x="692" y="509" width="62" height="62" as="geometry"/>
                </mxCell>
            </root>
        </mxGraphModel>
    </diagram>
</mxfile>